<svg width="108" height="103" viewBox="0 0 108 103" fill="none" xmlns="http://www.w3.org/2000/svg">
<path d="M40.8683 65.7035C38.7615 62.2498 34.2629 61.1567 30.8096 63.2637C23.5706 67.668 19.4362 74.1794 19.4362 81.1185C19.4362 82.7978 17.8838 84.8098 15.1434 86.4733C11.6902 88.5804 10.5972 93.0797 12.704 96.5334C14.0821 98.7989 16.4899 100.035 18.961 100.035C20.2599 100.035 21.5747 99.6861 22.7627 98.9574C30.0018 94.5373 34.0728 88.0417 34.0728 81.1026C34.0728 79.4233 35.7043 77.4113 38.4447 75.7478C41.8821 73.6566 42.9751 69.1572 40.8683 65.7035Z" fill="#2A2B30"/>
<path d="M67.1318 65.7035C69.2385 62.2498 73.7372 61.1567 77.1904 63.2637C84.4294 67.668 88.5638 74.1793 88.5638 81.1183C88.5638 82.7977 90.1161 84.8097 92.8565 86.4731C96.3097 88.5802 97.3869 93.0795 95.2959 96.5332C93.9178 98.7987 91.5101 100.034 89.039 100.034C87.7401 100.034 86.4253 99.6859 85.2373 98.9571C77.9982 94.537 73.9273 88.0416 73.9431 81.1025C73.9431 79.4232 72.3116 77.4112 69.5712 75.7477C66.118 73.6565 65.025 69.1572 67.1318 65.7035Z" fill="#2A2B30"/>
<path d="M27.9108 30.7859V54.4233C27.9108 68.8402 39.601 80.5164 54 80.5164C68.4147 80.5164 80.0891 68.8244 80.0891 54.4233V30.7859H27.9108Z" fill="#7F542E"/>
<path d="M73.959 62.2024H34.0411V94.6799H73.959V62.2024Z" fill="#2A2B30"/>
<path d="M41.2485 62.2024C41.2485 69.2366 46.9511 74.9558 54.0001 74.9558C61.0332 74.9558 66.7516 69.2524 66.7516 62.2024H41.2485Z" fill="white"/>
<path d="M61.9202 91.7807H45.7788C40.2822 91.7807 35.6251 88.1844 34.0411 83.2098V94.8066H73.959V82.1008C72.7393 87.6299 67.8129 91.7807 61.9202 91.7807Z" fill="black"/>
<path d="M35.2133 41.2743C35.2133 43.8883 33.1065 45.9954 30.4928 45.9954C27.895 45.9954 25.7723 43.8883 25.7723 41.2743C25.7723 38.6761 27.8791 36.5532 30.4928 36.5532C33.1065 36.5532 35.2133 38.6761 35.2133 41.2743Z" fill="#F0BC80"/>
<path d="M82.2118 41.2743C82.2118 43.8883 80.105 45.9954 77.5072 45.9954C74.8935 45.9954 72.7867 43.8883 72.7867 41.2743C72.7867 38.6761 74.8935 36.5532 77.5072 36.5532C80.105 36.5532 82.2118 38.6761 82.2118 41.2743Z" fill="#F0BC80"/>
<path d="M61.4133 64.531C61.4133 68.5391 58.166 71.7869 54.1584 71.7869C50.1507 71.7869 46.9034 68.5391 46.9034 64.531V61.4417C46.9034 57.4335 50.1507 54.1858 54.1584 54.1858C58.166 54.1858 61.4133 57.4335 61.4133 61.4417V64.531Z" fill="#F0BC80"/>
<path d="M77.618 38.565C77.618 51.6036 67.0524 62.1707 53.9999 62.1707C40.9633 62.1707 30.3819 51.5877 30.3819 38.565V26.1127C30.3819 13.0741 40.9474 2.49121 53.9999 2.49121C67.0366 2.49121 77.618 13.0583 77.618 26.1127V38.565Z" fill="#FFD097"/>
<path d="M65.6744 34.2243C67.1792 34.2243 68.5573 34.7312 69.6662 35.5707C68.8742 34.1768 67.3852 33.2422 65.6744 33.2422C63.9636 33.2422 62.4746 34.1768 61.6826 35.5707C62.7914 34.7312 64.1854 34.2243 65.6744 34.2243Z" fill="#151619"/>
<path d="M42.5157 34.6364C41.0267 34.6364 39.6328 35.1275 38.5239 35.9828C39.3159 34.5889 40.8049 33.6543 42.5157 33.6543C44.2265 33.6543 45.7155 34.5889 46.5075 35.9828C45.3987 35.1275 44.0205 34.6364 42.5157 34.6364Z" fill="#151619"/>
<path d="M54 49.8298C54.6495 49.8298 55.2514 49.608 55.7266 49.2437C55.3782 49.8456 54.7445 50.2575 54 50.2575C53.2555 50.2575 52.6061 49.8456 52.2734 49.2437C52.7487 49.608 53.3506 49.8298 54 49.8298Z" fill="#F0BC80"/>
<path d="M68.1773 39.9119C68.1773 41.7177 66.7041 43.175 64.8825 43.175C63.0608 43.175 61.5876 41.7177 61.5876 39.9119H68.1773Z" fill="black"/>
<path d="M39.9179 39.9119C39.9179 41.7177 41.3911 43.175 43.2127 43.175C45.0344 43.175 46.5075 41.7177 46.5075 39.9119H39.9179Z" fill="black"/>
<path d="M42.5157 40.0386V41.0207C40.8049 41.0207 39.3159 40.0861 38.5239 38.6921C39.6328 39.5317 41.0109 40.0386 42.5157 40.0386Z" fill="black"/>
<path d="M41.5811 40.5139V41.496C39.8704 41.496 38.3814 40.5614 37.5894 39.1675C38.6982 40.0229 40.0763 40.5139 41.5811 40.5139Z" fill="black"/>
<path d="M65.5793 40.0386V41.0207C67.2901 41.0207 68.7791 40.0861 69.5711 38.6921C68.4465 39.5317 67.0683 40.0386 65.5793 40.0386Z" fill="black"/>
<path d="M66.4982 40.5139V41.496C68.2089 41.496 69.6979 40.5614 70.49 39.1675C69.3811 40.0229 68.003 40.5139 66.4982 40.5139Z" fill="black"/>
<path d="M73.563 49.37C73.563 52.1107 71.3453 54.3286 68.6049 54.3286C65.8645 54.3286 63.6469 52.1107 63.6469 49.37C63.6469 46.6293 65.8645 44.4114 68.6049 44.4114C71.3453 44.4114 73.563 46.6451 73.563 49.37Z" fill="#F9977D"/>
<path d="M44.9868 49.37C44.9868 52.1107 42.7691 54.3286 40.0287 54.3286C37.2883 54.3286 35.0707 52.1107 35.0707 49.37C35.0707 46.6293 37.2883 44.4114 40.0287 44.4114C42.7691 44.4114 44.9868 46.6451 44.9868 49.37Z" fill="#F9977D"/>
<path d="M48.7727 52.3801C48.7727 55.2948 51.1329 57.655 54.0476 57.655C56.9622 57.655 59.3224 55.2948 59.3224 52.3801H48.7727Z" fill="#FD6220"/>
<path d="M49.8022 52.3801C49.8022 53.2038 51.7031 53.8691 54.0316 53.8691C56.3602 53.8691 58.261 53.2038 58.261 52.3801H49.8022Z" fill="white"/>
<path d="M27.9108 26.4455C27.9108 26.4455 27.5623 39.3731 28.6394 44.015C29.6532 48.3559 33.249 58.4319 33.249 58.4319V39.9435C33.249 35.9036 36.322 32.5766 40.092 32.3548C42.7532 32.1964 45.4936 31.9587 46.8876 31.626C59.6866 28.5367 61.0331 22.0095 66.498 22.0095C76.0656 22.0095 74.7508 32.6241 74.7508 32.6241V58.4319C74.7508 58.4319 78.2357 48.6569 79.3604 44.015C80.4851 39.389 80.0891 26.4455 80.0891 26.4455C80.0891 12.0286 68.4147 0.352539 53.9999 0.352539C39.5851 0.352539 27.9108 12.0445 27.9108 26.4455Z" fill="#7F542E"/>
<path d="M66.5139 94.8699H41.2168V100.954H66.5139V94.8699Z" fill="#C4B190"/>
<path d="M54 102.11C51.1962 102.11 49.2954 101.824 47.5846 101.128V99.686C49.0736 100.304 51.4338 100.668 54 100.668C56.5503 100.668 58.9263 100.304 60.3995 99.686V101.128C58.7046 101.84 56.8037 102.11 54 102.11Z" fill="#666666"/>
<path d="M31.3007 89.0078C15.2068 94.0459 3.46907 93.935 3.46907 93.935L1.69495 99.686H47.6005C47.6005 99.686 49.0103 96.2006 54 96.2006V93.9508C54 93.935 48.1232 83.7479 31.3007 89.0078Z" fill="#E8DABC"/>
<path d="M76.6993 89.0078C92.7932 94.0459 104.531 93.935 104.531 93.935L106.305 99.686H60.3995C60.3995 99.686 58.9897 96.2006 54 96.2006V93.9508C54 93.935 59.8768 83.7479 76.6993 89.0078Z" fill="#E8DABC"/>
<path d="M31.2373 92.6351C48.0915 90.2907 54 94.6468 54 94.6468C54 94.6468 48.1074 89.3561 31.2373 92.0014C15.0959 94.5359 3.32648 94.6468 3.32648 94.6468C3.32648 94.6468 15.0959 94.8844 31.2373 92.6351Z" fill="#C4B190"/>
<path d="M76.7627 92.6348C92.9041 94.8842 104.674 94.6465 104.674 94.6465C104.674 94.6465 92.9041 94.5357 76.7627 92.0012C59.9085 89.3558 54 94.6465 54 94.6465C54 94.6465 59.8926 90.3063 76.7627 92.6348Z" fill="#C4B190"/>
<path d="M31.2373 95.4559C48.0915 94.6639 54 96.137 54 96.137C54 96.137 47.9014 94.1094 31.0472 94.9965C14.9058 95.8519 3.32648 96.137 3.32648 96.137C3.32648 96.137 15.0959 96.2004 31.2373 95.4559Z" fill="#C4B190"/>
<path d="M76.7627 95.4559C92.9041 96.2004 104.674 96.137 104.674 96.137C104.674 96.137 92.714 95.8519 76.5726 94.9965C59.7184 94.1094 54 96.137 54 96.137C54 96.137 59.8926 94.6639 76.7627 95.4559Z" fill="#C4B190"/>
<path d="M31.0155 98.07C48.044 97.7057 48.5034 98.3235 48.5034 98.3235C48.5034 98.3235 48.044 97.1038 31.0155 97.5156C14.6999 97.9116 2.81958 98.3868 2.81958 98.3868C2.81958 98.3868 14.6999 98.4185 31.0155 98.07Z" fill="#C4B190"/>
<path d="M77.0003 98.07C93.3001 98.4185 105.196 98.3868 105.196 98.3868C105.196 98.3868 93.3001 97.9116 77.0003 97.5156C59.956 97.1038 59.465 98.3235 59.465 98.3235C59.465 98.3235 59.956 97.7215 77.0003 98.07Z" fill="#C4B190"/>
<path d="M47.6005 99.6702H0V101.112H47.6005V99.6702Z" fill="#2D9CDB"/>
<path d="M108 99.6702H60.3995V101.112H108V99.6702Z" fill="#2D9CDB"/>
<path d="M27.9584 92.6997C27.9584 97.4525 24.1092 101.302 19.357 101.302C14.6049 101.302 10.7557 97.4525 10.7557 92.6997C10.7557 87.9469 14.6049 84.0972 19.357 84.0972C24.1092 84.0972 27.9584 87.9628 27.9584 92.6997Z" fill="#FFD097"/>
<path d="M21.4638 98.7513C16.7117 98.7513 12.8624 94.9015 12.8624 90.1487C12.8624 88.6754 13.2268 87.2812 13.8921 86.0771C11.9912 87.6614 10.7715 90.0378 10.7715 92.6994C10.7715 97.4522 14.6207 101.302 19.3728 101.302C22.6518 101.302 25.5031 99.4801 26.9446 96.771C25.4556 98.0067 23.5389 98.7513 21.4638 98.7513Z" fill="#F0BC80"/>
<path d="M80.0416 92.6995C80.0416 97.4522 83.8909 101.302 88.643 101.302C93.3951 101.302 97.2444 97.4522 97.2444 92.6995C97.2444 87.9467 93.3951 84.0969 88.643 84.0969C83.875 84.1128 80.0416 87.9625 80.0416 92.6995Z" fill="#FFD097"/>
<path d="M86.5362 98.7511C91.2883 98.7511 95.1376 94.9013 95.1376 90.1485C95.1376 88.6751 94.7732 87.281 94.1079 86.0769C96.0088 87.6612 97.2285 90.0376 97.2285 92.6992C97.2285 97.452 93.3793 101.302 88.6272 101.302C85.3482 101.302 82.5127 99.4798 81.0554 96.7707C82.5444 98.0065 84.4611 98.7511 86.5362 98.7511Z" fill="#F0BC80"/>
<path d="M41.4543 48.1975C36.2745 48.1975 32.061 43.9834 32.061 38.8029V38.1533H50.8319V38.8029C50.8477 43.9834 46.6342 48.1975 41.4543 48.1975ZM33.4074 39.4683C33.7401 43.619 37.225 46.8984 41.4543 46.8984C45.6837 46.8984 49.1686 43.619 49.5013 39.4683H33.4074Z" fill="#CE3500"/>
<path d="M66.6247 48.1975C61.4449 48.1975 57.2472 43.9834 57.2472 38.8029V38.1533H76.0181V38.8029C76.0181 43.9834 71.8045 48.1975 66.6247 48.1975ZM58.5778 39.4683C58.9104 43.619 62.3953 46.8984 66.6247 46.8984C70.8541 46.8984 74.339 43.619 74.6716 39.4683H58.5778Z" fill="#CE3500"/>
<path d="M57.8967 42.0026C53.9841 38.5969 50.3883 41.6383 50.2458 41.7808L49.3904 40.7987C49.4379 40.7512 53.9999 36.8703 58.7679 41.0205L57.8967 42.0026Z" fill="#CE3500"/>
</svg>
