<svg width="60" height="60" viewBox="0 0 60 60" fill="none" xmlns="http://www.w3.org/2000/svg">
<path d="M30.3284 21.2705H7.58209C7.09134 21.2705 6.6936 21.664 6.6936 22.1493C6.6936 22.6347 7.09134 23.0281 7.58209 23.0281H30.3285C30.8192 23.0281 31.217 22.6346 31.217 22.1493C31.217 21.664 30.8192 21.2705 30.3284 21.2705Z" fill="#2C87BF"/>
<path d="M30.3284 27.4453H7.58209C7.09134 27.4453 6.6936 27.8388 6.6936 28.3241C6.6936 28.8094 7.09134 29.2029 7.58209 29.2029H30.3285C30.8192 29.2029 31.217 28.8094 31.217 28.3241C31.217 27.8388 30.8192 27.4453 30.3284 27.4453Z" fill="#2C87BF"/>
<path d="M30.3284 33.6211H7.58209C7.09134 33.6211 6.6936 34.0146 6.6936 34.4999C6.6936 34.9852 7.09134 35.3787 7.58209 35.3787H30.3285C30.8192 35.3787 31.217 34.9852 31.217 34.4999C31.217 34.0146 30.8192 33.6211 30.3284 33.6211Z" fill="#2C87BF"/>
<path d="M31.217 40.6747C31.217 40.1893 30.8192 39.7959 30.3285 39.7959H7.58209C7.09134 39.7959 6.6936 40.1894 6.6936 40.6747C6.6936 41.16 7.09134 41.5535 7.58209 41.5535H30.3285C30.8192 41.5535 31.217 41.1601 31.217 40.6747Z" fill="#2C87BF"/>
<path d="M7.58209 48.8462C7.09134 48.8462 6.6936 49.2397 6.6936 49.725C6.6936 50.2103 7.09134 50.6038 7.58209 50.6038H18.9844C19.4751 50.6038 19.8728 50.2103 19.8728 49.725C19.8728 49.2397 19.4751 48.8462 18.9844 48.8462H7.58209Z" fill="#2C87BF"/>
<path d="M40.5676 10.8814V8.02973C40.5676 6.9434 39.6741 6.05957 38.5757 6.05957H20.3337C19.2354 6.05957 18.3419 6.9434 18.3419 8.02973V10.8814C18.3419 11.9677 19.2354 12.8514 20.3337 12.8514H21.8742C22.3649 12.8514 22.7626 12.4579 22.7626 11.9726C22.7626 11.4872 22.3649 11.0938 21.8742 11.0938H20.3337C20.2153 11.0938 20.119 10.9986 20.119 10.8815V8.02973C20.119 7.91266 20.2153 7.81727 20.3337 7.81727H38.5757C38.6942 7.81727 38.7905 7.91254 38.7905 8.02973V10.8814C38.7905 10.9984 38.6942 11.0937 38.5757 11.0937H26.0281C25.5373 11.0937 25.1396 11.4872 25.1396 11.9725C25.1396 12.4579 25.5373 12.8513 26.0281 12.8513H38.5758C39.6741 12.8515 40.5676 11.9677 40.5676 10.8814Z" fill="#2C87BF"/>
<path d="M47.2112 53.5894C46.7205 53.5894 46.3227 53.9829 46.3227 54.4682V55.6516C46.3227 57.08 45.1478 58.2423 43.7034 58.2423H4.3962C2.95205 58.2423 1.77696 57.0802 1.77696 55.6516V13.4095C1.77696 13.2193 1.79947 13.0328 1.83964 12.8512H9.92981C11.6189 12.8512 12.993 11.4921 12.993 9.82148V1.81969C13.1765 1.77996 13.365 1.7577 13.5573 1.7577H43.7032C45.1475 1.7577 46.3226 2.91984 46.3226 4.34836V16.0486C46.3226 16.534 46.7203 16.9274 47.2111 16.9274C47.7018 16.9274 48.0996 16.5339 48.0996 16.0486V4.34824C48.0997 1.9507 46.1275 0 43.7034 0H13.5574C12.3832 0 11.2791 0.452344 10.4488 1.27359L1.28752 10.3349C0.457214 11.1561 0 12.2481 0 13.4096V55.6518C0 58.0494 1.9721 60 4.3962 60H43.7034C46.1275 60 48.0997 58.0493 48.0997 55.6518V54.4683C48.0997 53.9829 47.702 53.5894 47.2112 53.5894ZM11.216 3.00047V9.82148C11.216 10.523 10.639 11.0937 9.92981 11.0937H3.03356L11.216 3.00047Z" fill="#2C87BF"/>
<path d="M59.3807 31.4063C60.0044 30.5008 60.1658 29.3839 59.8235 28.3418C59.4812 27.2998 58.6868 26.49 57.6442 26.1202C56.9525 25.8748 56.491 25.2467 56.469 24.5201C56.4354 23.425 55.9022 22.4275 55.0059 21.7834C54.1098 21.1395 52.9856 20.9462 51.9226 21.253C51.2167 21.4567 50.4707 21.2167 50.0209 20.6419C49.3431 19.7753 48.319 19.2783 47.2112 19.2783C46.1035 19.2783 45.0792 19.7753 44.4013 20.6419C43.9515 21.2168 43.205 21.4565 42.4997 21.253C41.4366 20.946 40.3126 21.1395 39.4163 21.7834C38.5201 22.4275 37.987 23.4249 37.9534 24.52C37.9312 25.2466 37.4699 25.8746 36.7781 26.1201C35.7354 26.4899 34.941 27.2998 34.5989 28.3417C34.2566 29.3838 34.4179 30.5008 35.0416 31.4062C35.4553 32.007 35.4553 32.7832 35.0416 33.3839C34.4179 34.2895 34.2566 35.4064 34.5989 36.4484C34.941 37.4904 35.7354 38.3002 36.7781 38.6702C37.4699 38.9157 37.9313 39.5437 37.9534 40.2702C37.9843 41.2776 38.451 42.2241 39.2341 42.8669C39.7508 43.2911 40.3716 43.5565 41.0212 43.6452V51.6466C41.0212 52.3217 41.3914 52.9457 41.9873 53.2749C42.5824 53.6038 43.314 53.5892 43.8956 53.2349L47.1544 51.2507C47.2075 51.2182 47.2391 51.2329 47.2684 51.2507L50.527 53.2349C51.1083 53.5888 51.8397 53.6041 52.4354 53.2748C53.0314 52.9455 53.4015 52.3214 53.4015 51.6465V43.645C54.0509 43.5564 54.6716 43.291 55.1883 42.8669C55.9716 42.2241 56.4384 41.2777 56.4693 40.2701C56.4914 39.5436 56.9528 38.9154 57.6445 38.67C58.6873 38.3002 59.4817 37.4903 59.8238 36.4483C60.1661 35.4062 60.0048 34.2893 59.3811 33.3838C58.9669 32.7834 58.9669 32.0071 59.3807 31.4063ZM51.4583 51.7382L48.1996 49.754C47.5939 49.3852 46.829 49.3846 46.2226 49.754L42.9639 51.7381C42.8897 51.7827 42.7981 51.7313 42.7981 51.6465V43.4784C43.409 43.4084 44.0147 43.6543 44.4013 44.1484C45.0794 45.0149 46.1035 45.5119 47.2113 45.5119C48.319 45.5119 49.3431 45.0149 50.0209 44.1484C50.4076 43.6541 51.0134 43.4084 51.6242 43.4784V51.6465C51.6242 51.7319 51.5314 51.7828 51.4583 51.7382ZM57.9122 34.3738C58.224 34.8264 58.3046 35.3846 58.1335 35.9054C57.9624 36.4261 57.5654 36.8309 57.0442 37.0158C55.6601 37.5068 54.7371 38.7634 54.6927 40.2171C54.677 40.7282 54.4498 41.1889 54.0533 41.5144C53.6074 41.8804 53.0037 42.0184 52.4205 41.8502C51.009 41.4428 49.5154 41.9228 48.6154 43.0729C48.2767 43.5059 47.7647 43.7543 47.2111 43.7543C46.6575 43.7543 46.1456 43.506 45.8066 43.0729C45.1195 42.1945 44.0863 41.707 43.0077 41.707C42.6739 41.707 42.3355 41.7537 42.0018 41.85C41.413 42.0197 40.811 41.8775 40.3687 41.5143C39.9722 41.1888 39.745 40.7281 39.7295 40.2171C39.685 38.7634 38.762 37.5068 37.3778 37.0157C36.8567 36.8308 36.4598 36.4261 36.2886 35.9054C36.1175 35.3846 36.1981 34.8263 36.5099 34.3737C37.3378 33.1717 37.3378 31.6186 36.5099 30.4166C36.1981 29.9641 36.1175 29.4058 36.2886 28.8849C36.4597 28.3641 36.8567 27.9593 37.3778 27.7745C38.762 27.2834 39.685 26.0268 39.7295 24.5731C39.7462 24.0257 40.0126 23.5272 40.4605 23.2054C40.9083 22.8835 41.4699 22.7869 42.0017 22.9402C43.4128 23.3477 44.9069 22.8675 45.8066 21.7175C46.1454 21.2843 46.6573 21.0359 47.2111 21.0359C47.7647 21.0359 48.2765 21.2842 48.6154 21.7173C49.5153 22.8675 51.0086 23.3475 52.4204 22.9402C52.9519 22.7867 53.5135 22.8834 53.9615 23.2053C54.4094 23.5271 54.676 24.0257 54.6926 24.573C54.7371 26.0267 55.6601 27.2834 57.0442 27.7744C57.5654 27.9592 57.9623 28.364 58.1335 28.8848C58.3046 29.4055 58.224 29.9639 57.9122 30.4164C57.0841 31.6185 57.0841 33.1718 57.9122 34.3738Z" fill="#2C87BF"/>
<path d="M47.2112 25.0293C43.1049 25.0293 39.7643 28.3335 39.7643 32.395C39.7643 36.4565 43.1049 39.7607 47.2112 39.7607C51.3174 39.7607 54.658 36.4565 54.658 32.395C54.658 28.3335 51.3174 25.0293 47.2112 25.0293ZM47.2112 38.0031C44.0848 38.0031 41.5412 35.4873 41.5412 32.3951C41.5412 29.3029 44.0848 26.787 47.2112 26.787C50.3377 26.787 52.8811 29.3028 52.8811 32.3951C52.8811 35.4875 50.3376 38.0031 47.2112 38.0031Z" fill="#2C87BF"/>
</svg>
