<svg width="34" height="34" viewBox="0 0 34 34" fill="none" xmlns="http://www.w3.org/2000/svg">
<path d="M10.625 4.25H23.3807C26.8982 4.25 29.75 7.10175 29.75 10.6193V23.3821C29.75 26.8982 26.8982 29.75 23.3807 29.75H10.6193C7.10175 29.75 4.25 26.8982 4.25 23.3807V10.625C4.25 7.10458 7.10458 4.25 10.625 4.25V4.25Z" stroke="#0088CC" stroke-width="1.5" stroke-linecap="round" stroke-linejoin="round"/>
<path d="M14.2998 21.9456L13.1495 18.1574C13.1481 18.156 9.85433 17.1289 9.85433 17.1289C9.4775 17.0113 9.45908 16.4829 9.82883 16.3413L22.3677 11.5048C22.831 11.3263 23.3084 11.7328 23.2064 12.2188L21.0998 22.1468C20.9766 22.729 20.2923 22.9883 19.8149 22.6341L16.8229 20.4241L15.0592 22.1411C14.8112 22.3791 14.4004 22.2728 14.2998 21.9456V21.9456Z" stroke="#0088CC" stroke-width="1.5" stroke-linecap="round" stroke-linejoin="round"/>
</svg>
