<svg width="34" height="35" viewBox="0 0 34 35" fill="none" xmlns="http://www.w3.org/2000/svg">
<path d="M10.375 4.00049H23.1307C26.6482 4.00049 29.5 6.85262 29.5 10.3707V23.1351C29.5 26.6518 26.6482 29.5039 23.1307 29.5039H10.3693C6.85175 29.5039 4 26.6518 4 23.1337V10.3763C4 6.85545 6.85458 4.00049 10.375 4.00049V4.00049Z" stroke="#222222" stroke-width="1.5" stroke-linecap="round" stroke-linejoin="round"/>
<path d="M23.5938 11.0015H10.4062C9.62928 11.0015 9 11.6206 9 12.3765V20.6265C9 21.3868 9.63391 22.0015 10.4062 22.0015H23.5938C24.3642 22.0015 25 21.3894 25 20.6265V12.3765C25 11.6219 24.3732 11.0015 23.5938 11.0015ZM23.3968 11.9181C23.1095 12.1976 18.1651 17.0066 17.9944 17.1727C17.7288 17.4324 17.3756 17.5754 17 17.5754C16.6244 17.5754 16.2712 17.4324 16.0047 17.1718C15.8899 17.0601 11.0001 12.3042 10.6032 11.9181H23.3968ZM9.9375 20.4399V12.5636L13.9887 16.5039L9.9375 20.4399ZM10.6038 21.0848L14.6534 17.1504L15.3427 17.8209C15.7854 18.2537 16.374 18.4921 17 18.4921C17.626 18.4921 18.2146 18.2537 18.6564 17.8217L19.3466 17.1504L23.3962 21.0848H10.6038ZM24.0625 20.4399L20.0113 16.5039L24.0625 12.5636V20.4399Z" fill="#222222"/>
</svg>
