<svg width="34" height="35" viewBox="0 0 34 35" fill="none" xmlns="http://www.w3.org/2000/svg">
<path d="M16.7451 7.01025C13.5016 7.01025 10.8627 9.64909 10.8627 12.8926C10.8627 13.9885 11.1663 15.058 11.7408 15.9858L16.4103 23.5106C16.4997 23.6548 16.6573 23.7423 16.8268 23.7423C16.8281 23.7423 16.8293 23.7423 16.8307 23.7423C17.0016 23.741 17.1595 23.6507 17.2473 23.504L21.7977 15.9064C22.3406 14.9981 22.6275 13.956 22.6275 12.8926C22.6275 9.64909 19.9886 7.01025 16.7451 7.01025ZM20.9564 15.403L16.8193 22.3105L12.5741 15.4693C12.0959 14.697 11.8366 13.806 11.8366 12.8926C11.8366 10.1897 14.0422 7.98411 16.7451 7.98411C19.448 7.98411 21.6503 10.1897 21.6503 12.8926C21.6503 13.7789 21.4081 14.6471 20.9564 15.403Z" fill="black"/>
<path d="M10.25 3.08936H22.7556C26.2042 3.08936 29 5.88519 29 9.3338V21.8463C29 25.2935 26.2042 28.0894 22.7556 28.0894H10.2444C6.79583 28.0894 4 25.2935 4 21.8449V9.33936C4 5.88797 6.79861 3.08936 10.25 3.08936V3.08936Z" stroke="#323232" stroke-width="1.5" stroke-linecap="round" stroke-linejoin="round"/>
<path d="M17 10.0894C15.3458 10.0894 14 11.4352 14 13.0894C14 14.733 15.3239 16.0894 17 16.0894C18.6968 16.0894 20 14.7149 20 13.0894C20 11.4352 18.6542 10.0894 17 10.0894ZM17 15.096C15.8914 15.096 14.9933 14.1949 14.9933 13.0894C14.9933 11.9866 15.8972 11.0827 17 11.0827C18.1028 11.0827 19.0033 11.9866 19.0033 13.0894C19.0033 14.1788 18.1261 15.096 17 15.096Z" fill="black"/>
</svg>
