<svg width="60" height="60" viewBox="0 0 60 60" fill="none" xmlns="http://www.w3.org/2000/svg">
<path d="M22.4727 9.38138C21.6627 6.52897 19.0363 4.43292 15.9278 4.43292C12.8193 4.43292 10.1931 6.52897 9.38301 9.38138H0V13.0927H9.38301C10.1929 15.9451 12.8193 18.0412 15.9278 18.0412C19.0363 18.0412 21.6626 15.9451 22.4727 13.0927H60V9.38138H22.4727ZM15.9278 14.3298C14.2225 14.3298 12.8351 12.9424 12.8351 11.2371C12.8351 9.53169 14.2225 8.14427 15.9278 8.14427C17.6332 8.14427 19.0206 9.53169 19.0206 11.2371C19.0206 12.9424 17.6332 14.3298 15.9278 14.3298Z" fill="white"/>
<path d="M30 23.1958C26.8915 23.1958 24.2652 25.2919 23.4552 28.1443H0V31.8556H23.4552C24.2651 34.708 26.8915 36.8041 30 36.8041C33.1085 36.8041 35.7348 34.708 36.5448 31.8556H60V28.1443H36.5448C35.7348 25.2919 33.1085 23.1958 30 23.1958ZM30 33.0927C28.2946 33.0927 26.9072 31.7053 26.9072 30C26.9072 28.2946 28.2946 26.9072 30 26.9072C31.7054 26.9072 33.0928 28.2946 33.0928 30C33.0928 31.7053 31.7054 33.0927 30 33.0927Z" fill="white"/>
<path d="M15.9278 41.9588C12.8193 41.9588 10.1931 44.0548 9.38301 46.9073H0V50.6186H9.38301C10.1929 53.471 12.8193 55.5671 15.9278 55.5671C19.0363 55.5671 21.6626 53.471 22.4727 50.6186H60V46.9073H22.4727C21.6626 44.0548 19.0363 41.9588 15.9278 41.9588ZM15.9278 51.8557C14.2225 51.8557 12.8351 50.4683 12.8351 48.7629C12.8351 47.0576 14.2225 45.6701 15.9278 45.6701C17.6332 45.6701 19.0206 47.0576 19.0206 48.7629C19.0206 50.4683 17.6332 51.8557 15.9278 51.8557Z" fill="white"/>
</svg>
