<svg width="34" height="34" viewBox="0 0 34 34" fill="none" xmlns="http://www.w3.org/2000/svg">
<path fill-rule="evenodd" clip-rule="evenodd" d="M10.6193 4.25H23.3821C26.8982 4.25 29.75 7.10033 29.75 10.6193V23.3821C29.75 26.8982 26.8997 29.75 23.3807 29.75H10.6193C7.10175 29.75 4.25 26.8997 4.25 23.3807V10.6193C4.25 7.10175 7.10033 4.25 10.6193 4.25V4.25Z" stroke="#9F9F9F" stroke-width="1.5" stroke-linecap="round" stroke-linejoin="round"/>
<path fill-rule="evenodd" clip-rule="evenodd" d="M10.6193 4.25H23.3821C26.8982 4.25 29.75 7.10033 29.75 10.6193V23.3821C29.75 26.8982 26.8997 29.75 23.3807 29.75H10.6193C7.10175 29.75 4.25 26.8997 4.25 23.3807V10.6193C4.25 7.10175 7.10033 4.25 10.6193 4.25V4.25Z" stroke="url(#paint0_linear)" stroke-width="1.5" stroke-linecap="round" stroke-linejoin="round"/>
<path d="M24.0111 9.51025C23.7476 9.51167 23.5337 9.72559 23.5337 9.98909C23.5337 10.2526 23.749 10.4665 24.0125 10.4665C24.276 10.4665 24.4899 10.2526 24.4899 9.98909C24.4913 9.72417 24.276 9.51025 24.0111 9.51025Z" stroke="#9F9F9F" stroke-width="1.5" stroke-linecap="round" stroke-linejoin="round"/>
<path d="M24.0111 9.51025C23.7476 9.51167 23.5337 9.72559 23.5337 9.98909C23.5337 10.2526 23.749 10.4665 24.0125 10.4665C24.276 10.4665 24.4899 10.2526 24.4899 9.98909C24.4913 9.72417 24.276 9.51025 24.0111 9.51025Z" stroke="url(#paint1_linear)" stroke-width="1.5" stroke-linecap="round" stroke-linejoin="round"/>
<path d="M20.6063 13.3937C22.5979 15.3853 22.5979 18.6145 20.6063 20.6062C18.6146 22.5978 15.3854 22.5978 13.3938 20.6062C11.4021 18.6145 11.4021 15.3853 13.3938 13.3937C15.3854 11.402 18.6146 11.402 20.6063 13.3937" stroke="#9F9F9F" stroke-width="1.5" stroke-linecap="round" stroke-linejoin="round"/>
<path d="M20.6063 13.3937C22.5979 15.3853 22.5979 18.6145 20.6063 20.6062C18.6146 22.5978 15.3854 22.5978 13.3938 20.6062C11.4021 18.6145 11.4021 15.3853 13.3938 13.3937C15.3854 11.402 18.6146 11.402 20.6063 13.3937" stroke="url(#paint2_linear)" stroke-width="1.5" stroke-linecap="round" stroke-linejoin="round"/>
<defs>
<linearGradient id="paint0_linear" x1="17" y1="4.25" x2="17" y2="29.75" gradientUnits="userSpaceOnUse">
<stop stop-color="#555CD5"/>
<stop offset="1" stop-color="#E53470"/>
</linearGradient>
<linearGradient id="paint1_linear" x1="24.0118" y1="9.51025" x2="24.0118" y2="10.4665" gradientUnits="userSpaceOnUse">
<stop stop-color="#555CD5"/>
<stop offset="1" stop-color="#E53470"/>
</linearGradient>
<linearGradient id="paint2_linear" x1="17" y1="11.8999" x2="17" y2="22.0999" gradientUnits="userSpaceOnUse">
<stop stop-color="#555CD5"/>
<stop offset="1" stop-color="#E53470"/>
</linearGradient>
</defs>
</svg>
