<svg width="60" height="60" viewBox="0 0 60 60" fill="none" xmlns="http://www.w3.org/2000/svg">
<g clip-path="url(#clip0)">
<path d="M8.36133 22.8132C8.67023 22.099 9.01242 21.408 9.38109 20.7436C9.84949 19.8932 10.3644 19.086 10.9191 18.3187C11.2015 17.9267 11.7529 17.8403 12.1448 18.1227C12.5368 18.4083 12.6232 18.9565 12.3409 19.3484C11.816 20.0726 11.3411 20.82 10.9125 21.5941C10.6901 21.9926 10.4807 22.4012 10.2847 22.8132H13.487C13.9753 22.8132 14.3673 23.2052 14.3673 23.6901V27.8523V31.3834C14.3673 32.1973 14.1913 32.9713 13.8757 33.6722C14.7993 34.0575 15.5866 34.5491 16.1878 35.1173C17.0515 35.9277 17.5465 36.9011 17.5465 37.9574V42.2459C17.5465 42.7309 17.1511 43.1262 16.6661 43.1262H11.2082C11.4971 43.6211 11.8061 44.1061 12.1316 44.5745C12.7396 45.4482 13.4038 46.2687 14.1213 47.0294C14.4536 47.3814 14.4369 47.9362 14.0815 48.2684C13.7293 48.6006 13.1747 48.5839 12.8425 48.2318C12.0619 47.398 11.3411 46.5111 10.69 45.5777C10.1452 44.7937 9.64687 43.9765 9.19828 43.1261H0.880313C0.395391 43.1261 0 42.7308 0 42.2458V37.9573C0 36.9077 0.48832 35.9443 1.33875 35.1338C1.94332 34.5591 2.74055 34.0608 3.67066 33.6721C3.35508 32.9712 3.17906 32.1972 3.17906 31.3833V27.8522V26.3309C3.17906 25.3609 3.57434 24.4806 4.21219 23.8429C4.84992 23.2084 5.73035 22.813 6.69703 22.813H8.36133V22.8132ZM55.0637 30.0582L50.4264 28.4869L47.3934 29.9751V31.3836C47.3934 32.4366 47.8254 33.3966 48.5195 34.0909C49.2138 34.7852 50.1738 35.217 51.2269 35.217C52.2833 35.217 53.2399 34.7852 53.9375 34.0909C54.6319 33.3967 55.0637 32.4366 55.0637 31.3836V30.0582ZM47.3934 28.0252L49.9314 26.7828C50.1405 26.6598 50.3998 26.6267 50.6488 26.7096L55.0637 28.2045V26.331C55.0637 25.846 54.8675 25.4076 54.5454 25.0886C54.2264 24.7664 53.788 24.5704 53.303 24.5704H49.1505C48.6689 24.5704 48.2304 24.7663 47.9081 25.0886C47.5893 25.4075 47.3932 25.846 47.3932 26.331V28.0252H47.3934ZM4.93629 26.9721H12.6098V24.5705H6.69691C6.21527 24.5705 5.77348 24.7664 5.45449 25.0887C5.13562 25.4076 4.93617 25.8461 4.93617 26.3311V26.9721H4.93629ZM12.6098 28.7294H4.93629V31.3836C4.93629 32.4366 5.36824 33.3966 6.06586 34.0909C6.7602 34.7852 7.72019 35.217 8.77324 35.217C9.82617 35.217 10.7863 34.7852 11.4805 34.0909C12.1781 33.3967 12.61 32.4366 12.61 31.3836V28.7294H12.6098ZM33.8367 46.1127C32.5811 46.2954 30.5347 46.2755 28.8374 44.7774C28.2428 45.1229 27.3026 45.5082 26.1633 45.4152V47.5445C26.1633 48.5976 26.5952 49.5576 27.2927 50.2552C27.9871 50.9494 28.947 51.3812 30 51.3812C31.0563 51.3812 32.0131 50.9494 32.7107 50.2552C33.4049 49.5576 33.8367 48.5976 33.8367 47.5445V46.1127ZM26.1633 43.6545C27.4423 43.8339 28.3425 42.9967 28.3425 42.9934L28.3458 42.9967L28.3657 42.9768C28.7311 42.6612 29.2825 42.7011 29.6014 43.0666C30.9766 44.6478 32.8834 44.5314 33.8368 44.3454V42.4919C33.8368 42.0102 33.6375 41.5684 33.3186 41.2495C32.9996 40.9306 32.5613 40.7312 32.0762 40.7312H27.9238C27.4423 40.7312 27.0004 40.9306 26.6814 41.2495C26.3625 41.5684 26.1632 42.0102 26.1632 42.4919V43.6545H26.1633ZM12.8856 35.1639C11.8259 36.3166 10.3411 36.9776 8.77312 36.9776C7.20516 36.9776 5.72027 36.3166 4.66055 35.1672C3.78691 35.4927 3.0627 35.9146 2.54789 36.4029C2.04633 36.8813 1.75723 37.4127 1.75723 37.9575V41.3691H15.789V37.9575C15.789 37.4095 15.4966 36.8746 14.9851 36.393C14.4702 35.9079 13.7525 35.4895 12.8856 35.1639ZM56.8209 31.3836C56.8209 32.1974 56.6449 32.9714 56.3293 33.6723C57.2596 34.0609 58.0534 34.5592 58.658 35.1306C59.5117 35.9412 60 36.9045 60 37.9575V42.246C60 42.7311 59.608 43.1263 59.1231 43.1263H50.7717C50.32 43.9468 49.8117 44.7507 49.257 45.5314C48.5959 46.4582 47.8718 47.3418 47.0911 48.1723C46.7589 48.5245 46.2041 48.5411 45.8521 48.2089C45.4999 47.8766 45.4833 47.322 45.8122 46.9698C46.5429 46.1959 47.2173 45.3721 47.8286 44.515C48.1507 44.0632 48.4563 43.6015 48.7453 43.1264H43.3339C42.8489 43.1264 42.4536 42.7312 42.4536 42.2461V37.9577C42.4536 36.9013 42.9485 35.9346 43.8088 35.1209C44.4101 34.5528 45.2007 34.0579 46.1276 33.6726C45.8086 32.9717 45.6326 32.1977 45.6326 31.3838V26.3312C45.6326 25.3613 46.0311 24.481 46.6656 23.8432C47.3033 23.2088 48.1836 22.8134 49.1503 22.8134H49.725C49.5356 22.4082 49.3297 22.0095 49.1105 21.6175C48.6752 20.8335 48.187 20.0695 47.6522 19.3387C47.3665 18.9467 47.4497 18.3986 47.8416 18.113C48.2302 17.8273 48.7782 17.9103 49.0673 18.3023C49.6386 19.0863 50.1669 19.9101 50.6419 20.7671C51.0105 21.4281 51.3462 22.1124 51.6485 22.8133H53.3027C54.2726 22.8133 55.1531 23.2087 55.7909 23.8431C56.4253 24.4809 56.8206 25.3612 56.8206 26.3311V31.3836H56.8209ZM55.3393 35.1672C54.2796 36.3166 52.798 36.9776 51.2268 36.9776C49.6588 36.9776 48.1773 36.3166 47.1143 35.1672C46.2473 35.4895 45.5264 35.9113 45.0116 36.3962C44.5032 36.8779 44.2143 37.4127 44.2143 37.9575V41.3691H58.2427V37.9575C58.2427 37.4127 57.9536 36.8813 57.4487 36.4029C56.9372 35.9146 56.2131 35.4927 55.3393 35.1672ZM35.5941 47.5444C35.5941 48.3583 35.418 49.1356 35.1025 49.8332C36.0326 50.2252 36.8265 50.7201 37.4311 51.2948C37.7599 51.6071 38.0357 51.9426 38.2484 52.298C38.9525 51.9991 39.6369 51.6636 40.3045 51.2915C41.228 50.7766 42.1184 50.1886 42.9686 49.5408C43.354 49.2452 43.9021 49.3183 44.1976 49.7036C44.49 50.0889 44.4169 50.6404 44.0316 50.9327C43.1214 51.627 42.1614 52.2614 41.1548 52.8228C40.3809 53.2546 39.5836 53.6433 38.7697 53.9788C38.773 54.0252 38.773 54.0752 38.773 54.1217V58.4102C38.773 58.8952 38.3809 59.2871 37.8961 59.2871H22.1072C21.6221 59.2871 21.2269 58.8951 21.2269 58.4102V54.1217C21.2269 54.0752 21.2302 54.0286 21.2302 53.9822C20.393 53.64 19.5792 53.2547 18.792 52.8262C17.7887 52.2814 16.832 51.6636 15.9218 50.9826C15.5332 50.6936 15.4568 50.1455 15.7458 49.7568C16.0349 49.3714 16.5863 49.2917 16.9716 49.5841C17.812 50.2118 18.6989 50.78 19.629 51.2882C20.3134 51.6636 21.021 51.9991 21.7485 52.3014C21.9611 51.9494 22.2335 51.6171 22.5589 51.3048C23.1635 50.7269 23.9607 50.2286 24.9009 49.8366C24.5818 49.1357 24.4058 48.3617 24.4058 47.5445V42.492C24.4058 41.5253 24.8011 40.6451 25.4389 40.0073C26.0768 39.3695 26.9571 38.9743 27.9237 38.9743H32.0761C33.0461 38.9743 33.9264 39.3695 34.5608 40.0073C35.1987 40.6451 35.5939 41.5253 35.5939 42.492V47.5444H35.5941ZM34.1125 51.328C33.0528 52.4807 31.568 53.1385 30 53.1385C28.4321 53.1385 26.9471 52.4807 25.8875 51.328C25.0106 51.6536 24.2863 52.0821 23.7681 52.5737C23.2698 53.0487 22.9842 53.5803 22.9842 54.1218V57.53H37.0158V54.1218C37.0158 53.577 36.7268 53.0421 36.2252 52.5672C35.7103 52.0788 34.9862 51.6535 34.1125 51.328ZM14.8455 16.4618C14.4967 16.7973 13.9419 16.7874 13.6065 16.4385C13.271 16.0898 13.281 15.535 13.6297 15.1995C14.3273 14.5285 15.0582 13.904 15.8256 13.3293C16.46 12.8543 17.1311 12.4059 17.832 11.9873C18.0579 8.98762 19.3666 6.29031 21.3731 4.28711C23.5787 2.07812 26.6317 0.712891 30 0.712891C33.3717 0.712891 36.4213 2.07812 38.6304 4.28711C40.62 6.27684 41.9256 8.95434 42.1648 11.9274C42.8523 12.3493 43.5168 12.8077 44.1545 13.2926C44.922 13.8773 45.6594 14.5117 46.357 15.1927C46.7059 15.5282 46.7125 16.083 46.377 16.4317C46.038 16.7772 45.4834 16.7839 45.1379 16.4484C44.4901 15.8205 43.8057 15.2325 43.0915 14.6877C42.786 14.4518 42.4738 14.2293 42.1614 14.0134C41.889 17.3519 40.3975 19.6207 38.9657 21.7933C37.6702 23.7631 36.4279 25.6499 36.4079 28.1846L36.4112 32.2471C36.4112 33.4164 35.9328 34.4761 35.1622 35.2468C34.3946 36.0141 33.3318 36.4925 32.1659 36.4925H27.8375C26.6681 36.4925 25.6052 36.0141 24.8377 35.2468C24.0703 34.476 23.5921 33.4164 23.5921 32.2471L23.5952 28.1846C23.572 25.65 22.333 23.7631 21.0375 21.7933C19.6091 19.6274 18.1242 17.3719 17.8452 14.0534C17.5164 14.2727 17.1941 14.5019 16.8785 14.7377C16.1544 15.276 15.4767 15.854 14.8455 16.4618ZM25.3493 30.9153H34.6506V29.1347H25.3493V30.9153ZM34.614 32.6725H25.386C25.4757 33.1873 25.7248 33.6491 26.0802 34.0046C26.532 34.4563 27.1532 34.7353 27.8375 34.7353H32.1659C32.8468 34.7353 33.4679 34.4563 33.9198 34.0046C34.2752 33.6491 34.5243 33.1873 34.614 32.6725ZM29.1529 19.621C29.01 19.0961 28.7609 18.3786 28.4786 17.558C27.6846 15.2627 26.6283 12.2065 26.6283 9.89781C26.6283 7.68215 27.4754 6.10094 29.9999 6.10094C32.5243 6.10094 33.3749 7.68215 33.3749 9.89781C33.3749 12.2065 32.3186 15.2627 31.5246 17.558C31.2389 18.3818 30.9899 19.1061 30.8436 19.6309C30.7174 20.0993 30.2357 20.3717 29.7707 20.2455C29.4553 20.159 29.2294 19.9132 29.1529 19.621ZM28.3856 9.89781C28.3856 11.8178 29.2725 14.4919 30 16.608C30.7308 14.4919 31.6178 11.8178 31.6178 9.89781C31.6178 8.70859 31.2093 7.85816 30 7.85816C28.7909 7.85828 28.3856 8.70871 28.3856 9.89781ZM29.1231 22.7235C29.1231 22.2385 29.5151 21.8466 30 21.8466C30.4849 21.8466 30.8803 22.2386 30.8803 22.7235V23.637C30.8803 24.122 30.485 24.514 30 24.514C29.515 24.514 29.1231 24.122 29.1231 23.637V22.7235ZM25.3062 27.3775H34.6937C34.9263 24.7499 36.1887 22.8299 37.5041 20.8334C38.9423 18.6476 40.4471 16.3588 40.4471 12.9175C40.4471 10.0308 39.278 7.41977 37.3879 5.52965C35.4977 3.63953 32.8867 2.47023 30 2.47023C27.1166 2.47023 24.5055 3.63953 22.6154 5.52965C20.7252 7.41977 19.556 10.0308 19.556 12.9175C19.556 16.3589 21.0608 18.6476 22.4992 20.8334C23.8112 22.8299 25.077 24.7498 25.3062 27.3775Z" fill="#2C87BF"/>
</g>
<defs>
<clipPath id="clip0">
<rect width="60" height="60" fill="white"/>
</clipPath>
</defs>
</svg>
