<svg width="60" height="60" viewBox="0 0 60 60" fill="none" xmlns="http://www.w3.org/2000/svg">
<path d="M15 7.5H16.875V5.625H18.75V3.75H16.875V1.875H15V3.75H13.125V5.625H15V7.5Z" fill="#2C87BF"/>
<path d="M3.75 10.3125H5.625V8.4375H7.5V6.5625H5.625V4.6875H3.75V6.5625H1.875V8.4375H3.75V10.3125Z" fill="#2C87BF"/>
<path d="M43.125 7.5H45V5.625H46.875V3.75H45V1.875H43.125V3.75H41.25V5.625H43.125V7.5Z" fill="#2C87BF"/>
<path d="M56.25 6.5625V4.6875H54.375V6.5625H52.5V8.4375H54.375V10.3125H56.25V8.4375H58.125V6.5625H56.25Z" fill="#2C87BF"/>
<path d="M58.0687 25.9406L52.8844 11.25C52.6904 10.7014 52.3311 10.2265 51.8559 9.89068C51.3807 9.55486 50.8131 9.37469 50.2312 9.375H49.3781C48.9413 9.37383 48.5102 9.47497 48.1195 9.67033C47.7288 9.86569 47.3893 10.1498 47.1281 10.5C46.8663 10.8512 46.6895 11.2583 46.6114 11.6893C46.5333 12.1204 46.5561 12.5636 46.6781 12.9844L50.625 26.3812V33.5063L47.8125 38.5687V30.9375C47.8103 30.1923 47.5132 29.4782 46.9863 28.9512C46.4593 28.4243 45.7452 28.1272 45 28.125H44.5312C43.9589 28.1286 43.4012 28.3063 42.9323 28.6345C42.4634 28.9628 42.1055 29.4259 41.9062 29.9625C41.4998 29.3921 41.0063 28.8891 40.4437 28.4719C42.1812 25.5253 43.1064 22.1707 43.125 18.75C43.125 9.44062 37.2375 1.875 30 1.875C22.7625 1.875 16.875 9.44062 16.875 18.75C16.8933 22.1661 17.822 25.5155 19.5656 28.4531C19.0001 28.8701 18.5035 29.373 18.0937 29.9438C17.8907 29.4112 17.5313 28.9526 17.0628 28.628C16.5944 28.3034 16.0387 28.1281 15.4687 28.125H15C14.2548 28.1272 13.5407 28.4243 13.0137 28.9512C12.4868 29.4782 12.1897 30.1923 12.1875 30.9375V38.5687L9.375 33.5063V26.3812L13.3219 12.9844C13.4438 12.5636 13.4667 12.1204 13.3886 11.6893C13.3105 11.2583 13.1337 10.8512 12.8719 10.5C12.6107 10.1498 12.2712 9.86569 11.8805 9.67033C11.4897 9.47497 11.0587 9.37383 10.6219 9.375H9.76875C9.18689 9.37469 8.61926 9.55486 8.14408 9.89068C7.66891 10.2265 7.30958 10.7014 7.11563 11.25L1.93126 25.9406C1.89369 26.0394 1.87462 26.1443 1.87501 26.25V40.3125C1.87683 40.4142 1.8926 40.5151 1.92188 40.6125L5.25938 50.625H3.75C3.50136 50.625 3.26291 50.7238 3.08709 50.8996C2.91128 51.0754 2.81251 51.3139 2.81251 51.5625V57.1875C2.81251 57.4361 2.91128 57.6746 3.08709 57.8504C3.26291 58.0262 3.50136 58.125 3.75 58.125H24.375C24.6236 58.125 24.8621 58.0262 25.0379 57.8504C25.2137 57.6746 25.3125 57.4361 25.3125 57.1875V51.5625C25.3125 51.3139 25.2137 51.0754 25.0379 50.8996C24.8621 50.7238 24.6236 50.625 24.375 50.625H22.5V45C22.502 44.911 22.4893 44.8223 22.4625 44.7375L21.4406 41.25H38.5594L37.5375 44.7375C37.5106 44.8223 37.498 44.911 37.5 45V50.625H35.625C35.3764 50.625 35.1379 50.7238 34.9621 50.8996C34.7863 51.0754 34.6875 51.3139 34.6875 51.5625V57.1875C34.6875 57.4361 34.7863 57.6746 34.9621 57.8504C35.1379 58.0262 35.3764 58.125 35.625 58.125H56.25C56.4986 58.125 56.7371 58.0262 56.9129 57.8504C57.0887 57.6746 57.1875 57.4361 57.1875 57.1875V51.5625C57.1875 51.3139 57.0887 51.0754 56.9129 50.8996C56.7371 50.7238 56.4986 50.625 56.25 50.625H54.7406L58.0781 40.6125C58.1074 40.5151 58.1232 40.4142 58.125 40.3125V26.25C58.1254 26.1443 58.1063 26.0394 58.0687 25.9406ZM18.75 18.75C18.75 10.4813 23.7937 3.75 30 3.75C36.2062 3.75 41.25 10.4813 41.25 18.75C41.2334 22.1266 40.2368 25.4258 38.3812 28.2469C38.4192 27.895 38.438 27.5414 38.4375 27.1875C38.5197 24.1814 37.7911 21.2086 36.3281 18.5812C36.4827 18.0256 36.5615 17.4517 36.5625 16.875V11.25C36.5623 11.0406 36.4921 10.8373 36.363 10.6725C36.2338 10.5077 36.0532 10.3909 35.85 10.3406L28.35 8.46562C28.1325 8.41063 27.9023 8.43731 27.7031 8.54062L23.9531 10.4156C23.7969 10.4915 23.6655 10.6102 23.5742 10.758C23.4829 10.9057 23.4355 11.0763 23.4375 11.25V16.875C23.4385 17.4517 23.5173 18.0256 23.6719 18.5812C22.2089 21.2086 21.4803 24.1814 21.5625 27.1875C21.562 27.5351 21.5808 27.8826 21.6187 28.2281C19.767 25.4122 18.7706 22.1202 18.75 18.75ZM26.25 22.2563V24.8438L23.4469 26.9438C23.4347 24.7992 23.849 22.6736 24.6656 20.6906C25.1065 21.294 25.6414 21.8226 26.25 22.2563ZM25.3125 16.875V11.8313L28.2375 10.3688L34.6875 11.9812V16.875C34.6875 18.1182 34.1936 19.3105 33.3146 20.1896C32.4355 21.0686 31.2432 21.5625 30 21.5625C28.7568 21.5625 27.5645 21.0686 26.6854 20.1896C25.8064 19.3105 25.3125 18.1182 25.3125 16.875ZM27.75 26.0625C27.8657 25.9745 27.9596 25.8611 28.0247 25.7311C28.0897 25.6011 28.124 25.4579 28.125 25.3125V23.1656C29.3487 23.5281 30.6513 23.5281 31.875 23.1656V25.3125C31.876 25.4579 31.9103 25.6011 31.9753 25.7311C32.0403 25.8611 32.1343 25.9745 32.25 26.0625L34.8562 28.0219L30 30.7969L25.1437 28.0219L27.75 26.0625ZM33.75 24.8438V22.2563C34.3586 21.8226 34.8935 21.294 35.3344 20.6906C36.151 22.6736 36.5653 24.7992 36.5531 26.9438L33.75 24.8438ZM3.75 40.1625V26.4094L8.87813 11.8781C8.94261 11.6937 9.06311 11.534 9.22279 11.4214C9.38247 11.3087 9.57335 11.2488 9.76875 11.25H10.6219C10.7674 11.25 10.911 11.2839 11.0411 11.349C11.1713 11.4141 11.2846 11.5086 11.3719 11.625C11.4592 11.7414 11.5182 11.8766 11.5443 12.0198C11.5703 12.163 11.5626 12.3103 11.5219 12.45L7.5375 25.9875C7.51065 26.0723 7.49798 26.161 7.5 26.25V33.75C7.49813 33.9114 7.54026 34.0702 7.62188 34.2094L12.3094 42.6469C12.4113 42.8268 12.5699 42.9679 12.7604 43.0483C12.9509 43.1288 13.1626 43.1439 13.3626 43.0915C13.5627 43.0391 13.7397 42.922 13.8663 42.7585C13.9929 42.595 14.0619 42.3943 14.0625 42.1875V30.9375C14.0625 30.6889 14.1613 30.4504 14.3371 30.2746C14.5129 30.0988 14.7514 30 15 30H15.4687C15.6716 30 15.869 30.0658 16.0312 30.1875C16.1935 30.3092 16.3119 30.4803 16.3687 30.675L20.625 45.1312V50.625H7.2375L3.75 40.1625ZM23.4375 52.5V56.25H4.6875V52.5H23.4375ZM20.8875 39.375L18.9 32.6156C19.1546 31.5875 19.7493 30.6756 20.5875 30.0281C21.2383 30.9439 21.9795 31.7919 22.8 32.5594C22.9532 32.6944 23.1473 32.7743 23.3512 32.7862C23.5551 32.7981 23.7571 32.7413 23.925 32.625C24.0991 32.5038 24.2301 32.3304 24.2992 32.1299C24.3683 31.9294 24.3719 31.7121 24.3094 31.5094C24.0937 30.8063 23.8687 30.0938 23.7094 29.3531L29.5312 32.6906C29.6746 32.7705 29.8359 32.8124 30 32.8124C30.1641 32.8124 30.3254 32.7705 30.4687 32.6906L36.3 29.3531C36.1312 30.1406 35.9062 30.8906 35.6812 31.6031C35.6213 31.8008 35.6283 32.0127 35.7012 32.206C35.7741 32.3992 35.9088 32.563 36.0844 32.6719C36.2338 32.7637 36.4058 32.8124 36.5812 32.8125C36.8185 32.8139 37.047 32.7231 37.2187 32.5594C38.0332 31.7984 38.7683 30.9565 39.4125 30.0469C40.2499 30.6871 40.845 31.5928 41.1 32.6156L39.1125 39.375H20.8875ZM55.3125 52.5V56.25H36.5625V52.5H55.3125ZM56.25 40.1625L52.7625 50.625H39.375V45.1312L43.6312 30.675C43.688 30.4803 43.8065 30.3092 43.9687 30.1875C44.131 30.0658 44.3284 30 44.5312 30H45C45.2486 30 45.4871 30.0988 45.6629 30.2746C45.8387 30.4504 45.9375 30.6889 45.9375 30.9375V42.1875C45.9381 42.3943 46.0071 42.595 46.1337 42.7585C46.2602 42.922 46.4373 43.0391 46.6373 43.0915C46.8374 43.1439 47.0491 43.1288 47.2396 43.0483C47.4301 42.9679 47.5887 42.8268 47.6906 42.6469L52.3781 34.2094C52.4597 34.0702 52.5019 33.9114 52.5 33.75V26.25C52.502 26.161 52.4893 26.0723 52.4625 25.9875L48.4781 12.45C48.4374 12.3103 48.4297 12.163 48.4557 12.0198C48.4818 11.8766 48.5408 11.7414 48.6281 11.625C48.7154 11.5086 48.8287 11.4141 48.9588 11.349C49.089 11.2839 49.2326 11.25 49.3781 11.25H50.2312C50.4266 11.2488 50.6175 11.3087 50.7772 11.4214C50.9369 11.534 51.0574 11.6937 51.1219 11.8781L56.25 26.4094V40.1625Z" fill="#2C87BF"/>
<path d="M27.1875 13.125H29.0625V15H27.1875V13.125Z" fill="#2C87BF"/>
<path d="M30.9375 13.125H32.8125V15H30.9375V13.125Z" fill="#2C87BF"/>
</svg>
