<svg width="66" height="66" viewBox="0 0 66 66" fill="none" xmlns="http://www.w3.org/2000/svg">
<path d="M38.901 27.8995C38.901 28.4047 38.7079 28.905 38.3266 29.2914L29.3035 38.3165C22.6129 45.0085 11.7228 45.0085 5.03227 38.3165C1.78851 35.072 0.00569153 30.7625 0.00569153 26.1757C0.00569153 21.5888 1.79347 17.2794 5.03227 14.0349C8.27602 10.7904 12.5845 9.00717 17.1703 9.00717C21.7562 9.00717 26.0647 10.7954 29.3084 14.0349C30.076 14.8027 30.076 16.0509 29.3084 16.8187C28.5408 17.5865 27.2928 17.5865 26.5252 16.8187C24.0293 14.3222 20.7063 12.9451 17.1703 12.9451C13.6394 12.9451 10.3164 14.3222 7.81546 16.8187C5.3195 19.3152 3.94277 22.6389 3.94277 26.1757C3.94277 29.7075 5.3195 33.0312 7.81546 35.5327C12.9708 40.6892 21.3649 40.6892 26.5203 35.5327L35.5434 26.5076C36.311 25.7398 37.5589 25.7398 38.3266 26.5076C38.7079 26.889 38.901 27.3942 38.901 27.8995Z" fill="#53DBFF"/>
<path d="M24.9893 20.3148C24.9893 20.8201 24.7961 21.3204 24.4148 21.7068C23.6472 22.4745 22.3992 22.4745 21.6316 21.7068C19.1703 19.2449 15.159 19.2449 12.6977 21.7068C11.5042 22.9005 10.8455 24.4856 10.8455 26.1747C10.8455 27.8638 11.5042 29.4489 12.6977 30.6427C13.8912 31.8365 15.4759 32.4953 17.1647 32.4953C18.8534 32.4953 20.4381 31.8365 21.6316 30.6427C22.3992 29.8749 23.6472 29.8749 24.4148 30.6427C25.1824 31.4105 25.1824 32.6587 24.4148 33.4265C22.4785 35.3633 19.9033 36.4283 17.1647 36.4283C14.426 36.4283 11.8508 35.3633 9.91449 33.4265C7.97815 31.4897 6.91341 28.914 6.91341 26.1747C6.91341 23.4355 7.97815 20.8597 9.91449 18.9229C13.911 14.9255 20.4183 14.9255 24.4148 18.9229C24.7961 19.3093 24.9893 19.8146 24.9893 20.3148Z" fill="#25A9FA"/>
<path d="M65.5535 26.1747C65.5535 30.7616 63.7657 35.071 60.5269 38.3155C53.8364 45.0076 42.9463 45.0076 36.2557 38.3155C35.4881 37.5477 35.4881 36.2995 36.2557 35.5317C37.0233 34.7639 38.2713 34.7639 39.0389 35.5317C44.1942 40.6882 52.5884 40.6882 57.7437 35.5317C60.2397 33.0352 61.6164 29.7114 61.6164 26.1747C61.6164 22.6429 60.2397 19.3192 57.7437 16.8177C55.2478 14.3212 51.9248 12.9442 48.3888 12.9442C44.8578 12.9442 41.5349 14.3212 39.0339 16.8177L30.0109 25.8428C29.2432 26.6106 27.9953 26.6106 27.2277 25.8428C26.4601 25.0751 26.4601 23.8268 27.2277 23.059L36.2508 14.0339C42.9413 7.34186 53.8314 7.34186 60.5269 14.0339C63.7707 17.2784 65.5535 21.5928 65.5535 26.1747Z" fill="#25A9FA"/>
<path d="M58.6451 26.1747C58.6451 28.914 57.5803 31.4897 55.644 33.4265C53.7076 35.3633 51.1324 36.4283 48.3938 36.4283C45.6552 36.4283 43.08 35.3633 41.1437 33.4265C40.376 32.6587 40.376 31.4105 41.1437 30.6427C41.9113 29.8749 43.1592 29.8749 43.9268 30.6427C45.1203 31.8365 46.7051 32.4953 48.3938 32.4953C50.0826 32.4953 51.6673 31.8365 52.8608 30.6427C54.0543 29.4489 54.7129 27.8638 54.7129 26.1747C54.7129 24.4856 54.0543 22.9005 52.8608 21.7068C50.3995 19.2449 46.3881 19.2449 43.9268 21.7068C43.1592 22.4745 41.9113 22.4745 41.1437 21.7068C40.376 20.939 40.376 19.6907 41.1437 18.9229C45.1402 14.9255 51.6475 14.9255 55.644 18.9229C57.5803 20.8597 58.6451 23.4355 58.6451 26.1747Z" fill="#28AAD6"/>
<g opacity="0.2">
<path opacity="0.2" d="M38.3258 29.3005C38.6923 28.934 38.8805 28.4584 38.9003 27.973C37.37 28.186 35.9437 28.8944 34.8394 29.999L28.0449 36.795C22.1219 42.7193 12.4699 42.8927 6.50237 37.013C0.485327 31.0838 0.460567 21.3998 6.41818 15.4359C11.8211 10.0317 20.2846 9.54632 26.2373 13.9895C27.3069 14.787 28.5599 15.2873 29.8772 15.4062C29.8673 14.9158 29.6791 14.4254 29.3027 14.049C26.059 10.8045 21.7505 9.02127 17.1647 9.02127C12.5788 9.02127 8.27034 10.8094 5.02658 14.049C1.78283 17.2935 0 21.6029 0 26.1898C0 30.7767 1.78778 35.0861 5.02658 38.3306C11.7171 45.0227 22.6072 45.0227 29.2978 38.3306L38.3258 29.3005Z" fill="url(#paint0_linear)"/>
<path opacity="0.2" d="M6.41819 15.4109C0.45563 21.3748 0.485343 31.0588 6.50238 36.988C12.4699 42.8677 22.1219 42.6993 28.0449 36.77L34.8394 29.974C35.9438 28.8694 37.37 28.166 38.9003 27.948C38.9003 27.9233 38.9052 27.9034 38.9052 27.8787C38.9052 27.3734 38.7121 26.8731 38.3308 26.4868C37.5632 25.719 36.3152 25.719 35.5476 26.4868L26.5245 35.5119C21.3692 40.6684 12.975 40.6684 7.81969 35.5119C5.32374 33.0154 3.94699 29.6916 3.94699 26.1549C3.94699 22.6231 5.32374 19.2994 7.81969 16.7979C10.3156 14.3014 13.6386 12.9243 17.1746 12.9243C20.7056 12.9243 24.0285 14.3014 26.5295 16.7979C27.2971 17.5657 28.545 17.5657 29.3127 16.7979C29.7039 16.4066 29.897 15.8865 29.8871 15.3713C28.5698 15.2524 27.3169 14.7472 26.2472 13.9546C20.2846 9.52133 11.8211 10.0018 6.41819 15.4109Z" fill="url(#paint1_linear)"/>
</g>
<g opacity="0.2">
<path opacity="0.2" d="M10.9 20.726C8.2109 23.8169 8.2109 28.4979 10.9 31.5888C13.6931 34.7937 18.3037 35.3039 21.6712 33.1095C22.6617 32.4656 23.8106 32.1089 24.9843 32.0346C24.9893 31.5244 24.7961 31.0192 24.4099 30.6279C23.6422 29.8601 22.3943 29.8601 21.6267 30.6279C20.4332 31.8216 18.8484 32.4804 17.1597 32.4804C15.471 32.4804 13.8862 31.8216 12.6927 30.6279C11.4992 29.4341 10.8406 27.849 10.8406 26.1599C10.8406 24.4708 11.4992 22.8857 12.6927 21.6919C15.154 19.2301 19.1654 19.2301 21.6267 21.6919C22.3943 22.4597 23.6422 22.4597 24.4099 21.6919C24.7961 21.3055 24.9843 20.8052 24.9843 20.3C24.9843 20.295 24.9843 20.2851 24.9843 20.2802C23.8057 20.2059 22.6617 19.8493 21.6712 19.2053C18.3086 17.011 13.6931 17.5211 10.9 20.726Z" fill="url(#paint2_linear)"/>
<path opacity="0.2" d="M9.90955 18.9081C7.9732 20.8449 6.90846 23.4206 6.90846 26.1599C6.90846 28.8991 7.9732 31.4749 9.90955 33.4117C11.8459 35.3485 14.4211 36.4184 17.1597 36.4184C19.8983 36.4184 22.4735 35.3534 24.4099 33.4117C24.7912 33.0303 24.9843 32.53 24.9843 32.0297C23.8057 32.104 22.6617 32.4606 21.6712 33.1046C18.3037 35.294 13.6931 34.7887 10.9 31.5839C8.21091 28.4929 8.21091 23.812 10.9 20.721C13.6931 17.5162 18.3037 17.006 21.6712 19.2003C22.6617 19.8443 23.8106 20.2009 24.9843 20.2752C24.9794 19.7799 24.7862 19.2845 24.4099 18.9031C20.4134 14.9107 13.911 14.9107 9.90955 18.9081Z" fill="url(#paint3_linear)"/>
</g>
<g opacity="0.2">
<path opacity="0.2" d="M59.1354 36.9038C65.0979 30.9399 65.0682 21.256 59.0512 15.3268C53.0836 9.44707 43.4316 9.61549 37.5087 15.5447L30.7141 22.3408C29.6098 23.4454 28.1835 24.1488 26.6533 24.3667C26.6334 24.8968 26.8216 25.4317 27.2277 25.8329C27.9953 26.6007 29.2433 26.6007 30.0109 25.8329L39.034 16.8078C41.5299 14.3113 44.8529 12.9343 48.3889 12.9343C51.9199 12.9343 55.2428 14.3113 57.7437 16.8078C60.2397 19.3044 61.6164 22.6281 61.6164 26.1648C61.6164 29.6966 60.2397 33.0204 57.7437 35.5218C52.5884 40.6783 44.1943 40.6783 39.0389 35.5218C38.2713 34.754 37.0234 34.754 36.2558 35.5218C35.8645 35.9131 35.6763 36.4283 35.6813 36.9385C36.9986 37.0574 38.2515 37.5626 39.3212 38.3552C45.2689 42.7934 53.7324 42.308 59.1354 36.9038Z" fill="url(#paint4_linear)"/>
<path opacity="0.2" d="M27.2333 23.0491C26.8669 23.4157 26.6787 23.8863 26.6589 24.3667C28.1891 24.1537 29.6154 23.4454 30.7198 22.3408L37.5143 15.5447C43.4373 9.62044 53.0893 9.44707 59.0568 15.3268C65.0738 21.256 65.0986 30.9399 59.141 36.9038C53.738 42.308 45.2746 42.7934 39.3219 38.3502C38.2522 37.5527 36.9993 37.0524 35.682 36.9335C35.6869 37.4289 35.88 37.9242 36.2564 38.3007C42.947 44.9928 53.8371 44.9928 60.5276 38.3007C63.7714 35.0562 65.5542 30.7467 65.5542 26.1599C65.5542 21.573 63.7664 17.2635 60.5276 14.0191C53.8371 7.327 42.947 7.327 36.2515 14.0191L27.2333 23.0491Z" fill="url(#paint5_linear)"/>
</g>
<g opacity="0.2">
<path opacity="0.2" d="M54.708 26.1599C54.708 27.849 54.0493 29.4341 52.8558 30.6279C51.6623 31.8216 50.0776 32.4804 48.3889 32.4804C46.7001 32.4804 45.1154 31.8216 43.9219 30.6279C43.1543 29.8601 41.9063 29.8601 41.1387 30.6279C40.7524 31.0142 40.5593 31.5244 40.5643 32.0346C41.7429 32.1089 42.8869 32.4656 43.8773 33.1095C47.2449 35.2989 51.8555 34.7937 54.6486 31.5888C57.3377 28.4979 57.3377 23.8169 54.6486 20.726C51.8555 17.5211 47.2449 17.011 43.8773 19.2053C42.8869 19.8493 41.738 20.2059 40.5643 20.2802C40.5593 20.7904 40.7524 21.3006 41.1387 21.6919C41.9063 22.4597 43.1543 22.4597 43.9219 21.6919C46.3832 19.2301 50.3946 19.2301 52.8558 21.6919C54.0543 22.8857 54.708 24.4708 54.708 26.1599Z" fill="white"/>
<path opacity="0.2" d="M54.6545 20.726C57.3436 23.8169 57.3436 28.4979 54.6545 31.5888C51.8614 34.7937 47.2509 35.3039 43.8833 33.1095C42.8928 32.4656 41.7439 32.1089 40.5702 32.0346C40.5752 32.5349 40.7633 33.0352 41.1447 33.4166C43.081 35.3534 45.6562 36.4233 48.3948 36.4233C51.1335 36.4233 53.7086 35.3584 55.645 33.4166C57.5813 31.4799 58.6461 28.9041 58.6461 26.1648C58.6461 23.4256 57.5813 20.8498 55.645 18.913C51.6485 14.9156 45.1412 14.9156 41.1447 18.913C40.7633 19.2944 40.5752 19.7898 40.5702 20.2851C41.7489 20.2108 42.8928 19.8542 43.8833 19.2102C47.2509 17.0109 51.8614 17.5211 54.6545 20.726Z" fill="white"/>
</g>
<path d="M9.41957 52.0986H7.94073V55.4638H6.66565V46.9851H10.0308C10.3814 46.9851 10.7122 47.053 11.0233 47.1889C11.3388 47.3203 11.6104 47.5022 11.8383 47.7344C12.0661 47.9622 12.248 48.2339 12.3838 48.5494C12.5196 48.8605 12.5876 49.1913 12.5876 49.5419C12.5876 50.037 12.489 50.4401 12.2918 50.7512C12.0946 51.0579 11.8777 51.3011 11.6411 51.4808C11.3651 51.6955 11.0518 51.8576 10.7012 51.9671L12.7847 55.4638H11.3716L9.41957 52.0986ZM7.94073 50.8892H10.0308C10.2017 50.8892 10.3616 50.8542 10.5106 50.7841C10.664 50.7096 10.7976 50.6132 10.9115 50.4949C11.0299 50.3722 11.1241 50.2298 11.1942 50.0677C11.2687 49.9055 11.3059 49.7303 11.3059 49.5419C11.3059 49.3534 11.2687 49.1782 11.1942 49.016C11.1241 48.8539 11.0299 48.7137 10.9115 48.5954C10.7976 48.4727 10.664 48.3763 10.5106 48.3062C10.3616 48.2317 10.2017 48.1945 10.0308 48.1945H7.94073V50.8892Z" fill="black"/>
<path d="M15.2035 55.4638H13.9941V49.4038H15.2035V55.4638ZM14.5988 48.4639C14.3928 48.4639 14.2176 48.3938 14.073 48.2536C13.9284 48.109 13.8561 47.9316 13.8561 47.7212C13.8561 47.5153 13.9284 47.3422 14.073 47.202C14.2176 47.0574 14.3928 46.9851 14.5988 46.9851C14.8047 46.9851 14.98 47.0574 15.1246 47.202C15.2692 47.3422 15.3415 47.5153 15.3415 47.7212C15.3415 47.9272 15.2692 48.1025 15.1246 48.2471C14.98 48.3916 14.8047 48.4639 14.5988 48.4639Z" fill="black"/>
<path d="M19.3113 50.5475H16.4128V49.4038H20.7902V50.4817L17.8982 54.3201H20.9282V55.4638H16.4128V54.3859L19.3113 50.5475Z" fill="black"/>
<path d="M24.6877 49.3381C24.9944 49.3381 25.2573 49.3753 25.4764 49.4498C25.6955 49.5199 25.8774 49.5944 26.022 49.6733C26.1841 49.7741 26.3221 49.888 26.436 50.0151L26.7055 49.4038H27.5797V57.6196H26.3703V54.8591C26.252 54.9862 26.114 55.0979 25.9562 55.1943C25.8116 55.2819 25.6364 55.3608 25.4304 55.4309C25.2245 55.4966 24.9769 55.5295 24.6877 55.5295C24.2846 55.5295 23.9078 55.455 23.5572 55.306C23.2067 55.1527 22.8978 54.9401 22.6305 54.6685C22.3676 54.3924 22.1616 54.066 22.0127 53.6892C21.8681 53.3123 21.7958 52.8939 21.7958 52.4338C21.7958 51.9781 21.8681 51.5618 22.0127 51.185C22.1616 50.8082 22.3676 50.4839 22.6305 50.2123C22.8978 49.9362 23.2067 49.7215 23.5572 49.5681C23.9078 49.4148 24.2846 49.3381 24.6877 49.3381ZM24.7534 54.3859C24.9857 54.3859 25.2069 54.3399 25.4173 54.2478C25.632 54.1514 25.8182 54.0156 25.9759 53.8403C26.1381 53.6651 26.2651 53.4591 26.3572 53.2225C26.4536 52.9859 26.5018 52.723 26.5018 52.4338C26.5018 52.1446 26.4536 51.8817 26.3572 51.6451C26.2651 51.4085 26.1381 51.2025 25.9759 51.0273C25.8182 50.852 25.632 50.7183 25.4173 50.6263C25.2069 50.5299 24.9857 50.4817 24.7534 50.4817C24.5212 50.4817 24.2999 50.5299 24.0896 50.6263C23.8793 50.7183 23.6931 50.852 23.5309 51.0273C23.3688 51.2025 23.2396 51.4107 23.1432 51.6517C23.0511 51.8883 23.0051 52.149 23.0051 52.4338C23.0051 52.723 23.0511 52.9859 23.1432 53.2225C23.2396 53.4591 23.3688 53.6651 23.5309 53.8403C23.6931 54.0156 23.8793 54.1514 24.0896 54.2478C24.2999 54.3399 24.5212 54.3859 24.7534 54.3859Z" fill="black"/>
<path d="M28.9336 49.2724C28.9336 48.9657 28.9993 48.6721 29.1308 48.3916C29.2666 48.1068 29.4594 47.8549 29.7092 47.6358C29.9633 47.4167 30.2635 47.2436 30.6096 47.1166C30.9558 46.9851 31.3392 46.9194 31.7598 46.9194C32.1629 46.9194 32.5332 46.9873 32.8706 47.1231C33.208 47.2546 33.4994 47.4408 33.7448 47.6818C33.9901 47.9184 34.1807 48.1967 34.3166 48.5165C34.4524 48.832 34.5203 49.1738 34.5203 49.5419H33.2387C33.2387 49.1037 33.1006 48.7488 32.8246 48.4771C32.5529 48.201 32.198 48.063 31.7598 48.063C31.5276 48.063 31.3151 48.0959 31.1223 48.1616C30.9295 48.2273 30.7652 48.3194 30.6293 48.4377C30.4935 48.556 30.3883 48.6874 30.3139 48.832C30.2437 48.9722 30.2087 49.119 30.2087 49.2724C30.2087 49.5703 30.3204 49.8004 30.5439 49.9625C30.7717 50.1202 31.05 50.2583 31.3786 50.3766C31.7116 50.4905 32.0731 50.6044 32.4631 50.7183C32.8575 50.8323 33.2189 50.9856 33.5476 51.1784C33.8806 51.3712 34.1588 51.6254 34.3823 51.9409C34.6101 52.252 34.7241 52.6638 34.7241 53.1765C34.7241 53.4832 34.654 53.7768 34.5137 54.0572C34.3735 54.3377 34.1742 54.5896 33.9156 54.8131C33.6615 55.0322 33.3526 55.2074 32.9889 55.3389C32.6252 55.466 32.2155 55.5295 31.7598 55.5295C31.3041 55.5295 30.8988 55.466 30.5439 55.3389C30.189 55.2074 29.8844 55.0278 29.6303 54.7999C29.3805 54.5677 29.1899 54.2917 29.0585 53.9718C28.9314 53.6475 28.8679 53.2926 28.8679 52.907H30.143C30.143 53.3846 30.2766 53.7505 30.5439 54.0046C30.8156 54.2588 31.2209 54.3859 31.7598 54.3859C32.3338 54.3859 32.7567 54.2697 33.0283 54.0375C33.3044 53.8053 33.4424 53.5183 33.4424 53.1765C33.4424 52.861 33.3307 52.6134 33.1072 52.4338C32.8837 52.2541 32.6055 52.1052 32.2725 51.9869C31.9395 51.8642 31.578 51.7459 31.188 51.6319C30.798 51.5136 30.4365 51.3625 30.1035 51.1784C29.7705 50.9944 29.4923 50.7556 29.2688 50.462C29.0453 50.1641 28.9336 49.7675 28.9336 49.2724Z" fill="black"/>
<path d="M37.6817 53.446C37.6817 53.7133 37.7716 53.9367 37.9512 54.1164C38.1309 54.296 38.3543 54.3859 38.6216 54.3859C38.6654 54.3859 38.7114 54.3837 38.7596 54.3793C38.8122 54.3749 38.8604 54.3683 38.9042 54.3596C38.9481 54.3508 38.9897 54.3377 39.0291 54.3201V55.398C38.9765 55.4243 38.913 55.4462 38.8385 55.4638C38.7027 55.5076 38.5428 55.5295 38.3587 55.5295C38.0914 55.5295 37.8417 55.4813 37.6094 55.3849C37.3816 55.2841 37.1822 55.1439 37.0113 54.9642C36.8404 54.7846 36.7068 54.5677 36.6104 54.3136C36.5184 54.0594 36.4724 53.7702 36.4724 53.446V50.5475H35.3945V49.4038H35.8677C36.0999 49.4038 36.2927 49.3293 36.4461 49.1804C36.5995 49.027 36.6761 48.8342 36.6761 48.602V47.7935H37.6817V49.4038H39.0291V50.5475H37.6817V53.446Z" fill="black"/>
<path d="M42.8018 55.5295C42.46 55.5295 42.1423 55.466 41.8488 55.3389C41.5596 55.2074 41.3032 55.0278 41.0798 54.7999C40.8607 54.5677 40.6876 54.2917 40.5605 53.9718C40.4378 53.6475 40.3765 53.2926 40.3765 52.907V49.4038H41.5859V52.907C41.5859 53.113 41.6231 53.3058 41.6976 53.4854C41.7765 53.6651 41.8794 53.8228 42.0065 53.9586C42.138 54.0901 42.2891 54.1953 42.46 54.2741C42.6309 54.3486 42.8106 54.3859 42.999 54.3859C43.1961 54.3859 43.3846 54.3486 43.5642 54.2741C43.7439 54.1953 43.9016 54.0901 44.0374 53.9586C44.1733 53.8228 44.2806 53.6651 44.3595 53.4854C44.4428 53.3058 44.4844 53.113 44.4844 52.907V49.4038H45.6937V55.4638H44.8196L44.5501 54.8591C44.4318 54.9862 44.2916 55.0979 44.1295 55.1943C43.9849 55.2819 43.803 55.3608 43.5839 55.4309C43.3692 55.4966 43.1085 55.5295 42.8018 55.5295Z" fill="black"/>
<path d="M49.8608 55.5295C49.4576 55.5295 49.0808 55.455 48.7303 55.306C48.3797 55.1527 48.0708 54.9401 47.8035 54.6685C47.5406 54.3924 47.3347 54.066 47.1857 53.6892C47.0411 53.3123 46.9688 52.8939 46.9688 52.4338C46.9688 51.9781 47.0411 51.5618 47.1857 51.185C47.3347 50.8082 47.5406 50.4839 47.8035 50.2123C48.0708 49.9362 48.3797 49.7215 48.7303 49.5681C49.0808 49.4148 49.4576 49.3381 49.8608 49.3381C50.15 49.3381 50.3975 49.3753 50.6035 49.4498C50.8094 49.5199 50.9847 49.5944 51.1293 49.6733C51.2914 49.7741 51.4294 49.888 51.5433 50.0151V46.9851H52.7527V55.4638H51.8786L51.6091 54.8591C51.4908 54.9862 51.3527 55.0979 51.195 55.1943C51.0504 55.2819 50.8686 55.3608 50.6495 55.4309C50.4304 55.4966 50.1675 55.5295 49.8608 55.5295ZM49.9265 50.4817C49.6943 50.4817 49.473 50.5299 49.2627 50.6263C49.0523 50.7183 48.8661 50.852 48.704 51.0273C48.5419 51.2025 48.4126 51.4107 48.3162 51.6517C48.2242 51.8883 48.1782 52.149 48.1782 52.4338C48.1782 52.723 48.2242 52.9859 48.3162 53.2225C48.4126 53.4591 48.5419 53.6651 48.704 53.8403C48.8661 54.0156 49.0523 54.1514 49.2627 54.2478C49.473 54.3399 49.6943 54.3859 49.9265 54.3859C50.1587 54.3859 50.38 54.3399 50.5903 54.2478C50.805 54.1514 50.9913 54.0156 51.149 53.8403C51.3111 53.6651 51.4382 53.4591 51.5302 53.2225C51.6266 52.9859 51.6748 52.723 51.6748 52.4338C51.6748 52.1446 51.6266 51.8817 51.5302 51.6451C51.4382 51.4085 51.3111 51.2025 51.149 51.0273C50.9913 50.852 50.805 50.7183 50.5903 50.6263C50.38 50.5299 50.1587 50.4817 49.9265 50.4817Z" fill="black"/>
<path d="M53.7649 49.4038H55.0465L56.7291 53.7812L58.4117 49.4038H59.6934L57.1301 55.8647C56.9942 56.2065 56.8606 56.4913 56.7291 56.7191C56.6021 56.9514 56.4618 57.1376 56.3085 57.2778C56.1595 57.4224 55.993 57.5254 55.809 57.5867C55.6249 57.6524 55.4168 57.6853 55.1846 57.6853C55.132 57.6853 55.0816 57.6831 55.0334 57.6787C54.9896 57.6743 54.9458 57.6678 54.9019 57.659C54.8581 57.6502 54.8165 57.6371 54.7771 57.6196V56.6074C55.1188 56.6074 55.3774 56.5351 55.5526 56.3905C55.7279 56.2503 55.8506 56.075 55.9207 55.8647L56.1244 55.26L53.7649 49.4038Z" fill="black"/>
<defs>
<linearGradient id="paint0_linear" x1="-0.00143617" y1="26.1813" x2="38.8969" y2="26.1813" gradientUnits="userSpaceOnUse">
<stop stop-color="white"/>
<stop offset="0.108" stop-color="#FAFAFA"/>
<stop offset="0.2318" stop-color="#ECECEC"/>
<stop offset="0.3633" stop-color="#D5D5D5"/>
<stop offset="0.5004" stop-color="#B5B5B5"/>
<stop offset="0.6417" stop-color="#8C8C8C"/>
<stop offset="0.7865" stop-color="#595959"/>
<stop offset="0.9316" stop-color="#1E1E1E"/>
<stop offset="1"/>
</linearGradient>
<linearGradient id="paint1_linear" x1="42.8833" y1="26.1316" x2="4.1074" y2="26.1316" gradientUnits="userSpaceOnUse">
<stop stop-color="white"/>
<stop offset="0.108" stop-color="#FAFAFA"/>
<stop offset="0.2318" stop-color="#ECECEC"/>
<stop offset="0.3633" stop-color="#D5D5D5"/>
<stop offset="0.5004" stop-color="#B5B5B5"/>
<stop offset="0.6417" stop-color="#8C8C8C"/>
<stop offset="0.7865" stop-color="#595959"/>
<stop offset="0.9316" stop-color="#1E1E1E"/>
<stop offset="1"/>
</linearGradient>
<linearGradient id="paint2_linear" x1="36.2782" y1="26.1563" x2="12.5524" y2="26.1563" gradientUnits="userSpaceOnUse">
<stop stop-color="white"/>
<stop offset="0.108" stop-color="#FAFAFA"/>
<stop offset="0.2318" stop-color="#ECECEC"/>
<stop offset="0.3633" stop-color="#D5D5D5"/>
<stop offset="0.5004" stop-color="#B5B5B5"/>
<stop offset="0.6417" stop-color="#8C8C8C"/>
<stop offset="0.7865" stop-color="#595959"/>
<stop offset="0.9316" stop-color="#1E1E1E"/>
<stop offset="1"/>
</linearGradient>
<linearGradient id="paint3_linear" x1="6.90826" y1="26.1629" x2="24.9897" y2="26.1629" gradientUnits="userSpaceOnUse">
<stop stop-color="white"/>
<stop offset="0.108" stop-color="#FAFAFA"/>
<stop offset="0.2318" stop-color="#ECECEC"/>
<stop offset="0.3633" stop-color="#D5D5D5"/>
<stop offset="0.5004" stop-color="#B5B5B5"/>
<stop offset="0.6417" stop-color="#8C8C8C"/>
<stop offset="0.7865" stop-color="#595959"/>
<stop offset="0.9316" stop-color="#1E1E1E"/>
<stop offset="1"/>
</linearGradient>
<linearGradient id="paint4_linear" x1="74.3492" y1="26.181" x2="35.3218" y2="26.181" gradientUnits="userSpaceOnUse">
<stop stop-color="white"/>
<stop offset="0.108" stop-color="#FAFAFA"/>
<stop offset="0.2318" stop-color="#ECECEC"/>
<stop offset="0.3633" stop-color="#D5D5D5"/>
<stop offset="0.5004" stop-color="#B5B5B5"/>
<stop offset="0.6417" stop-color="#8C8C8C"/>
<stop offset="0.7865" stop-color="#595959"/>
<stop offset="0.9316" stop-color="#1E1E1E"/>
<stop offset="1"/>
</linearGradient>
<linearGradient id="paint5_linear" x1="26.6587" y1="26.1604" x2="65.5566" y2="26.1604" gradientUnits="userSpaceOnUse">
<stop stop-color="white"/>
<stop offset="0.108" stop-color="#FAFAFA"/>
<stop offset="0.2318" stop-color="#ECECEC"/>
<stop offset="0.3633" stop-color="#D5D5D5"/>
<stop offset="0.5004" stop-color="#B5B5B5"/>
<stop offset="0.6417" stop-color="#8C8C8C"/>
<stop offset="0.7865" stop-color="#595959"/>
<stop offset="0.9316" stop-color="#1E1E1E"/>
<stop offset="1"/>
</linearGradient>
</defs>
</svg>
