<svg width="66" height="49" viewBox="0 0 66 49" fill="none" xmlns="http://www.w3.org/2000/svg">
<path d="M38.901 18.8996C38.901 19.4049 38.7079 19.9052 38.3266 20.2915L29.3035 29.3166C22.6129 36.0087 11.7228 36.0087 5.03227 29.3166C1.78851 26.0722 0.00569153 21.7627 0.00569153 17.1758C0.00569153 12.589 1.79347 8.27953 5.03227 5.03505C8.27602 1.79056 12.5845 0.00732422 17.1703 0.00732422C21.7562 0.00732422 26.0647 1.79552 29.3084 5.03505C30.076 5.80283 30.076 7.05108 29.3084 7.81886C28.5408 8.58664 27.2928 8.58664 26.5252 7.81886C24.0293 5.32234 20.7063 3.94529 17.1703 3.94529C13.6394 3.94529 10.3164 5.32234 7.81546 7.81886C5.3195 10.3154 3.94277 13.6391 3.94277 17.1758C3.94277 20.7076 5.3195 24.0314 7.81546 26.5328C12.9708 31.6893 21.3649 31.6893 26.5203 26.5328L35.5434 17.5077C36.311 16.74 37.5589 16.74 38.3266 17.5077C38.7079 17.8891 38.901 18.3944 38.901 18.8996Z" fill="white"/>
<path d="M24.9893 11.3148C24.9893 11.82 24.7961 12.3203 24.4148 12.7067C23.6472 13.4745 22.3992 13.4745 21.6316 12.7067C19.1703 10.2448 15.159 10.2448 12.6977 12.7067C11.5042 13.9005 10.8455 15.4855 10.8455 17.1746C10.8455 18.8638 11.5042 20.4489 12.6977 21.6426C13.8912 22.8364 15.4759 23.4952 17.1647 23.4952C18.8534 23.4952 20.4381 22.8364 21.6316 21.6426C22.3992 20.8749 23.6472 20.8749 24.4148 21.6426C25.1824 22.4104 25.1824 23.6587 24.4148 24.4265C22.4785 26.3632 19.9033 27.4282 17.1647 27.4282C14.426 27.4282 11.8508 26.3632 9.91449 24.4265C7.97815 22.4897 6.91341 19.9139 6.91341 17.1746C6.91341 14.4354 7.97815 11.8596 9.91449 9.92286C13.911 5.92545 20.4183 5.92545 24.4148 9.92286C24.7961 10.3092 24.9893 10.8145 24.9893 11.3148Z" fill="white"/>
<path d="M65.5535 17.1745C65.5535 21.7613 63.7657 26.0708 60.5269 29.3153C53.8364 36.0074 42.9463 36.0074 36.2557 29.3153C35.4881 28.5475 35.4881 27.2993 36.2557 26.5315C37.0233 25.7637 38.2713 25.7637 39.0389 26.5315C44.1942 31.688 52.5884 31.688 57.7437 26.5315C60.2397 24.035 61.6164 20.7112 61.6164 17.1745C61.6164 13.6427 60.2397 10.319 57.7437 7.81751C55.2478 5.32099 51.9248 3.94394 48.3888 3.94394C44.8578 3.94394 41.5349 5.32099 39.0339 7.81751L30.0109 16.8426C29.2432 17.6104 27.9953 17.6104 27.2277 16.8426C26.4601 16.0748 26.4601 14.8266 27.2277 14.0588L36.2508 5.03369C42.9413 -1.65837 53.8314 -1.65837 60.5269 5.03369C63.7707 8.27818 65.5535 12.5926 65.5535 17.1745Z" fill="white"/>
<path d="M58.6451 17.1746C58.6451 19.9139 57.5803 22.4897 55.644 24.4265C53.7076 26.3632 51.1324 27.4282 48.3938 27.4282C45.6552 27.4282 43.08 26.3632 41.1437 24.4265C40.376 23.6587 40.376 22.4104 41.1437 21.6426C41.9113 20.8749 43.1592 20.8749 43.9268 21.6426C45.1203 22.8364 46.7051 23.4952 48.3938 23.4952C50.0826 23.4952 51.6673 22.8364 52.8608 21.6426C54.0543 20.4489 54.7129 18.8638 54.7129 17.1746C54.7129 15.4855 54.0543 13.9005 52.8608 12.7067C50.3995 10.2448 46.3881 10.2448 43.9268 12.7067C43.1592 13.4745 41.9113 13.4745 41.1437 12.7067C40.376 11.9389 40.376 10.6906 41.1437 9.92286C45.1402 5.92545 51.6475 5.92545 55.644 9.92286C57.5803 11.8596 58.6451 14.4354 58.6451 17.1746Z" fill="white"/>
<g opacity="0.2">
<path opacity="0.2" d="M38.3258 20.3007C38.6923 19.9342 38.8805 19.4587 38.9003 18.9732C37.37 19.1862 35.9437 19.8946 34.8394 20.9992L28.0449 27.7953C22.1219 33.7195 12.4699 33.8929 6.50237 28.0132C0.485327 22.084 0.460567 12.4 6.41818 6.43613C11.8211 1.03196 20.2846 0.54653 26.2373 4.98974C27.3069 5.78724 28.5599 6.28753 29.8772 6.40641C29.8673 5.91602 29.6791 5.42564 29.3027 5.04918C26.059 1.8047 21.7505 0.0214844 17.1647 0.0214844C12.5788 0.0214844 8.27034 1.80965 5.02658 5.04918C1.78283 8.29367 0 12.6031 0 17.19C0 21.7769 1.78778 26.0863 5.02658 29.3308C11.7171 36.0229 22.6072 36.0229 29.2978 29.3308L38.3258 20.3007Z" fill="url(#paint0_linear)"/>
<path opacity="0.2" d="M6.41819 6.41134C0.45563 12.3752 0.485343 22.0592 6.50238 27.9884C12.4699 33.8681 22.1219 33.6997 28.0449 27.7704L34.8394 20.9744C35.9438 19.8698 37.37 19.1664 38.9003 18.9484C38.9003 18.9236 38.9052 18.9038 38.9052 18.8791C38.9052 18.3738 38.7121 17.8735 38.3308 17.4872C37.5632 16.7194 36.3152 16.7194 35.5476 17.4872L26.5245 26.5123C21.3692 31.6688 12.975 31.6688 7.81969 26.5123C5.32374 24.0158 3.94699 20.692 3.94699 17.1553C3.94699 13.6235 5.32374 10.2998 7.81969 7.79829C10.3156 5.30177 13.6386 3.92471 17.1746 3.92471C20.7056 3.92471 24.0285 5.30177 26.5295 7.79829C27.2971 8.56606 28.545 8.56606 29.3127 7.79829C29.7039 7.40697 29.897 6.88686 29.8871 6.3717C28.5698 6.25282 27.3169 5.74758 26.2472 4.95503C20.2846 0.52173 11.8211 1.00221 6.41819 6.41134Z" fill="url(#paint1_linear)"/>
</g>
<g opacity="0.2">
<path opacity="0.2" d="M10.9 11.7258C8.2109 14.8167 8.2109 19.4977 10.9 22.5886C13.6931 25.7935 18.3037 26.3037 21.6712 24.1093C22.6617 23.4654 23.8106 23.1087 24.9843 23.0344C24.9893 22.5242 24.7961 22.019 24.4099 21.6277C23.6422 20.8599 22.3943 20.8599 21.6267 21.6277C20.4332 22.8214 18.8484 23.4802 17.1597 23.4802C15.471 23.4802 13.8862 22.8214 12.6927 21.6277C11.4992 20.4339 10.8406 18.8488 10.8406 17.1597C10.8406 15.4706 11.4992 13.8855 12.6927 12.6917C15.154 10.2299 19.1654 10.2299 21.6267 12.6917C22.3943 13.4595 23.6422 13.4595 24.4099 12.6917C24.7961 12.3053 24.9843 11.805 24.9843 11.2998C24.9843 11.2948 24.9843 11.2849 24.9843 11.28C23.8057 11.2057 22.6617 10.8491 21.6712 10.2051C18.3086 8.01076 13.6931 8.52093 10.9 11.7258Z" fill="url(#paint2_linear)"/>
<path opacity="0.2" d="M9.90955 9.90786C7.9732 11.8446 6.90846 14.4204 6.90846 17.1597C6.90846 19.8989 7.9732 22.4747 9.90955 24.4115C11.8459 26.3482 14.4211 27.4182 17.1597 27.4182C19.8983 27.4182 22.4735 26.3532 24.4099 24.4115C24.7912 24.0301 24.9843 23.5297 24.9843 23.0294C23.8057 23.1037 22.6617 23.4604 21.6712 24.1044C18.3037 26.2938 13.6931 25.7885 10.9 22.5837C8.21091 19.4927 8.21091 14.8118 10.9 11.7208C13.6931 8.51596 18.3037 8.00576 21.6712 10.2001C22.6617 10.8441 23.8106 11.2007 24.9843 11.275C24.9794 10.7797 24.7862 10.2843 24.4099 9.9029C20.4134 5.91045 13.911 5.91045 9.90955 9.90786Z" fill="url(#paint3_linear)"/>
</g>
<g opacity="0.2">
<path opacity="0.2" d="M59.1354 27.904C65.0979 21.9401 65.0682 12.2561 59.0512 6.32691C53.0836 0.447208 43.4316 0.615625 37.5087 6.54486L30.7141 13.3409C29.6098 14.4455 28.1835 15.1489 26.6533 15.3669C26.6334 15.8969 26.8216 16.4318 27.2277 16.8331C27.9953 17.6008 29.2433 17.6008 30.0109 16.8331L39.034 7.80797C41.5299 5.31145 44.8529 3.9344 48.3889 3.9344C51.9199 3.9344 55.2428 5.31145 57.7437 7.80797C60.2397 10.3045 61.6164 13.6282 61.6164 17.165C61.6164 20.6967 60.2397 24.0205 57.7437 26.522C52.5884 31.6785 44.1943 31.6785 39.0389 26.522C38.2713 25.7542 37.0234 25.7542 36.2558 26.522C35.8645 26.9133 35.6763 27.4284 35.6813 27.9386C36.9986 28.0575 38.2515 28.5628 39.3212 29.3553C45.2689 33.7936 53.7324 33.3081 59.1354 27.904Z" fill="url(#paint4_linear)"/>
<path opacity="0.2" d="M27.2333 14.0491C26.8669 14.4157 26.6787 14.8862 26.6589 15.3667C28.1891 15.1537 29.6154 14.4454 30.7198 13.3408L37.5143 6.5447C43.4373 0.620423 53.0893 0.447053 59.0568 6.32675C65.0738 12.256 65.0986 21.9399 59.141 27.9038C53.738 33.308 45.2746 33.7934 39.3219 29.3502C38.2522 28.5527 36.9993 28.0524 35.682 27.9335C35.6869 28.4289 35.88 28.9242 36.2564 29.3007C42.947 35.9927 53.8371 35.9927 60.5276 29.3007C63.7714 26.0562 65.5542 21.7467 65.5542 17.1599C65.5542 12.573 63.7664 8.26353 60.5276 5.01905C53.8371 -1.67301 42.947 -1.67301 36.2515 5.01905L27.2333 14.0491Z" fill="url(#paint5_linear)"/>
</g>
<g opacity="0.2">
<path opacity="0.2" d="M54.708 17.1602C54.708 18.8493 54.0493 20.4344 52.8558 21.6282C51.6623 22.8219 50.0776 23.4807 48.3889 23.4807C46.7001 23.4807 45.1154 22.8219 43.9219 21.6282C43.1543 20.8604 41.9063 20.8604 41.1387 21.6282C40.7524 22.0145 40.5593 22.5247 40.5643 23.0349C41.7429 23.1092 42.8869 23.4658 43.8773 24.1098C47.2449 26.2992 51.8555 25.794 54.6486 22.5891C57.3377 19.4982 57.3377 14.8172 54.6486 11.7263C51.8555 8.52142 47.2449 8.01125 43.8773 10.2056C42.8869 10.8495 41.738 11.2062 40.5643 11.2805C40.5593 11.7907 40.7524 12.3009 41.1387 12.6922C41.9063 13.46 43.1543 13.46 43.9219 12.6922C46.3832 10.2304 50.3946 10.2304 52.8558 12.6922C54.0543 13.886 54.708 15.4711 54.708 17.1602Z" fill="white"/>
<path opacity="0.2" d="M54.6545 11.726C57.3436 14.817 57.3436 19.498 54.6545 22.5889C51.8614 25.7937 47.2509 26.3039 43.8833 24.1096C42.8928 23.4656 41.7439 23.109 40.5702 23.0347C40.5752 23.535 40.7633 24.0353 41.1447 24.4167C43.081 26.3535 45.6562 27.4234 48.3948 27.4234C51.1335 27.4234 53.7086 26.3584 55.645 24.4167C57.5813 22.4799 58.6461 19.9041 58.6461 17.1649C58.6461 14.4257 57.5813 11.8499 55.645 9.91309C51.6485 5.91569 45.1412 5.91569 41.1447 9.91309C40.7633 10.2945 40.5752 10.7899 40.5702 11.2852C41.7489 11.2109 42.8928 10.8542 43.8833 10.2103C47.2509 8.01097 51.8614 8.52117 54.6545 11.726Z" fill="white"/>
</g>
<path d="M9.41957 43.0986H7.94073V46.4638H6.66565V37.9852H10.0308C10.3814 37.9852 10.7122 38.0531 11.0233 38.1889C11.3388 38.3204 11.6104 38.5022 11.8383 38.7344C12.0661 38.9623 12.248 39.234 12.3838 39.5494C12.5196 39.8605 12.5876 40.1914 12.5876 40.5419C12.5876 41.037 12.489 41.4402 12.2918 41.7513C12.0946 42.058 11.8777 42.3012 11.6411 42.4808C11.3651 42.6955 11.0518 42.8576 10.7012 42.9672L12.7847 46.4638H11.3716L9.41957 43.0986ZM7.94073 41.8893H10.0308C10.2017 41.8893 10.3616 41.8542 10.5106 41.7841C10.664 41.7096 10.7976 41.6132 10.9115 41.4949C11.0299 41.3722 11.1241 41.2298 11.1942 41.0677C11.2687 40.9056 11.3059 40.7303 11.3059 40.5419C11.3059 40.3535 11.2687 40.1782 11.1942 40.0161C11.1241 39.854 11.0299 39.7138 10.9115 39.5954C10.7976 39.4728 10.664 39.3764 10.5106 39.3063C10.3616 39.2318 10.2017 39.1945 10.0308 39.1945H7.94073V41.8893Z" fill="white"/>
<path d="M15.2035 46.4638H13.9941V40.4039H15.2035V46.4638ZM14.5988 39.464C14.3928 39.464 14.2176 39.3939 14.073 39.2537C13.9284 39.1091 13.8561 38.9316 13.8561 38.7213C13.8561 38.5153 13.9284 38.3423 14.073 38.2021C14.2176 38.0575 14.3928 37.9852 14.5988 37.9852C14.8047 37.9852 14.98 38.0575 15.1246 38.2021C15.2692 38.3423 15.3415 38.5153 15.3415 38.7213C15.3415 38.9272 15.2692 39.1025 15.1246 39.2471C14.98 39.3917 14.8047 39.464 14.5988 39.464Z" fill="white"/>
<path d="M19.3113 41.5475H16.4128V40.4039H20.7902V41.4818L17.8982 45.3202H20.9282V46.4638H16.4128V45.3859L19.3113 41.5475Z" fill="white"/>
<path d="M24.6877 40.3381C24.9944 40.3381 25.2573 40.3754 25.4764 40.4499C25.6955 40.52 25.8774 40.5945 26.022 40.6734C26.1841 40.7741 26.3221 40.8881 26.436 41.0151L26.7055 40.4039H27.5797V48.6196H26.3703V45.8591C26.252 45.9862 26.114 46.0979 25.9562 46.1943C25.8116 46.282 25.6364 46.3608 25.4304 46.4309C25.2245 46.4967 24.9769 46.5295 24.6877 46.5295C24.2846 46.5295 23.9078 46.455 23.5572 46.3061C23.2067 46.1527 22.8978 45.9402 22.6305 45.6685C22.3676 45.3925 22.1616 45.066 22.0127 44.6892C21.8681 44.3124 21.7958 43.8939 21.7958 43.4338C21.7958 42.9781 21.8681 42.5619 22.0127 42.185C22.1616 41.8082 22.3676 41.484 22.6305 41.2123C22.8978 40.9363 23.2067 40.7216 23.5572 40.5682C23.9078 40.4148 24.2846 40.3381 24.6877 40.3381ZM24.7534 45.3859C24.9857 45.3859 25.2069 45.3399 25.4173 45.2479C25.632 45.1515 25.8182 45.0156 25.9759 44.8404C26.1381 44.6651 26.2651 44.4592 26.3572 44.2226C26.4536 43.9859 26.5018 43.723 26.5018 43.4338C26.5018 43.1446 26.4536 42.8817 26.3572 42.6451C26.2651 42.4085 26.1381 42.2026 25.9759 42.0273C25.8182 41.852 25.632 41.7184 25.4173 41.6264C25.2069 41.53 24.9857 41.4818 24.7534 41.4818C24.5212 41.4818 24.2999 41.53 24.0896 41.6264C23.8793 41.7184 23.6931 41.852 23.5309 42.0273C23.3688 42.2026 23.2396 42.4107 23.1432 42.6517C23.0511 42.8883 23.0051 43.149 23.0051 43.4338C23.0051 43.723 23.0511 43.9859 23.1432 44.2226C23.2396 44.4592 23.3688 44.6651 23.5309 44.8404C23.6931 45.0156 23.8793 45.1515 24.0896 45.2479C24.2999 45.3399 24.5212 45.3859 24.7534 45.3859Z" fill="white"/>
<path d="M28.9336 40.2724C28.9336 39.9657 28.9993 39.6721 29.1308 39.3917C29.2666 39.1069 29.4594 38.8549 29.7092 38.6358C29.9633 38.4168 30.2635 38.2437 30.6096 38.1166C30.9558 37.9852 31.3392 37.9194 31.7598 37.9194C32.1629 37.9194 32.5332 37.9874 32.8706 38.1232C33.208 38.2546 33.4994 38.4409 33.7448 38.6819C33.9901 38.9185 34.1807 39.1967 34.3166 39.5166C34.4524 39.8321 34.5203 40.1738 34.5203 40.5419H33.2387C33.2387 40.1037 33.1006 39.7488 32.8246 39.4771C32.5529 39.2011 32.198 39.0631 31.7598 39.0631C31.5276 39.0631 31.3151 39.0959 31.1223 39.1617C30.9295 39.2274 30.7652 39.3194 30.6293 39.4377C30.4935 39.556 30.3883 39.6875 30.3139 39.8321C30.2437 39.9723 30.2087 40.1191 30.2087 40.2724C30.2087 40.5704 30.3204 40.8004 30.5439 40.9625C30.7717 41.1203 31.05 41.2583 31.3786 41.3766C31.7116 41.4905 32.0731 41.6045 32.4631 41.7184C32.8575 41.8323 33.2189 41.9857 33.5476 42.1785C33.8806 42.3713 34.1588 42.6254 34.3823 42.9409C34.6101 43.252 34.7241 43.6639 34.7241 44.1765C34.7241 44.4833 34.654 44.7768 34.5137 45.0573C34.3735 45.3377 34.1742 45.5897 33.9156 45.8131C33.6615 46.0322 33.3526 46.2075 32.9889 46.3389C32.6252 46.466 32.2155 46.5295 31.7598 46.5295C31.3041 46.5295 30.8988 46.466 30.5439 46.3389C30.189 46.2075 29.8844 46.0278 29.6303 45.8C29.3805 45.5677 29.1899 45.2917 29.0585 44.9718C28.9314 44.6476 28.8679 44.2927 28.8679 43.9071H30.143C30.143 44.3847 30.2766 44.7506 30.5439 45.0047C30.8156 45.2588 31.2209 45.3859 31.7598 45.3859C32.3338 45.3859 32.7567 45.2698 33.0283 45.0376C33.3044 44.8053 33.4424 44.5183 33.4424 44.1765C33.4424 43.8611 33.3307 43.6135 33.1072 43.4338C32.8837 43.2542 32.6055 43.1052 32.2725 42.9869C31.9395 42.8642 31.578 42.7459 31.188 42.632C30.798 42.5137 30.4365 42.3625 30.1035 42.1785C29.7705 41.9944 29.4923 41.7556 29.2688 41.4621C29.0453 41.1641 28.9336 40.7676 28.9336 40.2724Z" fill="white"/>
<path d="M37.6817 44.446C37.6817 44.7133 37.7716 44.9368 37.9512 45.1164C38.1309 45.2961 38.3543 45.3859 38.6216 45.3859C38.6654 45.3859 38.7114 45.3837 38.7596 45.3793C38.8122 45.375 38.8604 45.3684 38.9042 45.3596C38.9481 45.3509 38.9897 45.3377 39.0291 45.3202V46.3981C38.9765 46.4244 38.913 46.4463 38.8385 46.4638C38.7027 46.5076 38.5427 46.5295 38.3587 46.5295C38.0914 46.5295 37.8417 46.4813 37.6094 46.3849C37.3816 46.2842 37.1822 46.1439 37.0113 45.9643C36.8404 45.7846 36.7068 45.5677 36.6104 45.3136C36.5184 45.0595 36.4724 44.7703 36.4724 44.446V41.5475H35.3945V40.4039H35.8677C36.0999 40.4039 36.2927 40.3294 36.4461 40.1804C36.5995 40.027 36.6761 39.8343 36.6761 39.602V38.7936H37.6817V40.4039H39.0291V41.5475H37.6817V44.446Z" fill="white"/>
<path d="M42.8018 46.5295C42.46 46.5295 42.1423 46.466 41.8488 46.3389C41.5596 46.2075 41.3032 46.0278 41.0798 45.8C40.8607 45.5677 40.6876 45.2917 40.5605 44.9718C40.4379 44.6476 40.3765 44.2927 40.3765 43.9071V40.4039H41.5859V43.9071C41.5859 44.113 41.6231 44.3058 41.6976 44.4855C41.7765 44.6651 41.8794 44.8229 42.0065 44.9587C42.138 45.0901 42.2891 45.1953 42.46 45.2742C42.6309 45.3487 42.8106 45.3859 42.999 45.3859C43.1961 45.3859 43.3846 45.3487 43.5642 45.2742C43.7439 45.1953 43.9016 45.0901 44.0374 44.9587C44.1733 44.8229 44.2806 44.6651 44.3595 44.4855C44.4428 44.3058 44.4844 44.113 44.4844 43.9071V40.4039H45.6937V46.4638H44.8196L44.5501 45.8591C44.4318 45.9862 44.2916 46.0979 44.1295 46.1943C43.9849 46.282 43.803 46.3608 43.5839 46.4309C43.3692 46.4967 43.1085 46.5295 42.8018 46.5295Z" fill="white"/>
<path d="M49.8608 46.5295C49.4576 46.5295 49.0808 46.455 48.7303 46.3061C48.3797 46.1527 48.0708 45.9402 47.8035 45.6685C47.5406 45.3925 47.3347 45.066 47.1857 44.6892C47.0411 44.3124 46.9688 43.8939 46.9688 43.4338C46.9688 42.9781 47.0411 42.5619 47.1857 42.185C47.3347 41.8082 47.5406 41.484 47.8035 41.2123C48.0708 40.9363 48.3797 40.7216 48.7303 40.5682C49.0808 40.4148 49.4576 40.3381 49.8608 40.3381C50.15 40.3381 50.3975 40.3754 50.6035 40.4499C50.8094 40.52 50.9847 40.5945 51.1293 40.6734C51.2914 40.7741 51.4294 40.8881 51.5434 41.0151V37.9852H52.7527V46.4638H51.8786L51.6091 45.8591C51.4908 45.9862 51.3527 46.0979 51.195 46.1943C51.0504 46.282 50.8686 46.3608 50.6495 46.4309C50.4304 46.4967 50.1675 46.5295 49.8608 46.5295ZM49.9265 41.4818C49.6943 41.4818 49.473 41.53 49.2627 41.6264C49.0523 41.7184 48.8661 41.852 48.704 42.0273C48.5419 42.2026 48.4126 42.4107 48.3162 42.6517C48.2242 42.8883 48.1782 43.149 48.1782 43.4338C48.1782 43.723 48.2242 43.9859 48.3162 44.2226C48.4126 44.4592 48.5419 44.6651 48.704 44.8404C48.8661 45.0156 49.0523 45.1515 49.2627 45.2479C49.473 45.3399 49.6943 45.3859 49.9265 45.3859C50.1587 45.3859 50.38 45.3399 50.5903 45.2479C50.805 45.1515 50.9912 45.0156 51.149 44.8404C51.3111 44.6651 51.4382 44.4592 51.5302 44.2226C51.6266 43.9859 51.6748 43.723 51.6748 43.4338C51.6748 43.1446 51.6266 42.8817 51.5302 42.6451C51.4382 42.4085 51.3111 42.2026 51.149 42.0273C50.9912 41.852 50.805 41.7184 50.5903 41.6264C50.38 41.53 50.1587 41.4818 49.9265 41.4818Z" fill="white"/>
<path d="M53.7649 40.4039H55.0465L56.7291 44.7812L58.4117 40.4039H59.6934L57.1301 46.8647C56.9942 47.2065 56.8606 47.4913 56.7291 47.7192C56.6021 47.9514 56.4618 48.1376 56.3085 48.2778C56.1595 48.4224 55.993 48.5254 55.809 48.5868C55.6249 48.6525 55.4168 48.6853 55.1846 48.6853C55.132 48.6853 55.0816 48.6832 55.0334 48.6788C54.9896 48.6744 54.9458 48.6678 54.9019 48.6591C54.8581 48.6503 54.8165 48.6371 54.7771 48.6196V47.6074C55.1188 47.6074 55.3774 47.5351 55.5526 47.3905C55.7279 47.2503 55.8506 47.0751 55.9207 46.8647L56.1245 46.2601L53.7649 40.4039Z" fill="white"/>
<defs>
<linearGradient id="paint0_linear" x1="-0.00143617" y1="17.1815" x2="38.8969" y2="17.1815" gradientUnits="userSpaceOnUse">
<stop stop-color="white"/>
<stop offset="0.108" stop-color="#FAFAFA"/>
<stop offset="0.2318" stop-color="#ECECEC"/>
<stop offset="0.3633" stop-color="#D5D5D5"/>
<stop offset="0.5004" stop-color="#B5B5B5"/>
<stop offset="0.6417" stop-color="#8C8C8C"/>
<stop offset="0.7865" stop-color="#595959"/>
<stop offset="0.9316" stop-color="#1E1E1E"/>
<stop offset="1"/>
</linearGradient>
<linearGradient id="paint1_linear" x1="42.8833" y1="17.132" x2="4.1074" y2="17.132" gradientUnits="userSpaceOnUse">
<stop stop-color="white"/>
<stop offset="0.108" stop-color="#FAFAFA"/>
<stop offset="0.2318" stop-color="#ECECEC"/>
<stop offset="0.3633" stop-color="#D5D5D5"/>
<stop offset="0.5004" stop-color="#B5B5B5"/>
<stop offset="0.6417" stop-color="#8C8C8C"/>
<stop offset="0.7865" stop-color="#595959"/>
<stop offset="0.9316" stop-color="#1E1E1E"/>
<stop offset="1"/>
</linearGradient>
<linearGradient id="paint2_linear" x1="36.2782" y1="17.1561" x2="12.5524" y2="17.1561" gradientUnits="userSpaceOnUse">
<stop stop-color="white"/>
<stop offset="0.108" stop-color="#FAFAFA"/>
<stop offset="0.2318" stop-color="#ECECEC"/>
<stop offset="0.3633" stop-color="#D5D5D5"/>
<stop offset="0.5004" stop-color="#B5B5B5"/>
<stop offset="0.6417" stop-color="#8C8C8C"/>
<stop offset="0.7865" stop-color="#595959"/>
<stop offset="0.9316" stop-color="#1E1E1E"/>
<stop offset="1"/>
</linearGradient>
<linearGradient id="paint3_linear" x1="6.90826" y1="17.1627" x2="24.9897" y2="17.1627" gradientUnits="userSpaceOnUse">
<stop stop-color="white"/>
<stop offset="0.108" stop-color="#FAFAFA"/>
<stop offset="0.2318" stop-color="#ECECEC"/>
<stop offset="0.3633" stop-color="#D5D5D5"/>
<stop offset="0.5004" stop-color="#B5B5B5"/>
<stop offset="0.6417" stop-color="#8C8C8C"/>
<stop offset="0.7865" stop-color="#595959"/>
<stop offset="0.9316" stop-color="#1E1E1E"/>
<stop offset="1"/>
</linearGradient>
<linearGradient id="paint4_linear" x1="74.3492" y1="17.1811" x2="35.3218" y2="17.1811" gradientUnits="userSpaceOnUse">
<stop stop-color="white"/>
<stop offset="0.108" stop-color="#FAFAFA"/>
<stop offset="0.2318" stop-color="#ECECEC"/>
<stop offset="0.3633" stop-color="#D5D5D5"/>
<stop offset="0.5004" stop-color="#B5B5B5"/>
<stop offset="0.6417" stop-color="#8C8C8C"/>
<stop offset="0.7865" stop-color="#595959"/>
<stop offset="0.9316" stop-color="#1E1E1E"/>
<stop offset="1"/>
</linearGradient>
<linearGradient id="paint5_linear" x1="26.6587" y1="17.1604" x2="65.5566" y2="17.1604" gradientUnits="userSpaceOnUse">
<stop stop-color="white"/>
<stop offset="0.108" stop-color="#FAFAFA"/>
<stop offset="0.2318" stop-color="#ECECEC"/>
<stop offset="0.3633" stop-color="#D5D5D5"/>
<stop offset="0.5004" stop-color="#B5B5B5"/>
<stop offset="0.6417" stop-color="#8C8C8C"/>
<stop offset="0.7865" stop-color="#595959"/>
<stop offset="0.9316" stop-color="#1E1E1E"/>
<stop offset="1"/>
</linearGradient>
</defs>
</svg>
