<svg width="66" height="49" viewBox="0 0 66 49" fill="none" xmlns="http://www.w3.org/2000/svg">
<path d="M38.901 18.8995C38.901 19.4047 38.7079 19.905 38.3266 20.2914L29.3035 29.3165C22.6129 36.0085 11.7228 36.0085 5.03227 29.3165C1.78851 26.072 0.00569153 21.7625 0.00569153 17.1757C0.00569153 12.5888 1.79347 8.27938 5.03227 5.0349C8.27602 1.79042 12.5845 0.00717545 17.1703 0.00717545C21.7562 0.00717545 26.0647 1.79537 29.3084 5.0349C30.076 5.80268 30.076 7.05093 29.3084 7.81871C28.5408 8.58649 27.2928 8.58649 26.5252 7.81871C24.0293 5.32219 20.7063 3.94514 17.1703 3.94514C13.6394 3.94514 10.3164 5.32219 7.81546 7.81871C5.3195 10.3152 3.94277 13.6389 3.94277 17.1757C3.94277 20.7075 5.3195 24.0312 7.81546 26.5327C12.9708 31.6892 21.3649 31.6892 26.5203 26.5327L35.5434 17.5076C36.311 16.7398 37.5589 16.7398 38.3266 17.5076C38.7079 17.889 38.901 18.3942 38.901 18.8995Z" fill="#53DBFF"/>
<path d="M24.9893 11.3149C24.9893 11.8201 24.7961 12.3204 24.4148 12.7068C23.6472 13.4745 22.3992 13.4745 21.6316 12.7068C19.1703 10.2449 15.159 10.2449 12.6977 12.7068C11.5042 13.9005 10.8455 15.4856 10.8455 17.1747C10.8455 18.8638 11.5042 20.4489 12.6977 21.6427C13.8912 22.8365 15.4759 23.4953 17.1647 23.4953C18.8534 23.4953 20.4381 22.8365 21.6316 21.6427C22.3992 20.8749 23.6472 20.8749 24.4148 21.6427C25.1824 22.4105 25.1824 23.6588 24.4148 24.4265C22.4785 26.3633 19.9033 27.4283 17.1647 27.4283C14.426 27.4283 11.8508 26.3633 9.91449 24.4265C7.97815 22.4897 6.91341 19.914 6.91341 17.1747C6.91341 14.4355 7.97815 11.8597 9.91449 9.92294C13.911 5.92554 20.4183 5.92554 24.4148 9.92294C24.7961 10.3093 24.9893 10.8146 24.9893 11.3149Z" fill="#25A9FA"/>
<path d="M65.5535 17.1747C65.5535 21.7616 63.7657 26.071 60.5269 29.3155C53.8364 36.0076 42.9463 36.0076 36.2557 29.3155C35.4881 28.5477 35.4881 27.2995 36.2557 26.5317C37.0233 25.7639 38.2713 25.7639 39.0389 26.5317C44.1942 31.6882 52.5884 31.6882 57.7437 26.5317C60.2397 24.0352 61.6164 20.7114 61.6164 17.1747C61.6164 13.6429 60.2397 10.3192 57.7437 7.81774C55.2478 5.32122 51.9248 3.94417 48.3888 3.94417C44.8578 3.94417 41.5349 5.32122 39.0339 7.81774L30.0109 16.8428C29.2432 17.6106 27.9953 17.6106 27.2277 16.8428C26.4601 16.0751 26.4601 14.8268 27.2277 14.059L36.2508 5.03392C42.9413 -1.65814 53.8314 -1.65814 60.5269 5.03392C63.7707 8.27841 65.5535 12.5928 65.5535 17.1747Z" fill="#25A9FA"/>
<path d="M58.6451 17.1747C58.6451 19.914 57.5803 22.4897 55.644 24.4265C53.7076 26.3633 51.1324 27.4283 48.3938 27.4283C45.6552 27.4283 43.08 26.3633 41.1437 24.4265C40.376 23.6588 40.376 22.4105 41.1437 21.6427C41.9113 20.8749 43.1592 20.8749 43.9268 21.6427C45.1203 22.8365 46.7051 23.4953 48.3938 23.4953C50.0826 23.4953 51.6673 22.8365 52.8608 21.6427C54.0543 20.4489 54.7129 18.8638 54.7129 17.1747C54.7129 15.4856 54.0543 13.9005 52.8608 12.7068C50.3995 10.2449 46.3881 10.2449 43.9268 12.7068C43.1592 13.4745 41.9113 13.4745 41.1437 12.7068C40.376 11.939 40.376 10.6907 41.1437 9.92294C45.1402 5.92554 51.6475 5.92554 55.644 9.92294C57.5803 11.8597 58.6451 14.4355 58.6451 17.1747Z" fill="#28AAD6"/>
<g opacity="0.2">
<path opacity="0.2" d="M38.3258 20.3005C38.6923 19.934 38.8805 19.4584 38.9003 18.973C37.37 19.186 35.9437 19.8944 34.8394 20.999L28.0449 27.795C22.1219 33.7193 12.4699 33.8927 6.50237 28.013C0.485327 22.0838 0.460567 12.3998 6.41818 6.43592C11.8211 1.03175 20.2846 0.54632 26.2373 4.98953C27.3069 5.78703 28.5599 6.28732 29.8772 6.4062C29.8673 5.91581 29.6791 5.42543 29.3027 5.04897C26.059 1.80449 21.7505 0.0212746 17.1647 0.0212746C12.5788 0.0212746 8.27034 1.80944 5.02658 5.04897C1.78283 8.29346 0 12.6029 0 17.1898C0 21.7767 1.78778 26.0861 5.02658 29.3306C11.7171 36.0227 22.6072 36.0227 29.2978 29.3306L38.3258 20.3005Z" fill="url(#paint0_linear)"/>
<path opacity="0.2" d="M6.41819 6.41095C0.45563 12.3749 0.485343 22.0588 6.50238 27.988C12.4699 33.8677 22.1219 33.6993 28.0449 27.77L34.8394 20.974C35.9438 19.8694 37.37 19.166 38.9003 18.948C38.9003 18.9233 38.9052 18.9034 38.9052 18.8787C38.9052 18.3734 38.7121 17.8731 38.3308 17.4868C37.5632 16.719 36.3152 16.719 35.5476 17.4868L26.5245 26.5119C21.3692 31.6684 12.975 31.6684 7.81969 26.5119C5.32374 24.0154 3.94699 20.6916 3.94699 17.1549C3.94699 13.6231 5.32374 10.2994 7.81969 7.7979C10.3156 5.30138 13.6386 3.92433 17.1746 3.92433C20.7056 3.92433 24.0285 5.30138 26.5295 7.7979C27.2971 8.56567 28.545 8.56567 29.3127 7.7979C29.7039 7.40658 29.897 6.88647 29.8871 6.37131C28.5698 6.25243 27.3169 5.74719 26.2472 4.95464C20.2846 0.521341 11.8211 1.00182 6.41819 6.41095Z" fill="url(#paint1_linear)"/>
</g>
<g opacity="0.2">
<path opacity="0.2" d="M10.9 11.726C8.2109 14.8169 8.2109 19.4979 10.9 22.5888C13.6931 25.7937 18.3037 26.3038 21.6712 24.1095C22.6617 23.4655 23.8106 23.1089 24.9843 23.0346C24.9893 22.5244 24.7961 22.0192 24.4099 21.6279C23.6422 20.8601 22.3943 20.8601 21.6267 21.6279C20.4332 22.8216 18.8484 23.4804 17.1597 23.4804C15.471 23.4804 13.8862 22.8216 12.6927 21.6279C11.4992 20.4341 10.8406 18.849 10.8406 17.1599C10.8406 15.4708 11.4992 13.8857 12.6927 12.6919C15.154 10.2301 19.1654 10.2301 21.6267 12.6919C22.3943 13.4597 23.6422 13.4597 24.4099 12.6919C24.7961 12.3055 24.9843 11.8052 24.9843 11.3C24.9843 11.295 24.9843 11.2851 24.9843 11.2802C23.8057 11.2059 22.6617 10.8492 21.6712 10.2053C18.3086 8.01095 13.6931 8.52112 10.9 11.726Z" fill="url(#paint2_linear)"/>
<path opacity="0.2" d="M9.90955 9.90807C7.9732 11.8449 6.90846 14.4206 6.90846 17.1599C6.90846 19.8991 7.9732 22.4749 9.90955 24.4117C11.8459 26.3485 14.4211 27.4184 17.1597 27.4184C19.8983 27.4184 22.4735 26.3534 24.4099 24.4117C24.7912 24.0303 24.9843 23.53 24.9843 23.0297C23.8057 23.104 22.6617 23.4606 21.6712 24.1046C18.3037 26.294 13.6931 25.7887 10.9 22.5839C8.21091 19.4929 8.21091 14.812 10.9 11.721C13.6931 8.51618 18.3037 8.00597 21.6712 10.2003C22.6617 10.8443 23.8106 11.2009 24.9843 11.2752C24.9794 10.7799 24.7862 10.2845 24.4099 9.90311C20.4134 5.91066 13.911 5.91066 9.90955 9.90807Z" fill="url(#paint3_linear)"/>
</g>
<g opacity="0.2">
<path opacity="0.2" d="M59.1354 27.9038C65.0979 21.9399 65.0682 12.256 59.0512 6.32676C53.0836 0.447063 43.4316 0.61548 37.5087 6.54471L30.7141 13.3408C29.6098 14.4454 28.1835 15.1488 26.6533 15.3667C26.6334 15.8967 26.8216 16.4317 27.2277 16.8329C27.9953 17.6007 29.2433 17.6007 30.0109 16.8329L39.034 7.80783C41.5299 5.31131 44.8529 3.93425 48.3889 3.93425C51.9199 3.93425 55.2428 5.31131 57.7437 7.80783C60.2397 10.3043 61.6164 13.6281 61.6164 17.1648C61.6164 20.6966 60.2397 24.0203 57.7437 26.5218C52.5884 31.6783 44.1943 31.6783 39.0389 26.5218C38.2713 25.754 37.0234 25.754 36.2558 26.5218C35.8645 26.9131 35.6763 27.4283 35.6813 27.9385C36.9986 28.0574 38.2515 28.5626 39.3212 29.3552C45.2689 33.7934 53.7324 33.308 59.1354 27.9038Z" fill="url(#paint4_linear)"/>
<path opacity="0.2" d="M27.2333 14.0491C26.8669 14.4157 26.6787 14.8863 26.6589 15.3667C28.1891 15.1537 29.6154 14.4454 30.7198 13.3408L37.5143 6.54472C43.4373 0.620435 53.0893 0.447064 59.0568 6.32676C65.0738 12.256 65.0986 21.9399 59.141 27.9038C53.738 33.308 45.2746 33.7934 39.3219 29.3502C38.2522 28.5527 36.9993 28.0524 35.682 27.9335C35.6869 28.4289 35.88 28.9242 36.2564 29.3007C42.947 35.9928 53.8371 35.9928 60.5276 29.3007C63.7714 26.0562 65.5542 21.7467 65.5542 17.1599C65.5542 12.573 63.7664 8.26354 60.5276 5.01906C53.8371 -1.673 42.947 -1.673 36.2515 5.01906L27.2333 14.0491Z" fill="url(#paint5_linear)"/>
</g>
<g opacity="0.2">
<path opacity="0.2" d="M54.708 17.1599C54.708 18.849 54.0493 20.4341 52.8558 21.6279C51.6623 22.8216 50.0776 23.4804 48.3889 23.4804C46.7001 23.4804 45.1154 22.8216 43.9219 21.6279C43.1543 20.8601 41.9063 20.8601 41.1387 21.6279C40.7524 22.0142 40.5593 22.5244 40.5643 23.0346C41.7429 23.1089 42.8869 23.4655 43.8773 24.1095C47.2449 26.2989 51.8555 25.7937 54.6486 22.5888C57.3377 19.4979 57.3377 14.8169 54.6486 11.726C51.8555 8.52112 47.2449 8.01095 43.8773 10.2053C42.8869 10.8492 41.738 11.2059 40.5643 11.2802C40.5593 11.7904 40.7524 12.3006 41.1387 12.6919C41.9063 13.4597 43.1543 13.4597 43.9219 12.6919C46.3832 10.2301 50.3946 10.2301 52.8558 12.6919C54.0543 13.8857 54.708 15.4708 54.708 17.1599Z" fill="white"/>
<path opacity="0.2" d="M54.6545 11.726C57.3436 14.8169 57.3436 19.4979 54.6545 22.5888C51.8614 25.7937 47.2509 26.3039 43.8833 24.1095C42.8928 23.4656 41.7439 23.1089 40.5702 23.0346C40.5752 23.5349 40.7633 24.0352 41.1447 24.4166C43.081 26.3534 45.6562 27.4233 48.3948 27.4233C51.1335 27.4233 53.7086 26.3584 55.645 24.4166C57.5813 22.4799 58.6461 19.9041 58.6461 17.1648C58.6461 14.4256 57.5813 11.8498 55.645 9.91303C51.6485 5.91563 45.1412 5.91563 41.1447 9.91303C40.7633 10.2944 40.5752 10.7898 40.5702 11.2851C41.7489 11.2108 42.8928 10.8542 43.8833 10.2102C47.2509 8.01091 51.8614 8.52111 54.6545 11.726Z" fill="white"/>
</g>
<path d="M9.41957 43.0986H7.94073V46.4638H6.66565V37.9851H10.0308C10.3814 37.9851 10.7122 38.053 11.0233 38.1889C11.3388 38.3203 11.6104 38.5022 11.8383 38.7344C12.0661 38.9622 12.248 39.2339 12.3838 39.5494C12.5196 39.8605 12.5876 40.1913 12.5876 40.5419C12.5876 41.037 12.489 41.4401 12.2918 41.7512C12.0946 42.0579 11.8777 42.3011 11.6411 42.4808C11.3651 42.6955 11.0518 42.8576 10.7012 42.9671L12.7847 46.4638H11.3716L9.41957 43.0986ZM7.94073 41.8892H10.0308C10.2017 41.8892 10.3616 41.8542 10.5106 41.7841C10.664 41.7096 10.7976 41.6132 10.9115 41.4949C11.0299 41.3722 11.1241 41.2298 11.1942 41.0677C11.2687 40.9055 11.3059 40.7303 11.3059 40.5419C11.3059 40.3534 11.2687 40.1782 11.1942 40.016C11.1241 39.8539 11.0299 39.7137 10.9115 39.5954C10.7976 39.4727 10.664 39.3763 10.5106 39.3062C10.3616 39.2317 10.2017 39.1945 10.0308 39.1945H7.94073V41.8892Z" fill="black"/>
<path d="M15.2035 46.4638H13.9941V40.4038H15.2035V46.4638ZM14.5988 39.4639C14.3928 39.4639 14.2176 39.3938 14.073 39.2536C13.9284 39.109 13.8561 38.9316 13.8561 38.7212C13.8561 38.5153 13.9284 38.3422 14.073 38.202C14.2176 38.0574 14.3928 37.9851 14.5988 37.9851C14.8047 37.9851 14.98 38.0574 15.1246 38.202C15.2692 38.3422 15.3415 38.5153 15.3415 38.7212C15.3415 38.9272 15.2692 39.1025 15.1246 39.2471C14.98 39.3916 14.8047 39.4639 14.5988 39.4639Z" fill="black"/>
<path d="M19.3113 41.5475H16.4128V40.4038H20.7902V41.4817L17.8982 45.3201H20.9282V46.4638H16.4128V45.3859L19.3113 41.5475Z" fill="black"/>
<path d="M24.6877 40.3381C24.9944 40.3381 25.2573 40.3753 25.4764 40.4498C25.6955 40.5199 25.8774 40.5944 26.022 40.6733C26.1841 40.7741 26.3221 40.888 26.436 41.0151L26.7055 40.4038H27.5797V48.6196H26.3703V45.8591C26.252 45.9862 26.114 46.0979 25.9562 46.1943C25.8116 46.2819 25.6364 46.3608 25.4304 46.4309C25.2245 46.4966 24.9769 46.5295 24.6877 46.5295C24.2846 46.5295 23.9078 46.455 23.5572 46.306C23.2067 46.1527 22.8978 45.9401 22.6305 45.6685C22.3676 45.3924 22.1616 45.066 22.0127 44.6892C21.8681 44.3123 21.7958 43.8939 21.7958 43.4338C21.7958 42.9781 21.8681 42.5618 22.0127 42.185C22.1616 41.8082 22.3676 41.4839 22.6305 41.2123C22.8978 40.9362 23.2067 40.7215 23.5572 40.5681C23.9078 40.4148 24.2846 40.3381 24.6877 40.3381ZM24.7534 45.3859C24.9857 45.3859 25.2069 45.3399 25.4173 45.2478C25.632 45.1514 25.8182 45.0156 25.9759 44.8403C26.1381 44.6651 26.2651 44.4591 26.3572 44.2225C26.4536 43.9859 26.5018 43.723 26.5018 43.4338C26.5018 43.1446 26.4536 42.8817 26.3572 42.6451C26.2651 42.4085 26.1381 42.2025 25.9759 42.0273C25.8182 41.852 25.632 41.7183 25.4173 41.6263C25.2069 41.5299 24.9857 41.4817 24.7534 41.4817C24.5212 41.4817 24.2999 41.5299 24.0896 41.6263C23.8793 41.7183 23.6931 41.852 23.5309 42.0273C23.3688 42.2025 23.2396 42.4107 23.1432 42.6517C23.0511 42.8883 23.0051 43.149 23.0051 43.4338C23.0051 43.723 23.0511 43.9859 23.1432 44.2225C23.2396 44.4591 23.3688 44.6651 23.5309 44.8403C23.6931 45.0156 23.8793 45.1514 24.0896 45.2478C24.2999 45.3399 24.5212 45.3859 24.7534 45.3859Z" fill="black"/>
<path d="M28.9336 40.2724C28.9336 39.9657 28.9993 39.6721 29.1308 39.3916C29.2666 39.1068 29.4594 38.8549 29.7092 38.6358C29.9633 38.4167 30.2635 38.2436 30.6096 38.1166C30.9558 37.9851 31.3392 37.9194 31.7598 37.9194C32.1629 37.9194 32.5332 37.9873 32.8706 38.1231C33.208 38.2546 33.4994 38.4408 33.7448 38.6818C33.9901 38.9184 34.1807 39.1967 34.3166 39.5165C34.4524 39.832 34.5203 40.1738 34.5203 40.5419H33.2387C33.2387 40.1037 33.1006 39.7488 32.8246 39.4771C32.5529 39.201 32.198 39.063 31.7598 39.063C31.5276 39.063 31.3151 39.0959 31.1223 39.1616C30.9295 39.2273 30.7652 39.3194 30.6293 39.4377C30.4935 39.556 30.3883 39.6874 30.3139 39.832C30.2437 39.9722 30.2087 40.119 30.2087 40.2724C30.2087 40.5703 30.3204 40.8004 30.5439 40.9625C30.7717 41.1202 31.05 41.2583 31.3786 41.3766C31.7116 41.4905 32.0731 41.6044 32.4631 41.7183C32.8575 41.8323 33.2189 41.9856 33.5476 42.1784C33.8806 42.3712 34.1588 42.6254 34.3823 42.9409C34.6101 43.252 34.7241 43.6638 34.7241 44.1765C34.7241 44.4832 34.654 44.7768 34.5137 45.0572C34.3735 45.3377 34.1742 45.5896 33.9156 45.8131C33.6615 46.0322 33.3526 46.2074 32.9889 46.3389C32.6252 46.466 32.2155 46.5295 31.7598 46.5295C31.3041 46.5295 30.8988 46.466 30.5439 46.3389C30.189 46.2074 29.8844 46.0278 29.6303 45.7999C29.3805 45.5677 29.1899 45.2917 29.0585 44.9718C28.9314 44.6475 28.8679 44.2926 28.8679 43.907H30.143C30.143 44.3846 30.2766 44.7505 30.5439 45.0046C30.8156 45.2588 31.2209 45.3859 31.7598 45.3859C32.3338 45.3859 32.7567 45.2697 33.0283 45.0375C33.3044 44.8053 33.4424 44.5183 33.4424 44.1765C33.4424 43.861 33.3307 43.6134 33.1072 43.4338C32.8837 43.2541 32.6055 43.1052 32.2725 42.9869C31.9395 42.8642 31.578 42.7459 31.188 42.6319C30.798 42.5136 30.4365 42.3625 30.1035 42.1784C29.7705 41.9944 29.4923 41.7556 29.2688 41.462C29.0453 41.1641 28.9336 40.7675 28.9336 40.2724Z" fill="black"/>
<path d="M37.6817 44.446C37.6817 44.7133 37.7716 44.9367 37.9512 45.1164C38.1309 45.296 38.3543 45.3859 38.6216 45.3859C38.6654 45.3859 38.7114 45.3837 38.7596 45.3793C38.8122 45.3749 38.8604 45.3683 38.9042 45.3596C38.9481 45.3508 38.9897 45.3377 39.0291 45.3201V46.398C38.9765 46.4243 38.913 46.4462 38.8385 46.4638C38.7027 46.5076 38.5427 46.5295 38.3587 46.5295C38.0914 46.5295 37.8417 46.4813 37.6094 46.3849C37.3816 46.2841 37.1822 46.1439 37.0113 45.9642C36.8404 45.7846 36.7068 45.5677 36.6104 45.3136C36.5184 45.0594 36.4724 44.7702 36.4724 44.446V41.5475H35.3945V40.4038H35.8677C36.0999 40.4038 36.2927 40.3293 36.4461 40.1804C36.5995 40.027 36.6761 39.8342 36.6761 39.602V38.7935H37.6817V40.4038H39.0291V41.5475H37.6817V44.446Z" fill="black"/>
<path d="M42.8018 46.5295C42.46 46.5295 42.1423 46.466 41.8488 46.3389C41.5596 46.2074 41.3032 46.0278 41.0798 45.7999C40.8607 45.5677 40.6876 45.2917 40.5605 44.9718C40.4379 44.6475 40.3765 44.2926 40.3765 43.907V40.4038H41.5859V43.907C41.5859 44.113 41.6231 44.3058 41.6976 44.4854C41.7765 44.6651 41.8794 44.8228 42.0065 44.9586C42.138 45.0901 42.2891 45.1953 42.46 45.2741C42.6309 45.3486 42.8106 45.3859 42.999 45.3859C43.1961 45.3859 43.3846 45.3486 43.5642 45.2741C43.7439 45.1953 43.9016 45.0901 44.0374 44.9586C44.1733 44.8228 44.2806 44.6651 44.3595 44.4854C44.4428 44.3058 44.4844 44.113 44.4844 43.907V40.4038H45.6937V46.4638H44.8196L44.5501 45.8591C44.4318 45.9862 44.2916 46.0979 44.1295 46.1943C43.9849 46.2819 43.803 46.3608 43.5839 46.4309C43.3692 46.4966 43.1085 46.5295 42.8018 46.5295Z" fill="black"/>
<path d="M49.8608 46.5295C49.4576 46.5295 49.0808 46.455 48.7303 46.306C48.3797 46.1527 48.0708 45.9401 47.8035 45.6685C47.5406 45.3924 47.3347 45.066 47.1857 44.6892C47.0411 44.3123 46.9688 43.8939 46.9688 43.4338C46.9688 42.9781 47.0411 42.5618 47.1857 42.185C47.3347 41.8082 47.5406 41.4839 47.8035 41.2123C48.0708 40.9362 48.3797 40.7215 48.7303 40.5681C49.0808 40.4148 49.4576 40.3381 49.8608 40.3381C50.15 40.3381 50.3975 40.3753 50.6035 40.4498C50.8094 40.5199 50.9847 40.5944 51.1293 40.6733C51.2914 40.7741 51.4294 40.888 51.5434 41.0151V37.9851H52.7527V46.4638H51.8786L51.6091 45.8591C51.4908 45.9862 51.3527 46.0979 51.195 46.1943C51.0504 46.2819 50.8686 46.3608 50.6495 46.4309C50.4304 46.4966 50.1675 46.5295 49.8608 46.5295ZM49.9265 41.4817C49.6943 41.4817 49.473 41.5299 49.2627 41.6263C49.0523 41.7183 48.8661 41.852 48.704 42.0273C48.5419 42.2025 48.4126 42.4107 48.3162 42.6517C48.2242 42.8883 48.1782 43.149 48.1782 43.4338C48.1782 43.723 48.2242 43.9859 48.3162 44.2225C48.4126 44.4591 48.5419 44.6651 48.704 44.8403C48.8661 45.0156 49.0523 45.1514 49.2627 45.2478C49.473 45.3399 49.6943 45.3859 49.9265 45.3859C50.1587 45.3859 50.38 45.3399 50.5903 45.2478C50.805 45.1514 50.9912 45.0156 51.149 44.8403C51.3111 44.6651 51.4382 44.4591 51.5302 44.2225C51.6266 43.9859 51.6748 43.723 51.6748 43.4338C51.6748 43.1446 51.6266 42.8817 51.5302 42.6451C51.4382 42.4085 51.3111 42.2025 51.149 42.0273C50.9912 41.852 50.805 41.7183 50.5903 41.6263C50.38 41.5299 50.1587 41.4817 49.9265 41.4817Z" fill="black"/>
<path d="M53.7649 40.4038H55.0465L56.7291 44.7812L58.4117 40.4038H59.6934L57.1301 46.8647C56.9942 47.2065 56.8606 47.4913 56.7291 47.7191C56.6021 47.9514 56.4618 48.1376 56.3085 48.2778C56.1595 48.4224 55.993 48.5254 55.809 48.5867C55.6249 48.6524 55.4168 48.6853 55.1846 48.6853C55.132 48.6853 55.0816 48.6831 55.0334 48.6787C54.9896 48.6743 54.9458 48.6678 54.9019 48.659C54.8581 48.6502 54.8165 48.6371 54.7771 48.6196V47.6074C55.1188 47.6074 55.3774 47.5351 55.5526 47.3905C55.7279 47.2503 55.8506 47.075 55.9207 46.8647L56.1245 46.26L53.7649 40.4038Z" fill="black"/>
<defs>
<linearGradient id="paint0_linear" x1="-0.00143617" y1="17.1813" x2="38.8969" y2="17.1813" gradientUnits="userSpaceOnUse">
<stop stop-color="white"/>
<stop offset="0.108" stop-color="#FAFAFA"/>
<stop offset="0.2318" stop-color="#ECECEC"/>
<stop offset="0.3633" stop-color="#D5D5D5"/>
<stop offset="0.5004" stop-color="#B5B5B5"/>
<stop offset="0.6417" stop-color="#8C8C8C"/>
<stop offset="0.7865" stop-color="#595959"/>
<stop offset="0.9316" stop-color="#1E1E1E"/>
<stop offset="1"/>
</linearGradient>
<linearGradient id="paint1_linear" x1="42.8833" y1="17.1316" x2="4.1074" y2="17.1316" gradientUnits="userSpaceOnUse">
<stop stop-color="white"/>
<stop offset="0.108" stop-color="#FAFAFA"/>
<stop offset="0.2318" stop-color="#ECECEC"/>
<stop offset="0.3633" stop-color="#D5D5D5"/>
<stop offset="0.5004" stop-color="#B5B5B5"/>
<stop offset="0.6417" stop-color="#8C8C8C"/>
<stop offset="0.7865" stop-color="#595959"/>
<stop offset="0.9316" stop-color="#1E1E1E"/>
<stop offset="1"/>
</linearGradient>
<linearGradient id="paint2_linear" x1="36.2782" y1="17.1563" x2="12.5524" y2="17.1563" gradientUnits="userSpaceOnUse">
<stop stop-color="white"/>
<stop offset="0.108" stop-color="#FAFAFA"/>
<stop offset="0.2318" stop-color="#ECECEC"/>
<stop offset="0.3633" stop-color="#D5D5D5"/>
<stop offset="0.5004" stop-color="#B5B5B5"/>
<stop offset="0.6417" stop-color="#8C8C8C"/>
<stop offset="0.7865" stop-color="#595959"/>
<stop offset="0.9316" stop-color="#1E1E1E"/>
<stop offset="1"/>
</linearGradient>
<linearGradient id="paint3_linear" x1="6.90826" y1="17.1629" x2="24.9897" y2="17.1629" gradientUnits="userSpaceOnUse">
<stop stop-color="white"/>
<stop offset="0.108" stop-color="#FAFAFA"/>
<stop offset="0.2318" stop-color="#ECECEC"/>
<stop offset="0.3633" stop-color="#D5D5D5"/>
<stop offset="0.5004" stop-color="#B5B5B5"/>
<stop offset="0.6417" stop-color="#8C8C8C"/>
<stop offset="0.7865" stop-color="#595959"/>
<stop offset="0.9316" stop-color="#1E1E1E"/>
<stop offset="1"/>
</linearGradient>
<linearGradient id="paint4_linear" x1="74.3492" y1="17.181" x2="35.3218" y2="17.181" gradientUnits="userSpaceOnUse">
<stop stop-color="white"/>
<stop offset="0.108" stop-color="#FAFAFA"/>
<stop offset="0.2318" stop-color="#ECECEC"/>
<stop offset="0.3633" stop-color="#D5D5D5"/>
<stop offset="0.5004" stop-color="#B5B5B5"/>
<stop offset="0.6417" stop-color="#8C8C8C"/>
<stop offset="0.7865" stop-color="#595959"/>
<stop offset="0.9316" stop-color="#1E1E1E"/>
<stop offset="1"/>
</linearGradient>
<linearGradient id="paint5_linear" x1="26.6587" y1="17.1604" x2="65.5566" y2="17.1604" gradientUnits="userSpaceOnUse">
<stop stop-color="white"/>
<stop offset="0.108" stop-color="#FAFAFA"/>
<stop offset="0.2318" stop-color="#ECECEC"/>
<stop offset="0.3633" stop-color="#D5D5D5"/>
<stop offset="0.5004" stop-color="#B5B5B5"/>
<stop offset="0.6417" stop-color="#8C8C8C"/>
<stop offset="0.7865" stop-color="#595959"/>
<stop offset="0.9316" stop-color="#1E1E1E"/>
<stop offset="1"/>
</linearGradient>
</defs>
</svg>
