<svg width="60" height="60" viewBox="0 0 60 60" fill="none" xmlns="http://www.w3.org/2000/svg">
<path d="M27.7976 30.175C28.5394 29.135 29.1188 27.9718 29.4995 26.7227C31.413 26.278 32.8448 24.4826 32.8612 22.3975C33.5736 21.8264 34.0309 20.9498 34.0309 19.9679C34.0309 18.9864 33.5739 18.11 32.862 17.5389V5.55374C32.862 4.4939 32.4923 3.47156 31.8208 2.67539C30.3773 0.963162 27.9577 0.688709 26.1933 2.03589L25.6259 2.46925C24.8074 0.970779 23.2659 0 21.5503 0H16.4694C15.9839 0 15.5905 0.393398 15.5905 0.878905C15.5905 1.36441 15.9839 1.75781 16.4694 1.75781H21.5503C22.8775 1.75781 24.0427 2.71464 24.3836 4.0848C24.4551 4.37191 24.6664 4.60394 24.9457 4.7019C25.2248 4.79999 25.5349 4.75054 25.77 4.57112L27.2602 3.433C28.2663 2.66484 29.6491 2.82644 30.477 3.80835C30.8815 4.28812 31.1043 4.90804 31.1043 5.55374V16.8604C30.9261 16.8498 30.921 16.8565 30.0175 16.8543C30.0159 15.9294 30.2328 13.7471 28.0206 12.2284C26.7885 11.3825 25.2038 11.1619 23.7809 11.6373C20.1917 12.838 16.8827 12.2247 13.6649 9.76357C10.6351 7.44596 6.07042 9.41365 6.07042 13.6308V16.8543C5.15601 16.8565 5.16186 16.8498 4.98374 16.8604V7.4994C4.98351 4.33347 7.41209 1.75781 10.3973 1.75781H12.9553C13.4408 1.75781 13.8342 1.36441 13.8342 0.878905C13.8342 0.393398 13.4408 0 12.9553 0H10.3973C6.44284 0 3.2257 3.36421 3.2257 7.4994V17.5389C2.51378 18.11 2.05675 18.9863 2.05675 19.9679C2.05675 20.9498 2.51414 21.8265 3.22652 22.3975C3.24269 24.4858 4.65913 26.2801 6.58839 26.7237C6.96913 27.9724 7.54838 29.1353 8.28994 30.1751C6.13147 30.9183 4.19507 32.2622 2.74253 34.0503C0.974061 36.227 0 38.9736 0 41.7834V58.2611C0 59.2199 0.779998 59.9999 1.73894 59.9999H23.0504C23.5359 59.9999 23.9293 59.6065 23.9293 59.121C23.9293 58.6355 23.5359 58.2421 23.0504 58.2421H1.75781V41.7834C1.75781 39.3759 2.59207 37.0231 4.10683 35.1585C5.38593 33.5841 7.10167 32.4114 9.01112 31.7865L11.6606 42.1725C11.9396 43.2662 13.1791 43.7953 14.1617 43.2422L18.0439 41.0567L21.926 43.2422C22.9088 43.7955 24.1482 43.266 24.4272 42.1725L27.0766 31.7863C28.986 32.4113 30.7018 33.584 31.9809 35.1584C33.4956 37.023 34.3299 39.3757 34.3299 41.7832V58.2421H26.5646C26.0791 58.2421 25.6857 58.6355 25.6857 59.121C25.6857 59.6065 26.0791 59.9999 26.5646 59.9999H34.3489C35.3077 59.9999 36.0877 59.2199 36.0877 58.2611V41.7834C36.0877 38.9734 35.1136 36.227 33.3452 34.0502C31.8924 32.2621 29.9561 30.9181 27.7976 30.175ZM29.9348 24.6398C30.0317 23.8125 30.0155 23.1493 30.0173 23.0814C31.0329 23.0799 30.8416 23.0844 31.0109 23.079C30.8425 23.7255 30.4536 24.2808 29.9348 24.6398ZM30.9174 18.6122C31.6649 18.6122 32.273 19.2202 32.273 19.9678C32.273 20.7153 31.6649 21.3235 30.9174 21.3235H30.0173V18.612H30.9174V18.6122ZM7.82811 13.6308C7.82811 10.8834 10.7073 9.71436 12.5967 11.1597C16.2615 13.9627 20.2119 14.684 24.3383 13.3045C25.2539 12.9983 26.2338 13.1341 27.0256 13.6777C27.777 14.1935 28.2595 15.0269 28.2595 16.0256V23.2378C28.2595 28.8706 23.6768 33.4534 18.0438 33.4534C12.4108 33.4534 7.82799 28.8707 7.82799 23.2378V13.6308H7.82811ZM18.0438 38.2904L16.1824 35.0663C16.7892 35.1615 17.4107 35.2113 18.0438 35.2113C18.6768 35.2113 19.2984 35.1615 19.9052 35.0663L18.0438 38.2904ZM6.0703 18.6122V21.3236H5.1703C4.42276 21.3236 3.81468 20.7154 3.81468 19.9679C3.81468 19.2204 4.42276 18.6123 5.1703 18.6123H6.0703V18.6122ZM5.07491 23.079C5.23663 23.0837 4.9371 23.0797 6.0703 23.0814C6.07089 23.106 6.04839 23.7509 6.15327 24.6439C5.63097 24.2851 5.24226 23.7284 5.07491 23.079ZM13.3496 41.6822L11.1384 33.014C11.9513 33.59 12.8392 34.0665 13.7838 34.4274L16.8385 39.7182L13.3496 41.6822ZM22.7381 41.6823L19.2493 39.718L22.3038 34.4273C23.2484 34.0665 24.1362 33.5899 24.9492 33.0139L22.7381 41.6823Z" fill="#2C87BF"/>
<path d="M12.9553 20.6199C13.4408 20.6199 13.8342 20.2265 13.8342 19.741V18.5171C13.8342 18.0316 13.4408 17.6382 12.9553 17.6382C12.4698 17.6382 12.0764 18.0316 12.0764 18.5171V19.7409C12.0764 20.2264 12.4698 20.6199 12.9553 20.6199Z" fill="#2C87BF"/>
<path d="M23.1325 20.6199C23.618 20.6199 24.0114 20.2265 24.0114 19.741V18.5171C24.0114 18.0316 23.618 17.6382 23.1325 17.6382C22.647 17.6382 22.2536 18.0316 22.2536 18.5171V19.7409C22.2536 20.2264 22.6471 20.6199 23.1325 20.6199Z" fill="#2C87BF"/>
<path d="M15.6448 26.0937C16.4296 26.5796 17.2365 26.8224 18.0439 26.8224C18.851 26.8224 19.6583 26.5794 20.4431 26.0937C20.8558 25.8382 20.9833 25.2966 20.7279 24.8839C20.4723 24.471 19.9307 24.3435 19.518 24.5991C18.5123 25.2216 17.5755 25.2215 16.5701 24.5991C16.1576 24.3435 15.6157 24.4709 15.3602 24.8839C15.1045 25.2965 15.2319 25.8382 15.6448 26.0937Z" fill="#2C87BF"/>
<path d="M30.7744 46.1104C30.7744 45.6248 30.381 45.2314 29.8955 45.2314H24.8074C24.3219 45.2314 23.9285 45.6248 23.9285 46.1104C23.9285 46.5959 24.3219 46.9893 24.8074 46.9893H29.8955C30.381 46.9893 30.7744 46.5959 30.7744 46.1104Z" fill="#2C87BF"/>
<path d="M57.7299 0H54.1624C53.6769 0 53.2835 0.393398 53.2835 0.878906C53.2835 1.36441 53.6769 1.75781 54.1624 1.75781H57.7299C58.0124 1.75781 58.2423 1.98762 58.2423 2.27016V17.3801C58.2423 17.6626 58.0124 17.8924 57.7299 17.8924H38.6743C38.3918 17.8924 38.1619 17.6626 38.1619 17.3801V14.8434C38.1619 14.5294 37.9943 14.2393 37.7224 14.0823L36.5943 13.4309L37.7224 12.7794C37.9943 12.6224 38.1619 12.3323 38.1619 12.0183V2.27027C38.1619 1.98773 38.3918 1.75793 38.6743 1.75793H50.6482C51.1337 1.75793 51.5271 1.36453 51.5271 0.879023C51.5271 0.393516 51.1337 0.000117187 50.6482 0.000117187H38.6743C37.4224 0.000117187 36.4041 1.01848 36.4041 2.27027V11.5111L34.397 12.67C34.1251 12.827 33.9576 13.117 33.9576 13.4311C33.9576 13.7452 34.1251 14.0352 34.397 14.1922L36.4041 15.3511V17.3802C36.4041 18.632 37.4224 19.6504 38.6743 19.6504H57.7297C58.9817 19.6504 60 18.632 60 17.3802V2.27027C60.0001 1.01848 58.9818 0 57.7299 0V0Z" fill="#2C87BF"/>
<path d="M48.5023 5.40678C47.9408 4.94213 47.0582 4.44385 45.8546 4.44385C43.8772 4.44385 42.3281 6.14846 42.3281 8.32439C42.3281 11.7022 45.949 14.0276 48.1073 15.1129C48.3561 15.2381 48.6491 15.2376 48.897 15.1129C51.0553 14.0276 54.6762 11.7023 54.6762 8.32439C54.6762 6.14846 53.1271 4.44385 51.1496 4.44385C49.9464 4.44385 49.0637 4.94213 48.5023 5.40678ZM52.9185 8.32451C52.9185 10.0251 51.3152 11.8384 48.5021 13.3381C45.6892 11.8384 44.0859 10.025 44.0859 8.32451C44.0859 7.29549 44.7059 6.20178 45.8546 6.20178C47.0868 6.20178 47.737 7.11244 47.7725 7.16354C47.9357 7.40646 48.2093 7.55248 48.5023 7.55248C48.7978 7.55248 49.0737 7.40377 49.2363 7.15697C49.2427 7.14748 49.9003 6.20178 51.1499 6.20178C52.2986 6.20166 52.9185 7.29537 52.9185 8.32451Z" fill="#2C87BF"/>
<path d="M18.9229 45.0942C18.9229 44.6087 18.5295 44.2153 18.044 44.2153C17.5585 44.2153 17.1651 44.6087 17.1651 45.0942V46.1922C17.1651 46.6777 17.5585 47.0711 18.044 47.0711C18.5295 47.0711 18.9229 46.6777 18.9229 46.1922V45.0942Z" fill="#2C87BF"/>
<path d="M18.9229 50.1387C18.9229 49.6532 18.5295 49.2598 18.044 49.2598C17.5585 49.2598 17.1651 49.6532 17.1651 50.1387V51.2366C17.1651 51.7221 17.5585 52.1155 18.044 52.1155C18.5295 52.1155 18.9229 51.7221 18.9229 51.2366V50.1387Z" fill="#2C87BF"/>
<path d="M18.044 54.3037C17.5585 54.3037 17.1651 54.6971 17.1651 55.1826V56.2807C17.1651 56.7662 17.5585 57.1596 18.044 57.1596C18.5295 57.1596 18.9229 56.7662 18.9229 56.2807V55.1826C18.9229 54.6972 18.5294 54.3037 18.044 54.3037Z" fill="#2C87BF"/>
</svg>
