<svg width="60" height="61" viewBox="0 0 60 61" fill="none" xmlns="http://www.w3.org/2000/svg">
<path d="M23.4375 41.8931H36.5625V43.7681H23.4375V41.8931Z" fill="#2C87BF"/>
<path d="M19.6875 41.8931H21.5625V43.7681H19.6875V41.8931Z" fill="#2C87BF"/>
<path d="M57.1875 6.26276H44.0625V5.32512C44.0603 4.57977 43.7632 3.86559 43.2363 3.33855C42.7093 2.81151 41.9952 2.51443 41.25 2.51221H18.75C18.0048 2.51443 17.2907 2.81151 16.7637 3.33855C16.2368 3.86559 15.9397 4.57977 15.9375 5.32512V9.07567H2.8125C2.56386 9.07567 2.3254 9.17446 2.14959 9.3503C1.97377 9.52614 1.875 9.76463 1.875 10.0133V21.265C1.875 21.5136 1.97377 21.7521 2.14959 21.928C2.3254 22.1038 2.56386 22.2026 2.8125 22.2026H15.9375V24.0779C14.6943 24.0779 13.502 24.5718 12.6229 25.451C11.7439 26.3302 11.25 27.5227 11.25 28.7661V32.601L13.125 52.2445V57.8328C13.125 58.0815 13.2238 58.32 13.3996 58.4958C13.5754 58.6717 13.8139 58.7704 14.0625 58.7704H34.6875C34.9361 58.7704 35.1746 58.6717 35.3504 58.4958C35.5262 58.32 35.625 58.0815 35.625 57.8328V52.507L39.1125 47.5188H41.25C41.9952 47.5166 42.7093 47.2195 43.2363 46.6925C43.7632 46.1654 44.0603 45.4512 44.0625 44.7059V43.7682H45C45.7632 43.771 46.5089 43.5399 47.1368 43.106C47.7647 42.6722 48.2447 42.0564 48.5123 41.3416C48.7798 40.6267 48.822 39.847 48.6332 39.1075C48.4444 38.3679 48.0337 37.7039 47.4562 37.2048C47.862 36.857 48.1877 36.4255 48.411 35.94C48.6343 35.4544 48.7499 34.9263 48.7499 34.3919C48.7499 33.8574 48.6343 33.3293 48.411 32.8438C48.1877 32.3582 47.862 31.9268 47.4562 31.579C47.862 31.2312 48.1877 30.7997 48.411 30.3142C48.6343 29.8286 48.7499 29.3005 48.7499 28.7661C48.7499 28.2316 48.6343 27.7035 48.411 27.2179C48.1877 26.7324 47.862 26.3009 47.4562 25.9531C48.0337 25.454 48.4444 24.79 48.6332 24.0505C48.822 23.3109 48.7798 22.5312 48.5123 21.8164C48.2447 21.1015 47.7647 20.4857 47.1368 20.0519C46.5089 19.618 45.7632 19.3869 45 19.3897H44.0625V17.5144H57.1875C57.4361 17.5144 57.6746 17.4156 57.8504 17.2398C58.0262 17.0639 58.125 16.8254 58.125 16.5768V7.20039C58.125 6.95172 58.0262 6.71323 57.8504 6.53738C57.6746 6.36154 57.4361 6.26276 57.1875 6.26276ZM37.2375 4.38748L36.9469 5.55015C36.8966 5.75343 36.7798 5.93404 36.615 6.06319C36.4502 6.19234 36.2469 6.26259 36.0375 6.26276H23.9625C23.7531 6.26259 23.5498 6.19234 23.385 6.06319C23.2202 5.93404 23.1034 5.75343 23.0531 5.55015L22.7625 4.38748H37.2375ZM3.75 20.3273V10.9509H20.625V20.3273H3.75ZM33.75 56.8952H15V53.1446H33.75V56.8952ZM34.2 51.2693H14.9156L13.125 32.5166V28.7661C13.1272 28.0207 13.4243 27.3065 13.9512 26.7795C14.4782 26.2524 15.1923 25.9554 15.9375 25.9531H22.5C23.2459 25.9531 23.9613 26.2495 24.4887 26.777C25.0162 27.3045 25.3125 28.02 25.3125 28.7661C25.3125 29.5121 25.0162 30.2276 24.4887 30.7551C23.9613 31.2826 23.2459 31.579 22.5 31.579H16.875C16.6264 31.579 16.3879 31.6777 16.2121 31.8536C16.0363 32.0294 15.9375 32.2679 15.9375 32.5166V44.7059C15.9397 45.4512 16.2368 46.1654 16.7637 46.6925C17.2907 47.2195 18.0048 47.5166 18.75 47.5188H36.825L34.2 51.2693ZM42.1875 44.7059C42.1875 44.9546 42.0887 45.1931 41.9129 45.3689C41.7371 45.5447 41.4986 45.6435 41.25 45.6435H18.75C18.5014 45.6435 18.2629 45.5447 18.0871 45.3689C17.9113 45.1931 17.8125 44.9546 17.8125 44.7059V33.4542H22.5C23.7432 33.4542 24.9355 32.9603 25.8146 32.0811C26.6936 31.2019 27.1875 30.0094 27.1875 28.7661C27.1875 27.5227 26.6936 26.3302 25.8146 25.451C24.9355 24.5718 23.7432 24.0779 22.5 24.0779H17.8125V22.2026H21.5625C21.8111 22.2026 22.0496 22.1038 22.2254 21.928C22.4012 21.7521 22.5 21.5136 22.5 21.265V10.0133C22.5 9.76463 22.4012 9.52614 22.2254 9.3503C22.0496 9.17446 21.8111 9.07567 21.5625 9.07567H17.8125V5.32512C17.8125 5.07644 17.9113 4.83795 18.0871 4.66211C18.2629 4.48627 18.5014 4.38748 18.75 4.38748H20.8312L21.2344 6.00959C21.3869 6.6177 21.7382 7.15742 22.2325 7.54303C22.7267 7.92865 23.3356 8.13807 23.9625 8.13803H36.0375C36.6644 8.13807 37.2733 7.92865 37.7675 7.54303C38.2618 7.15742 38.6131 6.6177 38.7656 6.00959L39.1687 4.38748H41.25C41.4986 4.38748 41.7371 4.48627 41.9129 4.66211C42.0887 4.83795 42.1875 5.07644 42.1875 5.32512V6.26276H40.3125C40.0639 6.26276 39.8254 6.36154 39.6496 6.53738C39.4738 6.71323 39.375 6.95172 39.375 7.20039V16.5768C39.375 16.8254 39.4738 17.0639 39.6496 17.2398C39.8254 17.4156 40.0639 17.5144 40.3125 17.5144H42.1875V19.3897H41.25C40.4868 19.3869 39.7411 19.618 39.1132 20.0519C38.4853 20.4857 38.0053 21.1015 37.7377 21.8164C37.4702 22.5312 37.428 23.3109 37.6168 24.0505C37.8056 24.79 38.2163 25.454 38.7938 25.9531C38.388 26.3009 38.0623 26.7324 37.839 27.2179C37.6157 27.7035 37.5001 28.2316 37.5001 28.7661C37.5001 29.3005 37.6157 29.8286 37.839 30.3142C38.0623 30.7997 38.388 31.2312 38.7938 31.579C38.388 31.9268 38.0623 32.3582 37.839 32.8438C37.6157 33.3293 37.5001 33.8574 37.5001 34.3919C37.5001 34.9263 37.6157 35.4544 37.839 35.94C38.0623 36.4255 38.388 36.857 38.7938 37.2048C38.2163 37.7039 37.8056 38.3679 37.6168 39.1075C37.428 39.847 37.4702 40.6267 37.7377 41.3416C38.0053 42.0564 38.4853 42.6722 39.1132 43.106C39.7411 43.5399 40.4868 43.771 41.25 43.7682H42.1875V44.7059ZM45 41.893H41.25C40.7527 41.893 40.2758 41.6954 39.9242 41.3437C39.5725 40.992 39.375 40.5151 39.375 40.0177C39.375 39.5203 39.5725 39.0434 39.9242 38.6917C40.2758 38.34 40.7527 38.1424 41.25 38.1424H45C45.4973 38.1424 45.9742 38.34 46.3258 38.6917C46.6775 39.0434 46.875 39.5203 46.875 40.0177C46.875 40.5151 46.6775 40.992 46.3258 41.3437C45.9742 41.6954 45.4973 41.893 45 41.893ZM45 36.2672H41.25C40.7527 36.2672 40.2758 36.0696 39.9242 35.7179C39.5725 35.3662 39.375 34.8892 39.375 34.3919C39.375 33.8945 39.5725 33.4175 39.9242 33.0659C40.2758 32.7142 40.7527 32.5166 41.25 32.5166H45C45.4973 32.5166 45.9742 32.7142 46.3258 33.0659C46.6775 33.4175 46.875 33.8945 46.875 34.3919C46.875 34.8892 46.6775 35.3662 46.3258 35.7179C45.9742 36.0696 45.4973 36.2672 45 36.2672ZM45 30.6413H41.25C40.7527 30.6413 40.2758 30.4438 39.9242 30.0921C39.5725 29.7404 39.375 29.2634 39.375 28.7661C39.375 28.2687 39.5725 27.7917 39.9242 27.44C40.2758 27.0884 40.7527 26.8908 41.25 26.8908H45C45.4973 26.8908 45.9742 27.0884 46.3258 27.44C46.6775 27.7917 46.875 28.2687 46.875 28.7661C46.875 29.2634 46.6775 29.7404 46.3258 30.0921C45.9742 30.4438 45.4973 30.6413 45 30.6413ZM45 21.265C45.4973 21.265 45.9742 21.4625 46.3258 21.8142C46.6775 22.1659 46.875 22.6429 46.875 23.1402C46.875 23.6376 46.6775 24.1146 46.3258 24.4662C45.9742 24.8179 45.4973 25.0155 45 25.0155H41.25C40.7527 25.0155 40.2758 24.8179 39.9242 24.4662C39.5725 24.1146 39.375 23.6376 39.375 23.1402C39.375 22.6429 39.5725 22.1659 39.9242 21.8142C40.2758 21.4625 40.7527 21.265 41.25 21.265H45ZM56.25 15.6391H41.25V8.13803H56.25V15.6391Z" fill="#2C87BF"/>
<path d="M5.625 12.8267H7.5V14.7017H5.625V12.8267Z" fill="#2C87BF"/>
<path d="M9.375 12.8267H18.75V14.7017H9.375V12.8267Z" fill="#2C87BF"/>
<path d="M5.625 16.5771H18.75V18.4521H5.625V16.5771Z" fill="#2C87BF"/>
<path d="M43.125 10.9512H46.875V12.8262H43.125V10.9512Z" fill="#2C87BF"/>
<path d="M48.75 10.9512H54.375V12.8262H48.75V10.9512Z" fill="#2C87BF"/>
</svg>
