<svg width="60" height="60" viewBox="0 0 60 60" fill="none" xmlns="http://www.w3.org/2000/svg">
<path d="M28.0645 23.2256H7.74193V25.1611H28.0645V23.2256Z" fill="#2C87BF"/>
<path d="M55.1613 11.6129H42.5806V0H3.87097V11.7106C1.66548 12.1606 0 14.1155 0 16.4516V49.3548C0 52.0229 2.17065 54.1935 4.83871 54.1935H13.5484V58.0645H9.67742V60H50.3226V58.0645H46.4516V54.1935H55.1613C57.8294 54.1935 60 52.0229 60 49.3548V16.4516C60 13.7835 57.8294 11.6129 55.1613 11.6129ZM43.5484 18.3871C43.5484 21.0552 41.3777 23.2258 38.7097 23.2258C36.0416 23.2258 33.871 21.0552 33.871 18.3871C33.871 15.719 36.0416 13.5484 38.7097 13.5484C41.3777 13.5484 43.5484 15.719 43.5484 18.3871ZM32.7958 30.9677C32.4397 30.6194 32.0429 30.3135 31.6161 30.0494L34.9626 24.0261C36.0368 24.7423 37.3248 25.1613 38.7097 25.1613C39.3823 25.1613 40.0316 25.0597 40.6452 24.8758V30.9677H32.7958ZM32.9032 35.8064C32.9032 38.4745 30.7326 40.6452 28.0645 40.6452C25.3965 40.6452 23.2258 38.4745 23.2258 35.8064C23.2258 33.1384 25.3965 30.9677 28.0645 30.9677C30.7326 30.9677 32.9032 33.1384 32.9032 35.8064ZM32.0129 19.3548H9.67742V5.80645H36.7742V11.8984C33.9794 12.7335 31.9355 15.3252 31.9355 18.3871C31.9355 18.7161 31.9674 19.0374 32.0129 19.3548ZM5.80645 1.93548H40.6452V11.8984C40.0316 11.7145 39.3823 11.6129 38.7097 11.6129V3.87097H7.74194V21.2903H32.5984C32.8394 21.7955 33.1345 22.2706 33.4877 22.6974L29.8335 29.2752C29.2684 29.1213 28.6771 29.0323 28.0645 29.0323C26.2239 29.0323 24.5545 29.7726 23.3332 30.9677H5.80645V1.93548ZM44.5161 58.0645H15.4839V54.1935H44.5161V58.0645ZM58.0645 49.3548C58.0645 50.9555 56.7619 52.2581 55.1613 52.2581H4.83871C3.23806 52.2581 1.93548 50.9555 1.93548 49.3548V48.3871H58.0645V49.3548ZM58.0645 46.4516H1.93548V16.4516C1.93548 15.1916 2.74742 14.1271 3.87097 13.7265V32.9032H21.9532C21.5332 33.7848 21.2903 34.7671 21.2903 35.8064C21.2903 39.541 24.329 42.5806 28.0645 42.5806C31.8 42.5806 34.8387 39.541 34.8387 35.8064C34.8387 34.7671 34.5958 33.7848 34.1758 32.9032H42.5806V26.6003L45.0619 30.571C43.5484 31.8145 42.5806 33.6997 42.5806 35.8064C42.5806 39.541 45.6194 42.5806 49.3548 42.5806C53.0903 42.5806 56.129 39.541 56.129 35.8064C56.129 32.0719 53.0903 29.0323 49.3548 29.0323C48.42 29.0323 47.5287 29.2229 46.7177 29.5665L43.0026 23.6226C44.5161 22.379 45.4839 20.4939 45.4839 18.3871C45.4839 16.4923 44.7 14.7794 43.441 13.5484H55.1613C56.7619 13.5484 58.0645 14.851 58.0645 16.4516V46.4516ZM49.3548 30.9677C52.0229 30.9677 54.1935 33.1384 54.1935 35.8064C54.1935 38.4745 52.0229 40.6452 49.3548 40.6452C46.6868 40.6452 44.5161 38.4745 44.5161 35.8064C44.5161 33.1384 46.6868 30.9677 49.3548 30.9677Z" fill="#2C87BF"/>
<path d="M28.0645 27.0967H26.129V29.0322H28.0645V27.0967Z" fill="#2C87BF"/>
<path d="M24.1935 27.0967H7.74193V29.0322H24.1935V27.0967Z" fill="#2C87BF"/>
</svg>
