<svg width="111" height="92" viewBox="0 0 111 92" fill="none" xmlns="http://www.w3.org/2000/svg">
<path d="M17.2264 87.8168C14.616 90.5881 10.4022 90.5881 7.79176 87.8168C5.19458 85.0456 5.19458 80.5353 7.79176 77.75L17.73 67.1458C20.3404 64.3746 24.5542 64.3746 27.1647 67.1458C29.7618 69.9312 29.7618 74.4273 27.1647 77.2127L17.2264 87.8168Z" fill="#151619"/>
<path d="M68.1631 87.8168C70.7735 90.5881 74.9873 90.5881 77.5978 87.8168C80.1949 85.0456 80.1949 80.5353 77.5978 77.75L67.6595 67.1458C65.0624 64.3746 60.8353 64.3746 58.2249 67.1458C55.6277 69.9312 55.6277 74.4273 58.2249 77.2127L68.1631 87.8168Z" fill="#151619"/>
<path d="M62.7567 65.0674H22.328V89.5984H62.7567V65.0674Z" fill="#151619"/>
<path d="M32.9421 65.0674C32.9421 72.6741 42.549 82.3591 42.549 82.3591C42.549 82.3591 52.156 72.6741 52.156 65.0674H32.9421Z" fill="white"/>
<path d="M23.5206 42.4592C23.5206 45.2729 21.3872 47.5493 18.7503 47.5493C16.1134 47.5493 13.9799 45.2729 13.9799 42.4592C13.9799 39.6455 16.1134 37.3691 18.7503 37.3691C21.3872 37.3691 23.5206 39.6455 23.5206 42.4592Z" fill="#F0BC80"/>
<path d="M71.1181 42.4591C71.1181 45.2727 68.9847 47.5491 66.3477 47.5491C63.7108 47.5491 61.5774 45.2727 61.5774 42.4591C61.5774 39.6455 63.7108 37.3691 66.3477 37.3691C68.9847 37.3691 71.1181 39.6455 71.1181 42.4591Z" fill="#F0BC80"/>
<path d="M50.0491 67.598C50.0491 71.9245 46.7496 75.4451 42.6948 75.4451C38.64 75.4451 35.3538 71.9386 35.3538 67.598V64.2612C35.3538 59.9347 38.64 56.4282 42.6948 56.4282C46.7496 56.4282 50.0491 59.9347 50.0491 64.2612V67.598Z" fill="#F0BC80"/>
<path d="M66.467 39.5322C66.467 53.6146 55.7602 65.053 42.549 65.053C29.3378 65.053 18.631 53.6287 18.631 39.5322V26.086C18.631 11.9895 29.3378 0.565186 42.549 0.565186C55.7602 0.565186 66.467 11.9895 66.467 26.086V39.5322Z" fill="#FFD097"/>
<path d="M54.3689 34.852C55.8927 34.852 57.2841 35.3892 58.4105 36.3081C57.6154 34.8096 56.1048 33.7917 54.3689 33.7917C52.633 33.7917 51.1357 34.8096 50.3274 36.3081C51.4537 35.3892 52.8583 34.852 54.3689 34.852Z" fill="#151619"/>
<path d="M30.9147 35.2907C29.4041 35.2907 27.9995 35.8279 26.8731 36.7327C27.6682 35.2342 29.1788 34.2305 30.9147 34.2305C32.6506 34.2305 34.1612 35.2342 34.9562 36.7327C33.8299 35.8279 32.4386 35.2907 30.9147 35.2907Z" fill="#151619"/>
<path d="M56.6613 41.1162C56.6613 42.9257 55.27 44.396 53.5606 44.396C51.8512 44.396 50.4599 42.9257 50.4599 41.1162H56.6613Z" fill="black"/>
<path d="M28.5163 41.1162C28.5163 42.9257 29.9076 44.396 31.617 44.396C33.3264 44.396 34.7177 42.9257 34.7177 41.1162H28.5163Z" fill="black"/>
<path d="M37.2487 54.4631C37.2487 57.6163 39.6471 60.1614 42.5888 60.1614C45.5305 60.1614 47.9289 57.6163 47.9289 54.4631H37.2487Z" fill="#FD6220"/>
<path d="M38.2955 54.4631C38.2955 55.3528 40.2169 56.0731 42.5888 56.0731C44.9607 56.0731 46.8821 55.3528 46.8821 54.4631H38.2955Z" fill="white"/>
<path d="M50.8574 1.85177C48.3397 0.890313 45.6497 0.353027 42.8538 0.353027C30.5834 0.353027 18.4853 9.96757 17.0277 23.64C16.6832 26.8354 18.7371 37.3549 18.7371 37.3549L20.8307 38.2739V34.1877C20.8307 34.1877 38.7725 33.8625 42.0588 32.9294C55.9723 29.0129 64.5854 23.6259 64.5854 23.6259V38.2598L66.3345 37.3407C66.3345 37.3407 68.6269 26.8354 68.4016 23.6259C67.5933 12.1167 60.0801 5.24514 50.8574 1.85177Z" fill="#7F542E"/>
<path d="M66.6128 37.779L66.2947 36.959L64.0818 37.9204L59.5897 44.594C59.1525 41.4269 56.6348 38.995 53.5473 38.995C50.4333 38.995 47.8759 41.4976 47.4916 44.7071C43.1055 41.2148 39.117 43.5477 37.6462 44.693C37.2486 41.4834 34.7045 38.995 31.6037 38.995C28.5428 38.995 26.0118 41.4269 25.5613 44.5657L21.0957 37.9346L18.8828 36.9731L18.5913 37.779L20.5922 38.6557L25.548 46.0079C25.7733 49.3871 28.397 52.0735 31.6302 52.0735C34.943 52.0735 37.6329 49.2598 37.7389 45.7534C38.4545 45.0747 42.6815 41.5259 47.4784 45.7675C47.5976 49.2598 50.2743 52.0735 53.5871 52.0735C56.807 52.0735 59.4175 49.4154 59.6692 46.0503L64.6516 38.6557L66.6128 37.779ZM31.617 51.1969C28.6885 51.1969 26.3166 48.6519 26.3166 45.5413C26.3166 42.4166 28.6885 39.8857 31.617 39.8857C34.5455 39.8857 36.9174 42.4166 36.9174 45.5413C36.9174 48.6519 34.5455 51.1969 31.617 51.1969ZM53.5606 51.1969C50.6321 51.1969 48.2602 48.6519 48.2602 45.5413C48.2602 42.4166 50.6321 39.8857 53.5606 39.8857C56.489 39.8857 58.861 42.4166 58.861 45.5413C58.861 48.6519 56.489 51.1969 53.5606 51.1969Z" fill="#151619"/>
<path d="M18.5913 81.2421C18.5913 86.3744 14.6955 90.5312 9.88542 90.5312C5.07532 90.5312 1.17953 86.3744 1.17953 81.2421C1.17953 76.1097 5.07532 71.9529 9.88542 71.9529C14.6955 71.9529 18.5913 76.1097 18.5913 81.2421Z" fill="#FFD097"/>
<path d="M12.0055 87.774C7.19544 87.774 3.2997 83.6172 3.2997 78.4848C3.2997 76.8871 3.67072 75.3884 4.33327 74.0876C2.39863 75.7984 1.17953 78.3717 1.17953 81.2418C1.17953 86.3742 5.07532 90.531 9.88542 90.531C13.1982 90.531 16.0868 88.5516 17.5577 85.639C16.0471 86.968 14.1124 87.774 12.0055 87.774Z" fill="#F0BC80"/>
<path d="M53.5206 85.1455H33.1671V90.362H53.5206V85.1455Z" fill="#C4B190"/>
<path d="M43.4632 91.3657C41.2105 91.3657 39.6734 91.1254 38.3085 90.5175V89.2734C39.5011 89.8106 41.4093 90.1217 43.4632 90.1217C45.5171 90.1217 47.4252 89.8106 48.6178 89.2734V90.5175C47.2529 91.1254 45.7158 91.3657 43.4632 91.3657Z" fill="#CE3500"/>
<path d="M25.2033 80.1114C12.2572 84.4379 2.8092 84.3389 2.8092 84.3389L1.37811 89.2734H38.3085C38.3085 89.2734 39.4349 86.2901 43.4632 86.276V84.3389C43.4632 84.3389 38.7193 75.601 25.2033 80.1114Z" fill="#E8DABC"/>
<path d="M61.723 80.1111C74.6824 84.4375 84.1171 84.3386 84.1171 84.3386L85.5482 89.2729H48.6178C48.6178 89.2729 47.4915 86.2897 43.4632 86.2756V84.3386C43.4632 84.3386 48.1938 75.6008 61.723 80.1111Z" fill="#E8DABC"/>
<path d="M25.1503 83.2358C38.7193 81.2283 43.4632 84.9746 43.4632 84.9746C43.4632 84.9746 38.7193 80.4225 25.1503 82.6986C12.1644 84.8757 2.68996 84.9746 2.68996 84.9746C2.68996 84.9746 12.1644 85.1584 25.1503 83.2358Z" fill="#C4B190"/>
<path d="M61.7627 83.2358C74.7487 85.1584 84.2231 84.9746 84.2231 84.9746C84.2231 84.9746 74.7619 84.8898 61.7627 82.6986C48.1938 80.4225 43.4499 84.9746 43.4499 84.9746C43.4499 84.9746 48.207 81.2283 61.7627 83.2358Z" fill="#C4B190"/>
<path d="M25.1503 85.6395C38.7193 84.9616 43.4632 86.2185 43.4632 86.2185C43.4632 86.2185 38.5603 84.4815 25.0045 85.2441C12.0186 85.9784 2.7032 86.2185 2.7032 86.2185C2.7032 86.2185 12.1644 86.2891 25.1503 85.6395Z" fill="#C4B190"/>
<path d="M61.7627 85.6383C74.7487 86.2879 84.2231 86.2173 84.2231 86.2173C84.2231 86.2173 74.6029 85.9772 61.617 85.2429C48.048 84.4803 43.4632 86.2173 43.4632 86.2173C43.4632 86.2173 48.207 84.9745 61.7627 85.6383Z" fill="#C4B190"/>
<path d="M24.9648 87.9016C38.6663 87.5909 39.0373 88.1135 39.0373 88.1135C39.0373 88.1135 38.6663 87.0684 24.9648 87.4215C11.8463 87.7604 2.27914 88.17 2.27914 88.17C2.27914 88.17 11.8331 88.1982 24.9648 87.9016Z" fill="#C4B190"/>
<path d="M61.9615 87.9016C75.0799 88.1982 84.6471 88.17 84.6471 88.17C84.6471 88.17 75.0799 87.7604 61.9615 87.4215C48.26 87.0684 47.8625 88.1135 47.8625 88.1135C47.8625 88.1135 48.26 87.5909 61.9615 87.9016Z" fill="#C4B190"/>
<path d="M38.2953 89.2734H0V90.5162H38.2953V89.2734Z" fill="#FFB600"/>
<path d="M86.913 89.2734H48.6178V90.5162H86.913V89.2734Z" fill="#FFB600"/>
<path d="M104.762 56.6821V50.1791H81.0694V49.3733H106.127C107.465 50.8011 107.465 56.0459 106.127 57.4738H81.0694V56.668H104.762V56.6821Z" fill="#FD6220"/>
<path d="M104.616 53.43C104.616 55.2254 104.948 56.6815 105.358 56.6815C105.756 56.6815 106.087 55.2254 106.087 53.43C106.087 51.6346 105.756 50.1785 105.358 50.1785C104.948 50.1785 104.616 51.6346 104.616 53.43Z" fill="#2C5871"/>
<path d="M105.358 50.1785H82.3813V56.6815H105.358V50.1785Z" fill="#E8DABC"/>
<path d="M105.358 52.4126H82.3813V52.8645H105.358V52.4126Z" fill="#C4B190"/>
<path d="M105.358 50.8423H82.3813V51.2942H105.358V50.8423Z" fill="#C4B190"/>
<path d="M105.358 53.9817H82.3813V54.4336H105.358V53.9817Z" fill="#C4B190"/>
<path d="M105.358 55.5515H82.3813V56.0034H105.358V55.5515Z" fill="#C4B190"/>
<path d="M108.631 69.6909V63.1868H76.6966V62.3809H109.996C111.335 63.8089 111.335 69.0546 109.996 70.4827H76.6966V69.6767H108.631V69.6909Z" fill="#FFB600"/>
<path d="M108.499 66.4375C108.499 68.2329 108.83 69.689 109.228 69.689C109.638 69.689 109.956 68.2329 109.956 66.4375C109.956 64.6421 109.625 63.186 109.228 63.186C108.817 63.186 108.499 64.6421 108.499 66.4375Z" fill="#2C5871"/>
<path d="M109.228 63.186H78.0084V69.689H109.228V63.186Z" fill="#E8DABC"/>
<path d="M109.228 65.4209H78.0084V65.8728H109.228V65.4209Z" fill="#C4B190"/>
<path d="M109.228 63.8496H78.0084V64.3015H109.228V63.8496Z" fill="#C4B190"/>
<path d="M109.228 67.0042H78.0084V67.4561H109.228V67.0042Z" fill="#C4B190"/>
<path d="M109.228 68.5596H78.0084V69.0115H109.228V68.5596Z" fill="#C4B190"/>
<path d="M76.4846 80.2249V90.1501H110.394V91.366H74.3909C72.337 89.1745 72.337 81.1863 74.3909 78.9949H110.394V80.2108H76.4846V80.2249Z" fill="#049DA5"/>
<path d="M76.7098 85.1716C76.7098 82.4429 76.2063 80.209 75.5835 80.209C74.9607 80.209 74.4572 82.4287 74.4572 85.1716C74.4572 87.9145 74.9607 90.1343 75.5835 90.1343C76.193 90.1343 76.7098 87.9145 76.7098 85.1716Z" fill="#2C5871"/>
<path d="M108.406 80.2231H75.5835V90.1487H108.406V80.2231Z" fill="#E8DABC"/>
<path d="M108.406 86.0344H75.5835V86.7264H108.406V86.0344Z" fill="#C4B190"/>
<path d="M108.406 88.425H75.5835V89.117H108.406V88.425Z" fill="#C4B190"/>
<path d="M108.406 83.6311H75.5835V84.3231H108.406V83.6311Z" fill="#C4B190"/>
<path d="M108.406 81.2424H75.5835V81.9344H108.406V81.2424Z" fill="#C4B190"/>
<path d="M109.267 70.6946H75.9678V78.7961H109.267V70.6946Z" fill="#FD6220"/>
<path d="M81.1092 72.5188H78.0084V76.9437H81.1092V72.5188Z" fill="white"/>
<path d="M106.829 57.686H80.1021V62.2664H106.829V57.686Z" fill="#2C5871"/>
<path d="M103.145 57.686H102.417V62.2664H103.145V57.686Z" fill="white"/>
<path d="M100.204 57.686H99.475V62.2664H100.204V57.686Z" fill="white"/>
<path opacity="0.3" d="M47.3854 25.677L0 90.5181H74.4571L66.2548 34.3017L47.3854 25.677Z" fill="#FFB600" fill-opacity="0.6"/>
<path d="M101.317 49.3736C99.051 47.451 96.1887 46.3059 93.088 46.3059C89.974 46.3059 87.1384 47.4651 84.8724 49.3736H101.317Z" fill="#CE3500"/>
<path d="M94.8106 46.7297H91.5111V22.5238C91.5111 13.8142 84.8724 6.73057 76.7098 6.73057C68.5472 6.73057 61.9085 13.8142 61.9085 22.5238H58.609C58.609 11.8772 66.7319 3.20996 76.7098 3.20996C86.6878 3.20996 94.8106 11.8772 94.8106 22.5238V46.7297Z" fill="#CE3500"/>
<path d="M66.2548 34.3015L47.3855 25.6768L60.5304 19.2437L61.564 19.7102L66.2548 34.3015Z" fill="#CE3500"/>
</svg>
