<svg width="87" height="108" viewBox="0 0 87 108" fill="none" xmlns="http://www.w3.org/2000/svg">
<path d="M25.9377 13.3884L19.3571 8.60801C19.058 8.38542 18.652 8.3536 18.3209 8.52319C17.9897 8.69279 17.7761 9.03199 17.7761 9.40297L19.7524 11.3427L24.7626 14.9783C25.2005 15.2963 25.8201 15.2009 26.1513 14.7663C26.4718 14.3212 26.3863 13.7064 25.9377 13.3884Z" fill="#FD6220"/>
<path d="M82.8765 19.7495L49.1084 1.60057C46.0104 -0.063796 41.0003 -0.063796 37.9023 1.60057L4.13422 19.7495C1.03623 21.4139 1.03623 24.1066 4.13422 25.771L37.9023 43.9199C41.0003 45.5843 46.0104 45.5843 49.1084 43.9199L82.8765 25.771C85.9638 24.1066 85.9638 21.4139 82.8765 19.7495Z" fill="#225E87"/>
<path d="M18.0217 39.5737V62.472C18.0217 76.4442 29.4309 87.7661 43.5107 87.7661C57.5905 87.7661 68.9996 76.4442 68.9996 62.472V39.5737H18.0217Z" fill="#151619"/>
<path d="M63.0066 70.0305H24.004V101.516H63.0066V70.0305Z" fill="#FF6C6C"/>
<path d="M31.0546 70.0305C31.0546 76.8574 36.6309 82.3804 43.5106 82.3804C50.3903 82.3804 55.9667 76.8468 55.9667 70.0305H31.0546Z" fill="white"/>
<path d="M51.2343 98.6958H35.4773C30.1145 98.6958 25.5637 95.208 24.004 90.395V101.632H63.0066V89.3137C61.8101 94.6779 57.0029 98.6958 51.2343 98.6958Z" fill="#E22B2B"/>
<path d="M25.1471 49.7505C25.1471 52.2736 23.0853 54.3196 20.5428 54.3196C18.0004 54.3196 15.9386 52.2736 15.9386 49.7505C15.9386 47.2274 18.0004 45.1814 20.5428 45.1814C23.0853 45.1708 25.1471 47.2168 25.1471 49.7505Z" fill="#FFD097"/>
<path d="M71.072 49.7505C71.072 52.2736 69.0103 54.3196 66.4678 54.3196C63.9146 54.3196 61.8635 52.2736 61.8635 49.7505C61.8635 47.2274 63.9253 45.1814 66.4678 45.1814C69.0103 45.1708 71.072 47.2168 71.072 49.7505Z" fill="#FFD097"/>
<path d="M50.7429 72.2992C50.7429 76.1898 47.5701 79.3384 43.6495 79.3384C39.729 79.3384 36.5562 76.1898 36.5562 72.2992V69.2991C36.5562 65.4085 39.729 62.2705 43.6495 62.2705C47.5594 62.2705 50.7429 65.4191 50.7429 69.2991V72.2992Z" fill="#F0BC80"/>
<path d="M66.5746 47.1211C66.5746 59.7576 56.2444 70.0088 43.5106 70.0088C30.7768 70.0088 20.4467 59.7576 20.4467 47.1211V35.0571C20.4467 22.4207 30.7768 12.1694 43.5106 12.1694C56.2444 12.1694 66.5746 22.4207 66.5746 35.0571V47.1211Z" fill="#FFD097"/>
<path d="M54.9091 42.9131C56.3727 42.9131 57.7187 43.4007 58.8083 44.2168C58.0392 42.8707 56.5863 41.9697 54.9091 41.9697C53.2426 41.9697 51.7898 42.8813 51.0099 44.2168C52.0996 43.4007 53.4456 42.9131 54.9091 42.9131Z" fill="#151619"/>
<path d="M32.2832 43.3048C30.8196 43.3048 29.4736 43.7924 28.384 44.6085C29.1531 43.2624 30.606 42.3508 32.2832 42.3508C33.9603 42.3508 35.4132 43.2624 36.1824 44.6085C35.1034 43.7924 33.7467 43.3048 32.2832 43.3048Z" fill="#151619"/>
<path d="M57.1204 48.531C57.1204 50.1527 55.7851 51.4777 54.1293 51.4777C52.4735 51.4777 51.1381 50.1633 51.1381 48.531H57.1204Z" fill="black"/>
<path d="M29.965 48.531C29.965 50.1527 31.3003 51.4777 32.9561 51.4777C34.6119 51.4777 35.9473 50.1633 35.9473 48.531H29.965Z" fill="black"/>
<path d="M32.2831 48.5418V49.4957C30.6166 49.4957 29.1531 48.5842 28.3839 47.238C29.4735 48.0648 30.8196 48.5418 32.2831 48.5418Z" fill="black"/>
<path d="M31.3751 49.0186V49.9726C29.7086 49.9726 28.245 49.061 27.4759 47.7148C28.5548 48.531 29.9009 49.0186 31.3751 49.0186Z" fill="black"/>
<path d="M54.8023 48.5418V49.4957C56.4688 49.4957 57.9217 48.5842 58.7015 47.238C57.6225 48.0648 56.2765 48.5418 54.8023 48.5418Z" fill="black"/>
<path d="M55.721 49.0186V49.9726C57.3982 49.9726 58.851 49.061 59.6202 47.7148C58.5306 48.531 57.1845 49.0186 55.721 49.0186Z" fill="black"/>
<path d="M62.6113 57.5956C62.6113 60.2565 60.4427 62.3979 57.7614 62.3979C55.0907 62.3979 52.9221 60.2459 52.9221 57.5956C52.9221 54.9453 55.0907 52.7932 57.7614 52.7932C60.4427 52.7932 62.6113 54.9453 62.6113 57.5956Z" fill="#F9977D"/>
<path d="M34.6974 57.5956C34.6974 60.2565 32.5288 62.3979 29.8581 62.3979C27.1768 62.3979 25.0082 60.2459 25.0082 57.5956C25.0082 54.9453 27.1768 52.7932 29.8581 52.7932C32.5288 52.7932 34.6974 54.9453 34.6974 57.5956Z" fill="#F9977D"/>
<path d="M44.814 50.853H43.5427V56.386H44.814C46.3523 56.386 47.6022 55.1458 47.6022 53.6195C47.6022 52.0932 46.3523 50.853 44.814 50.853Z" fill="#F0BC80"/>
<path d="M38.3937 60.5107C38.3937 63.3302 40.7011 65.6197 43.5427 65.6197C46.3843 65.6197 48.6918 63.3302 48.6918 60.5107H38.3937Z" fill="#FD6220"/>
<path d="M39.4085 60.5107C39.4085 61.3057 41.2566 61.9629 43.5427 61.9629C45.8181 61.9629 47.6769 61.3163 47.6769 60.5107H39.4085Z" fill="white"/>
<path d="M43.5 10.0813C29.4202 10.0813 18.011 21.4033 18.011 35.3755V84.31L23.2242 89.7695V41.3651H42.3035L43.6389 31.2834L44.9742 41.3651H63.7651V89.7695L68.9783 84.31V35.3755C68.9889 21.4139 57.5798 10.0813 43.5 10.0813Z" fill="#7F542E"/>
<path d="M43.3505 68.7371C43.3505 76.0412 43.3505 92.3563 43.3505 100.657C53.7127 97.3282 64.2352 101.441 74.9393 98.558C75.4307 89.3986 76.328 71.9386 76.6058 66.6274C65.3462 69.4473 54.2575 65.2387 43.3505 68.7371Z" fill="white"/>
<path d="M43.3824 68.7371C43.3824 76.0412 43.3824 92.3563 43.3824 100.657C33.0202 97.3282 22.4978 101.441 11.7937 98.558C11.3023 89.3986 10.4049 71.9386 10.1272 66.6274C21.3868 69.4473 32.4754 65.2387 43.3824 68.7371Z" fill="white"/>
<path d="M43.4252 69.8179C43.4252 78.4154 43.4252 97.6034 43.4252 107.367C54.2789 103.455 65.3141 108.289 76.5309 104.897C77.0437 94.1262 77.9838 73.5707 78.2722 67.3267C66.4678 70.6554 54.8557 65.6941 43.4252 69.8179Z" fill="#2D9CDB"/>
<path d="M43.2543 69.8179C43.2543 78.4154 43.2543 97.6034 43.2543 107.367C32.4006 103.455 21.3654 108.289 10.1486 104.897C9.6358 94.1262 8.69572 73.5707 8.40729 67.3267C20.2117 70.6554 31.8345 65.6941 43.2543 69.8179Z" fill="#2D9CDB"/>
<path d="M43.3504 68.7366C42.0685 68.7154 40.6904 69.0439 40.6904 69.0439C41.5344 69.3089 43.3504 69.2984 43.3504 69.2984C43.3504 69.2984 45.1665 69.3195 45.9997 69.0439C45.9997 69.0439 44.6323 68.726 43.3504 68.7366Z" fill="#9DA09A"/>
<path d="M43.3504 69.2986C42.6881 69.2986 41.513 69.2032 40.7011 69.0229V107.038C41.513 107.219 42.4103 107.314 43.3504 107.314C44.2905 107.314 45.1879 107.219 45.9998 107.038V69.0229C45.1879 69.1926 44.0128 69.2986 43.3504 69.2986Z" fill="white"/>
<path d="M70.2067 86.1547C70.2067 90.7555 73.967 94.4871 78.6033 94.4871C83.2503 94.4871 86.9999 90.7555 86.9999 86.1547C86.9999 81.5538 83.2396 77.8223 78.6033 77.8223C73.967 77.8223 70.2067 81.5538 70.2067 86.1547Z" fill="#FFD097"/>
<path d="M76.563 92.0166C81.21 92.0166 84.9596 88.2851 84.9596 83.6843C84.9596 82.2532 84.5964 80.9069 83.9554 79.7302C85.8142 81.2567 87 83.5677 87 86.1543C87 90.7551 83.2397 94.4866 78.6034 94.4866C75.4092 94.4866 72.6211 92.7162 71.2109 90.0978C72.6638 91.2957 74.5333 92.0166 76.563 92.0166Z" fill="#F0BC80"/>
<path d="M16.7932 86.1547C16.7932 90.7555 13.0329 94.4871 8.39661 94.4871C3.76031 94.4871 0 90.7555 0 86.1547C0 81.5538 3.76031 77.8223 8.39661 77.8223C13.0329 77.8223 16.7932 81.5538 16.7932 86.1547Z" fill="#FFD097"/>
<path d="M10.4477 92.0168C5.80072 92.0168 2.0404 88.2852 2.0404 83.6844C2.0404 82.2532 2.40361 80.9069 3.04458 79.7302C1.18578 81.2568 0 83.5678 0 86.1544C0 90.7553 3.76032 94.4868 8.39662 94.4868C11.6014 94.4868 14.3789 92.7165 15.7997 90.098C14.3469 91.2959 12.4774 92.0168 10.4477 92.0168Z" fill="#F0BC80"/>
<path d="M4.13422 25.7707L11.4839 29.7249C12.4667 29.4386 13.4923 29.2584 14.5712 29.2584H76.3814L82.8765 25.7707C85.9745 24.1064 85.9745 21.4137 82.8765 19.7494L49.1084 1.60056C46.0104 -0.0637921 41.0002 -0.0637921 37.9023 1.60056L4.13422 19.7494C1.03623 21.4137 1.03623 24.1064 4.13422 25.7707Z" fill="#225E87"/>
<path d="M68.9889 35.1953C52.5696 29.0362 34.4411 29.0362 18.0217 35.1953C18.0217 31.4956 18.0217 27.7959 18.0217 24.0962C34.4411 17.937 52.5696 17.937 68.9889 24.0962C68.9889 27.7959 68.9889 31.4956 68.9889 35.1953Z" fill="#0A3B56"/>
<path d="M17.7867 9.39258V40.9836C17.7867 41.5242 18.2354 41.9695 18.7802 41.9695C19.3251 41.9695 19.7737 41.5348 19.7737 40.9836V11.322L17.7867 9.39258Z" fill="#FD6220"/>
<path d="M21.0343 44.1212C21.0343 45.3616 18.7696 49.3052 18.7696 49.3052C18.7696 49.3052 16.5155 45.351 16.5155 44.1212C16.5155 40.2624 17.5304 39.9126 18.7696 39.9126C20.0194 39.9126 21.0343 40.2624 21.0343 44.1212Z" fill="#FD6220"/>
</svg>
