<svg width="53" height="54" viewBox="0 0 53 54" fill="none" xmlns="http://www.w3.org/2000/svg">
<path fill-rule="evenodd" clip-rule="evenodd" d="M26.5 0.533205C11.8645 0.533205 0 12.3993 0 27.0369C0 41.6744 11.8645 53.5405 26.5 53.5405C41.1355 53.5405 53 41.6744 53 27.0369C53 12.3993 41.1355 0.533205 26.5 0.533205Z" fill="#FAFAFA"/>
<path d="M0.5 27.0369C0.5 12.6754 12.1407 1.0332 26.5 1.0332C40.8593 1.0332 52.5 12.6754 52.5 27.0369C52.5 41.3984 40.8593 53.0405 26.5 53.0405C12.1407 53.0405 0.5 41.3984 0.5 27.0369Z" stroke="#2C87BF" stroke-opacity="0.7"/>
<path d="M23.9403 20.312L30.2686 26.6414L23.9403 32.9707" stroke="#2C87BF" stroke-width="2" stroke-linecap="round" stroke-linejoin="round"/>
</svg>
