<svg width="24" height="25" viewBox="0 0 24 25" fill="none" xmlns="http://www.w3.org/2000/svg">
<g clip-path="url(#clip0)">
<path d="M0.557556 23.5014L2.17328 17.6003C1.17664 15.8732 0.652405 13.9141 0.653137 11.907C0.655701 5.62793 5.76471 0.519478 12.0427 0.519478C15.0892 0.52076 17.9487 1.70672 20.0991 3.85925C22.2493 6.01177 23.4331 8.87302 23.432 11.9161C23.4293 18.195 18.3195 23.3041 12.0427 23.3041C12.0423 23.3041 12.0428 23.3041 12.0427 23.3041H12.0377C10.1316 23.3034 8.25879 22.8253 6.59528 21.9178L0.557556 23.5014ZM6.87488 19.8563L7.22076 20.0613C8.67389 20.9238 10.34 21.38 12.039 21.3809H12.0427C17.2601 21.3809 21.5067 17.1344 21.5089 11.9154C21.5098 9.38616 20.5261 7.00783 18.7388 5.21881C16.9514 3.4298 14.5748 2.44401 12.0461 2.44291C6.82452 2.44291 2.57813 6.68881 2.57611 11.9077C2.57538 13.6962 3.07562 15.4377 4.02338 16.9449L4.2486 17.3031L3.29205 20.7958L6.87488 19.8563Z" fill="white"/>
<path d="M0.953613 23.1037L2.51349 17.4067C1.55109 15.7395 1.04517 13.8479 1.04572 11.9106C1.0481 5.84891 5.98041 0.917366 12.0407 0.917366C14.9821 0.918648 17.7427 2.06359 19.8182 4.14158C21.8943 6.21957 23.0369 8.98174 23.0358 11.9192C23.0332 17.981 18.1007 22.9131 12.0412 22.9131C12.0407 22.9131 12.0414 22.9131 12.0412 22.9131H12.0363C10.1962 22.9124 8.38806 22.4505 6.78223 21.5751L0.953613 23.1037Z" fill="#2CB742"/>
<path d="M0.557556 23.5014L2.17328 17.6003C1.17664 15.8732 0.652405 13.9141 0.653137 11.907C0.655701 5.62793 5.76471 0.519478 12.0427 0.519478C15.0892 0.52076 17.9487 1.70672 20.0991 3.85925C22.2493 6.01177 23.4331 8.87302 23.432 11.9161C23.4293 18.195 18.3195 23.3041 12.0427 23.3041C12.0423 23.3041 12.0428 23.3041 12.0427 23.3041H12.0377C10.1316 23.3034 8.25879 22.8253 6.59528 21.9178L0.557556 23.5014ZM6.87488 19.8563L7.22076 20.0613C8.67389 20.9238 10.34 21.38 12.039 21.3809H12.0427C17.2601 21.3809 21.5067 17.1344 21.5089 11.9154C21.5098 9.38616 20.5261 7.00783 18.7388 5.21881C16.9514 3.4298 14.5748 2.44401 12.0461 2.44291C6.82452 2.44291 2.57813 6.68881 2.57611 11.9077C2.57538 13.6962 3.07562 15.4377 4.02338 16.9449L4.2486 17.3031L3.29205 20.7958L6.87488 19.8563Z" fill="white"/>
<path fill-rule="evenodd" clip-rule="evenodd" d="M9.1961 7.1454C8.98297 6.67145 8.75848 6.66193 8.5556 6.65369C8.38971 6.64655 8.19983 6.64691 8.01031 6.64691C7.82062 6.64691 7.51227 6.71834 7.25152 7.00311C6.9906 7.28787 6.25525 7.97645 6.25525 9.37686C6.25525 10.7774 7.27515 12.1306 7.41742 12.3207C7.55969 12.5106 9.38617 15.4762 12.2787 16.6171C14.6827 17.5654 15.1717 17.3768 15.6936 17.3293C16.2154 17.2819 17.3772 16.6408 17.6144 15.9762C17.8517 15.3116 17.8517 14.7421 17.7804 14.6228C17.7092 14.5044 17.5195 14.4331 17.235 14.2908C16.9504 14.1485 15.5513 13.4598 15.2904 13.3649C15.0295 13.2699 14.8398 13.2226 14.6501 13.5076C14.4602 13.7922 13.9153 14.4331 13.7492 14.6228C13.5831 14.8131 13.417 14.8369 13.1325 14.6944C12.848 14.5518 11.9313 14.2514 10.844 13.2818C9.9981 12.5274 9.42681 11.5957 9.26074 11.3107C9.09484 11.0261 9.25799 10.8855 9.3858 10.73C9.61596 10.45 10.0021 9.94658 10.097 9.75685C10.1918 9.56676 10.1444 9.40066 10.0734 9.25819C10.0021 9.11589 9.44897 7.70834 9.1961 7.1454Z" fill="white"/>
</g>
<defs>
<clipPath id="clip0">
<rect width="24" height="24.0034" fill="white" transform="translate(0 0.00879669)"/>
</clipPath>
</defs>
</svg>
